<?xml version="1.0" encoding="utf-8"?>
<!-- Generator: Adobe Illustrator 24.1.0, SVG Export Plug-In . SVG Version: 6.00 Build 0)  -->
<svg version="1.1" id="Layer_1" xmlns="http://www.w3.org/2000/svg" xmlns:xlink="http://www.w3.org/1999/xlink" x="0px" y="0px"
	 viewBox="0 0 209.74 69.9" style="enable-background:new 0 0 209.74 69.9;" xml:space="preserve">
<style type="text/css">
	.st0{fill:#01E1A7;}
	.st1{fill:#020202;}
</style>
<g>
	<path class="st0" d="M32.62,0c-0.1,0.32,0.02,0.58,0.32,0.67c2.16,0.67,3.5,2.44,5.11,3.82c5.16,4.42,10.25,8.93,15.37,13.4
		c2.7,2.36,5.4,4.71,8.09,7.07c0.33,0.29,0.66,0.59,0.93,0.93c0.63,0.83,1.24,1.67,0.74,2.82c-0.51,1.16-1.37,1.86-2.6,2.04
		c-1.46,0.21-2.93,0.29-4.4,0.48c-2.74,0.34-3.54,1.18-3.21,3.93c0.39,3.31,1.01,6.59,1.57,9.88c0.37,2.12,0.73,4.23,0.78,6.38
		c0.05,2.3-1.87,4.25-4.17,4.41c-0.6,0.04-1.2,0.02-1.8,0.02c-12.06,0-24.12-0.02-36.18,0.02c-2.01,0.01-3.51-0.7-4.63-2.38
		c-0.79-1.19-0.66-2.47-0.48-3.69c0.76-4.94,1.62-9.87,2.47-14.8c0.3-1.75-0.31-2.93-2.03-3.5c-1.64-0.55-3.38-0.62-5.08-0.66
		c-1.39-0.04-2.22-0.97-3.22-1.65c-0.39-0.27-0.16-2.32,0.17-2.7c1.43-1.61,3.15-2.91,4.75-4.33c4.38-3.88,8.81-7.71,13.22-11.56
		c3.42-2.98,6.84-5.97,10.25-8.96c0.43-0.38,0.92-0.63,1.44-0.83C30.42,0.67,30.82,0.55,30.7,0C31.34,0,31.98,0,32.62,0z
		 M31.72,43.72c0.8,0,1.6,0.01,2.4,0c1.41-0.02,1.85-0.38,1.76-1.77c-0.1-1.54-0.33-3.08-0.57-4.61c-0.19-1.2-0.18-2.35,0.89-3.13
		c2.75-2.01,3.35-4.74,2.87-7.92c-0.49-3.25-4.41-6.32-7.68-5.88c-2.95,0.4-5.23,1.64-6.66,4.52c-1.42,2.87-0.45,7.12,1.86,8.76
		c1.39,0.99,1.68,2.15,1.46,3.7c-0.22,1.53-0.34,3.08-0.43,4.63c-0.07,1.24,0.37,1.66,1.6,1.69C30.04,43.73,30.88,43.72,31.72,43.72
		z"/>
	<path class="st1" d="M184.82,53.99c-2.2-1.45-3.67-3.45-4.53-5.93c-0.2-0.57-0.39-1.12-0.46-1.72c-0.24-1.84,0.18-2.33,2-2.34
		c1.6,0,3.2,0.12,4.78-0.03c1.52-0.15,2.4,0.5,2.84,1.78c1.13,3.35,7.21,4.12,9.61,1.52c1.27-1.38,1.12-3.21-0.49-4.16
		c-0.95-0.56-1.98-1-3.1-1.22c-2.77-0.55-5.57-0.94-8.25-1.88c-4.99-1.74-7.11-4.96-6.91-9.9c0.18-4.51,2.64-7.55,6.78-9.39
		c1.64-0.73,3.37-0.89,5.05-1.36c-0.11,0.16,0.02,0.18,0.11,0.17c0.08,0,0.24,0.02,0.14-0.16c2.28-0.32,4.47-0.09,6.71,0.54
		c1.65,0.46,3.2,1.03,4.64,1.89c2.9,1.72,4.4,4.38,4.93,7.64c0.17,1.06-0.32,1.6-1.38,1.6c-2.16,0-4.31-0.03-6.47-0.04
		c-0.85,0-1.43-0.36-1.61-1.23c-0.28-1.34-1.22-2.19-2.42-2.52c-1.98-0.55-4.02-0.71-5.85,0.6c-1.08,0.78-1.65,1.99-1.2,3.1
		c0.42,1.05,1.1,1.71,2.44,2.05c3.93,1,8.08,1.19,11.8,2.95c2.31,1.09,4.12,2.7,4.9,5.25c0.12,0.4,0.07,1.06,0.85,0.86
		c0,1.67,0,3.35,0,5.02c-0.53-0.07-0.75,0.15-0.67,0.68c-0.06,0.16-0.11,0.32-0.17,0.48c-0.07-0.12-0.21-0.15-0.26-0.03
		c-0.07,0.2-0.21,0.44,0.08,0.61c-0.91,2.8-2.94,4.62-5.4,6c-1.11,0.62-2.3,1.09-3.58,1.28c-0.37-0.16-0.67-0.05-0.91,0.25
		c-0.25,0.07-0.5,0.13-0.74,0.2c-0.18-0.19-0.33-0.21-0.4,0.09c-2.03,0.17-4.05,0.2-6.08,0c-0.09-0.29-0.23-0.26-0.4-0.06
		c-0.25-0.08-0.51-0.15-0.76-0.23c-0.01-0.2-0.07-0.23-0.19-0.06c-0.66-0.2-1.32-0.39-1.97-0.59c0.02-0.03,0.06-0.07,0.06-0.1
		c0-0.02-0.05-0.06-0.08-0.06c-0.79-0.17-1.35-0.88-2.19-0.93c-0.44-0.12-0.71-0.6-1.21-0.59L184.82,53.99z"/>
	<path class="st1" d="M209.06,47.76c-0.08-0.52,0.15-0.75,0.67-0.68c0,0.32,0,0.64,0,0.96C209.53,47.91,209.21,48.04,209.06,47.76z"
		/>
	<path class="st1" d="M169.05,64.7c-1.79,1.97-4.17,3.01-6.53,4.02c-0.64,0.28-1.49,0.14-2.22,0.35c-0.39-0.04-0.77-0.05-0.72,0.52
		c-2.39,0.23-4.88,0.54-7.16,0.01c-4.69-1.08-9.24-2.7-12.2-6.93c-0.94-1.35-1.6-2.84-2.19-4.35c-0.37-0.95,0.03-1.62,1.06-1.66
		c2.39-0.08,4.79-0.05,7.18-0.03c0.59,0.01,1.06,0.35,1.39,0.84c2.2,3.3,5.51,4.01,9.13,3.73c2.75-0.22,5.02-1.46,6.49-3.91
		c0.74-1.23,1.01-2.59,1.18-3.97c0.13-1.07-0.27-1.34-1.24-0.85c-1.6,0.82-3.24,1.56-5,1.94c-2.85,0.62-5.66,0.51-8.52-0.19
		c-2.13-0.52-3.92-1.7-5.88-2.53c-0.63-0.27-1.02-1.07-1.58-1.57c-4.29-3.84-5.74-8.75-5.49-14.32c0.17-3.83,1.54-7.16,3.92-10.14
		c2.33-2.91,5.34-4.73,8.86-5.77c0.48,0.08,0.95,0.09,1.33-0.29c0.27-0.05,0.54-0.1,0.81-0.15c0.31,0.25,0.6,0.2,0.87-0.07
		c0.36-0.05,0.71-0.11,1.06-0.16c0.5,0.21,1,0.22,1.5,0c0.36,0.04,0.73,0.09,1.09,0.13c0.56,0.34,1.18,0.33,1.8,0.3
		c0.32,0.08,0.63,0.16,0.95,0.24c-0.05,0.05-0.13,0.1-0.14,0.16c-0.01,0.05,0.07,0.14,0.12,0.15c2.02,0.54,3.88,1.36,5.51,2.73
		c1.29,1.09,1.94,0.87,2.59-0.64c0.74-1.73,1.15-1.98,3.01-2c0.86-0.01,1.73,0.18,2.57-0.14c1.17,0.26,1.27,1.15,1.27,2.12
		c-0.01,9.52-0.01,19.03-0.02,28.55c0,0.95-0.07,1.91-0.11,2.86c-0.21,0.19-0.25,0.4-0.02,0.6c-0.07,0.61-0.14,1.21-0.21,1.82
		c-0.39,0.44-0.61,0.94-0.51,1.55c-0.15,0.59-0.3,1.18-0.45,1.76c-0.41,0.3-0.65,0.69-0.67,1.2c-0.09,0.24-0.19,0.48-0.28,0.72
		c-0.46,0.37-0.79,0.83-0.93,1.42c-0.1,0.13-0.21,0.26-0.31,0.4c-0.4,0.13-0.61,0.39-0.64,0.81c-0.1,0.13-0.21,0.25-0.31,0.38
		C169.19,64.34,169.07,64.47,169.05,64.7z M155.55,27.71c-5.61-0.24-9.52,4.22-9.49,9.33c0.03,5.47,3.9,9.53,9.38,9.52
		c5.51,0,9.28-3.93,9.43-9.47C164.99,32.17,160.8,27.43,155.55,27.71z"/>
	<path class="st1" d="M81.49,52.21c-1.95-1.56-3.3-3.58-4.44-5.76c0.16-0.13,0.13-0.2-0.07-0.22c-0.13-0.34-0.27-0.68-0.4-1.02
		c0.06-0.51-0.21-0.91-0.5-1.29c-0.07-0.35-0.15-0.7-0.22-1.05c0.16-0.09,0.15-0.15-0.03-0.19c-0.07-0.28-0.13-0.56-0.2-0.84
		c0.02-2.06-0.59-4.12-0.1-6.2c0.11-0.45,0.39-0.97,0.1-1.48c0.07-0.28,0.13-0.56,0.2-0.84c0.18-0.04,0.19-0.11,0.02-0.19
		c0.07-0.35,0.15-0.7,0.22-1.05c1.08-1.76,1.75-3.74,3.01-5.41c1.04-1.37,2.27-2.53,3.49-3.72c0.34-0.28,0.68-0.56,1.03-0.85
		c0.14,0.13,0.21,0.1,0.21-0.09c0.74-0.38,1.48-0.76,2.21-1.15c0.7,0.02,1.29-0.22,1.78-0.72c0.35-0.08,0.69-0.16,1.03-0.23
		c0.09,0.17,0.16,0.16,0.2-0.03c0.28-0.06,0.56-0.13,0.84-0.19c0.06,0.03,0.14,0.09,0.2,0.08c4.4-0.93,8.52-0.25,12.37,2.08
		c0.45,0.27,0.94,0.1,1.22-0.37c0.03-1.78,0.05-3.56,0.08-5.34c0.06-2.97-0.13-5.95,0.09-8.92c0.44-0.56,0.98-0.81,1.72-0.79
		c1.76,0.04,3.51,0.02,5.27,0.01c1.91,0,2.31,0.4,2.31,2.29c0,14.81-0.01,29.62,0.01,44.43c0,0.9-0.12,1.71-0.57,2.48
		c-2.02,0.26-4.05,0.25-6.07-0.02c-0.22-0.49-0.56-0.91-0.73-1.44c-0.42-1.29-1.02-1.39-2.08-0.45c-0.2,0.14-0.41,0.27-0.61,0.41
		c-1.59,0.7-3.09,1.61-4.85,1.93c-0.48,0.09-1.07,0.12-1.44,0.57c-0.55,0.05-1.09,0.09-1.64,0.14c-0.72-0.19-1.45-0.2-2.17,0.02
		c-0.55-0.05-1.1-0.09-1.65-0.14c-1.14-0.26-2.19-0.88-3.41-0.8c-0.29-0.06-0.58-0.12-0.87-0.18c-0.61-0.63-1.37-0.95-2.23-1.06
		c-0.18-0.13-0.37-0.25-0.55-0.38c0.04-0.19-0.03-0.24-0.19-0.13c-0.91-0.27-1.48-1.04-2.24-1.53
		C81.87,52.34,81.81,52.15,81.49,52.21z M84.88,38.1c-0.11,5.97,4.48,9.77,9.74,9.81c5.69,0.04,10.06-4.26,9.96-9.98
		c-0.1-5.82-3.92-9.75-9.93-9.84C89.46,28.02,84.76,32.61,84.88,38.1z"/>
	<path class="st1" d="M120.83,38c0-5.25,0-10.51,0-15.76c0-1.66,0.48-2.14,2.12-2.15c1.88-0.01,3.75-0.01,5.63,0
		c1.45,0.01,2.06,0.58,2.06,2.01c0.01,10.59,0.01,21.17,0,31.76c0,1.49-0.53,1.99-2.05,2c-1.88,0.01-3.75,0.01-5.63,0
		c-1.78-0.01-2.13-0.38-2.13-2.21C120.83,48.43,120.83,43.22,120.83,38z"/>
	<path class="st1" d="M125.76,16.1c-3.15,0.02-5.78-2.57-5.93-5.6c-0.15-3,2.81-6.03,5.87-5.98c3.04,0.05,5.89,2.78,5.92,5.75
		C131.64,12.84,129.22,16.34,125.76,16.1z"/>
	<path class="st1" d="M112.59,55.65c0.45-0.77,0.57-1.59,0.57-2.48c-0.02-14.81-0.02-29.62-0.01-44.43c0-1.9-0.39-2.3-2.31-2.29
		c-1.76,0-3.51,0.03-5.27-0.01c-0.74-0.02-1.28,0.24-1.72,0.79c-0.09-0.94,0.61-1.13,1.26-1.15c2.23-0.05,4.47-0.05,6.7-0.01
		c1.12,0.02,1.58,0.82,1.73,1.79c0.08,0.5,0.01,1.03,0.01,1.55c0,14.67,0,29.35,0.01,44.02c0,0.87-0.12,1.66-0.76,2.3
		c-0.03,0.03-0.07,0.04-0.11,0.05C112.58,55.81,112.55,55.77,112.59,55.65z"/>
	<path class="st1" d="M172.61,20.15c-0.84,0.33-1.72,0.13-2.57,0.14c-1.86,0.03-2.26,0.27-3.01,2c-0.64,1.51-1.3,1.72-2.59,0.64
		c-1.63-1.37-3.48-2.19-5.51-2.73c-0.05-0.01-0.12-0.11-0.12-0.15c0.01-0.06,0.09-0.1,0.14-0.16c2.18,0.06,3.86,1.29,5.54,2.43
		c1.27,0.86,1.27,0.94,2.06-0.42c0.79-1.36,1.78-2.29,3.54-2c0.81,0.14,1.66,0.05,2.5,0.07c0.02,0,0.06,0.04,0.06,0.06
		C172.66,20.08,172.63,20.12,172.61,20.15z"/>
	<path class="st1" d="M103.67,21.49c-0.28,0.47-0.78,0.64-1.22,0.37c-3.85-2.34-7.97-3.02-12.37-2.08c-0.06,0.01-0.13-0.05-0.2-0.08
		c0.68-0.49,1.32-0.6,3.37-0.72c3.23-0.18,6.2,0.76,9.05,2.16C102.76,21.36,103.19,21.48,103.67,21.49z"/>
	<path class="st1" d="M82.58,22.95c-1.22,1.19-2.46,2.35-3.49,3.72c-1.27,1.67-1.94,3.65-3.01,5.41c-0.24-0.91,0.42-1.56,0.74-2.28
		c1.21-2.78,3.07-5.07,5.5-6.91C82.4,22.82,82.52,22.79,82.58,22.95z"/>
	<path class="st1" d="M75.63,34.16c0.29,0.51,0.01,1.02-0.1,1.48c-0.49,2.09,0.12,4.14,0.1,6.2c-0.83-1.04-0.55-2.33-0.65-3.49
		c-0.12-1.4,0.06-2.84,0.48-4.22c0.01-0.02,0.06-0.05,0.08-0.04C75.57,34.1,75.6,34.13,75.63,34.16z"/>
	<path class="st1" d="M96.82,56.66c0.37-0.45,0.96-0.48,1.44-0.57c1.76-0.33,3.26-1.23,4.85-1.93c-0.02,0.54-0.5,0.58-0.84,0.76
		c-0.38,0.21-0.76,0.42-1.17,0.57C99.7,55.97,98.37,56.73,96.82,56.66z"/>
	<path class="st1" d="M103.71,53.74c1.06-0.94,1.66-0.84,2.08,0.45c0.17,0.53,0.51,0.95,0.73,1.44c-0.58,0.17-0.66-0.31-0.73-0.63
		C105.53,53.84,104.83,53.46,103.71,53.74z"/>
	<path class="st1" d="M87.95,55.86c1.22-0.08,2.27,0.55,3.41,0.8c-1.26,0.51-2.24-0.49-3.37-0.65c-0.03,0-0.08-0.03-0.08-0.06
		C87.9,55.93,87.94,55.9,87.95,55.86z"/>
	<path class="st1" d="M186.06,54.6c0.84,0.04,1.4,0.76,2.19,0.93c0.03,0.01,0.08,0.04,0.08,0.06c0,0.03-0.03,0.07-0.06,0.1
		c-1.02,0.26-1.62-0.54-2.37-0.95c0,0,0.02-0.06,0.05-0.08C185.98,54.63,186.02,54.62,186.06,54.6z"/>
	<path class="st1" d="M84.85,54.62c0.86,0.11,1.62,0.44,2.23,1.06c-0.96,0.19-1.44-0.79-2.27-0.91c-0.02,0-0.05-0.06-0.04-0.08
		C84.78,54.66,84.82,54.64,84.85,54.62z"/>
	<path class="st1" d="M93.01,56.81c0.72-0.22,1.45-0.21,2.17-0.02c-0.68,0.42-1.42,0.11-2.13,0.17c-0.03,0-0.08-0.03-0.08-0.04
		C92.97,56.88,92.99,56.85,93.01,56.81z"/>
	<path class="st1" d="M87.81,20.15c-0.49,0.5-1.09,0.74-1.78,0.72c0.41-0.61,1.1-0.65,1.71-0.87c0.02-0.01,0.08,0.02,0.09,0.04
		C87.84,20.07,87.82,20.11,87.81,20.15z"/>
	<path class="st1" d="M158.01,19.66c-0.62,0.03-1.24,0.04-1.8-0.3c0.64-0.45,1.22-0.03,1.81,0.13c0.02,0.01,0.06,0.05,0.05,0.07
		C158.07,19.6,158.03,19.63,158.01,19.66z"/>
	<path class="st1" d="M155.12,19.22c-0.5,0.22-1,0.21-1.5,0C154.13,18.8,154.62,18.8,155.12,19.22z"/>
	<path class="st1" d="M170.69,62.75c0.14-0.59,0.47-1.05,0.93-1.42c0.12,0.69-0.51,1.01-0.77,1.51c-0.01,0.02-0.07,0.02-0.1,0.01
		C170.72,62.83,170.71,62.79,170.69,62.75z"/>
	<path class="st1" d="M150.88,19.6c-0.38,0.38-0.85,0.37-1.33,0.29c0.4-0.33,0.84-0.55,1.37-0.58c0.01,0,0.04,0.06,0.04,0.09
		C150.94,19.47,150.9,19.54,150.88,19.6z"/>
	<path class="st1" d="M173.02,57.65c-0.1-0.6,0.12-1.11,0.51-1.55c0.22,0.58-0.24,1.02-0.34,1.53c-0.01,0.03-0.05,0.07-0.07,0.07
		C173.09,57.7,173.06,57.67,173.02,57.65z"/>
	<path class="st1" d="M159.58,69.6c-0.05-0.57,0.33-0.56,0.72-0.52c0.2,0.12,0.27,0.32,0.11,0.46
		C160.17,69.76,159.87,69.78,159.58,69.6z"/>
	<path class="st1" d="M76.08,43.91c0.3,0.38,0.56,0.78,0.5,1.29c-0.6-0.21-0.48-0.79-0.65-1.22c-0.01-0.02,0.02-0.08,0.04-0.09
		C76,43.88,76.04,43.91,76.08,43.91z"/>
	<path class="st1" d="M171.9,60.62c0.02-0.51,0.26-0.9,0.67-1.2C172.55,59.93,172.52,60.44,171.9,60.62z"/>
	<path class="st1" d="M169.73,63.96c0.03-0.42,0.25-0.69,0.64-0.81C170.51,63.69,170.22,63.91,169.73,63.96z"/>
	<path class="st1" d="M152.56,19.38c-0.27,0.26-0.56,0.32-0.87,0.07C151.95,19.04,152.24,19.05,152.56,19.38z"/>
	<path class="st1" d="M198.82,56.34c0.24-0.3,0.54-0.41,0.91-0.25C199.51,56.49,199.21,56.57,198.82,56.34z"/>
	<path class="st1" d="M173.74,54.28c-0.24-0.21-0.19-0.41,0.02-0.6C174.01,53.89,173.98,54.09,173.74,54.28z"/>
	<path class="st1" d="M208.72,48.81c-0.28-0.17-0.15-0.41-0.08-0.61c0.04-0.11,0.18-0.09,0.26,0.03
		C209.02,48.48,209.14,48.73,208.72,48.81z"/>
	<path class="st1" d="M81.49,52.21c0.31-0.06,0.37,0.14,0.38,0.38C81.52,52.68,81.38,52.57,81.49,52.21z"/>
	<path class="st1" d="M169.05,64.7c0.02-0.23,0.13-0.36,0.38-0.36c0.18,0.09,0.17,0.23,0.05,0.34
		C169.35,64.81,169.2,64.96,169.05,64.7z"/>
	<path class="st1" d="M191.2,56.57c0.16-0.2,0.3-0.23,0.4,0.06c0.03,0.31-0.19,0.14-0.3,0.14C191.22,56.77,191.03,56.73,191.2,56.57
		z"/>
	<path class="st1" d="M197.68,56.63c0.07-0.3,0.22-0.28,0.4-0.09c0.08,0.13-0.01,0.2-0.11,0.22
		C197.86,56.78,197.67,56.88,197.68,56.63z"/>
	<path class="st1" d="M76.98,46.22c0.2,0.02,0.23,0.09,0.07,0.22c-0.05,0-0.15,0.02-0.16,0C76.85,46.35,76.8,46.23,76.98,46.22z"/>
	<path class="st1" d="M84.11,54.11c0.17-0.11,0.23-0.07,0.19,0.13c-0.05,0.19-0.16,0.11-0.24,0.04
		C84.04,54.26,84.09,54.17,84.11,54.11z"/>
	<path class="st1" d="M75.86,33.13c0.16,0.09,0.16,0.15-0.02,0.19c-0.05-0.02-0.1-0.04-0.15-0.06C75.71,33.18,75.67,33,75.86,33.13z
		"/>
	<path class="st1" d="M83.81,22.01c0,0.19-0.07,0.23-0.21,0.09c-0.01-0.06-0.04-0.15-0.02-0.16C83.68,21.89,83.79,21.82,83.81,22.01
		z"/>
	<path class="st1" d="M89.04,19.89c-0.04,0.19-0.11,0.2-0.2,0.03c-0.12-0.19,0.06-0.14,0.13-0.18C89,19.79,89.02,19.84,89.04,19.89z
		"/>
	<path class="st1" d="M190.25,56.27c0.13-0.17,0.19-0.14,0.19,0.06c0.09,0.19-0.05,0.2-0.16,0.17
		C190.18,56.47,190.07,56.38,190.25,56.27z"/>
	<path class="st1" d="M192.4,19.37c0.1,0.18-0.06,0.16-0.14,0.16c-0.09,0-0.23-0.02-0.11-0.17c0.03-0.05,0.05-0.1,0.07-0.14
		C192.28,19.26,192.34,19.32,192.4,19.37z"/>
	<path class="st1" d="M75.83,42.68c0.18,0.04,0.19,0.1,0.03,0.19c-0.18,0.13-0.15-0.05-0.18-0.13
		C75.72,42.72,75.78,42.7,75.83,42.68z"/>
	<polygon class="st1" points="184.84,54.01 184.81,54.02 184.82,53.99 	"/>
	<path class="st1" d="M155.55,27.71c5.26-0.29,9.45,4.46,9.32,9.38c-0.15,5.53-3.92,9.46-9.43,9.47c-5.48,0-9.35-4.06-9.38-9.52
		C146.03,31.94,149.94,27.48,155.55,27.71z M164.41,37.03c-0.25-5.38-3.77-8.97-9-8.96c-4.94,0.01-8.8,3.36-8.84,9.08
		c-0.04,5.2,3.76,8.98,8.95,8.94C161.04,46.04,164.19,42.15,164.41,37.03z"/>
	<path class="st1" d="M84.88,38.1c-0.12-5.49,4.59-10.08,9.77-10c6.01,0.08,9.83,4.02,9.93,9.84c0.1,5.73-4.27,10.02-9.96,9.98
		C89.36,47.87,84.77,44.07,84.88,38.1z M103.99,38.01c0.23-5.36-3.72-9.39-9.28-9.35c-5.71,0.04-9.48,4.37-9.39,9.33
		c0.11,5.84,3.53,9.3,9.37,9.43C99.85,47.54,104.18,43.76,103.99,38.01z"/>
</g>
</svg>
