<?xml version="1.0" encoding="utf-8"?>
<!-- Generator: Adobe Illustrator 24.2.1, SVG Export Plug-In . SVG Version: 6.00 Build 0)  -->
<svg version="1.1" id="Layer_1" xmlns="http://www.w3.org/2000/svg" xmlns:xlink="http://www.w3.org/1999/xlink" x="0px" y="0px"
	 viewBox="0 0 202.1 72.4" style="enable-background:new 0 0 202.1 72.4;" xml:space="preserve">
<style type="text/css">
	.st0{fill:#1075F1;}
</style>
<g>
	<path class="st0" d="M100.9,25.7c-8.8-9-22.6-10.6-33.2-4V0L54.8,8v37c0,14.9,10.5,21.7,11.3,22.2c10.7,7.9,25.6,6.7,34.8-2.9
		c5.2-5.1,8-12.1,7.9-19.3C108.9,37.8,106,30.8,100.9,25.7z M95.9,45c0.1,3.8-1.4,7.6-4.2,10.3c-5.2,5.5-14,5.7-19.5,0.5
		c-0.2-0.2-0.3-0.3-0.5-0.5c-2.7-2.7-4.2-6.5-4.1-10.3c-0.1-3.9,1.4-7.6,4.1-10.3c5.2-5.5,14-5.8,19.5-0.5c0.2,0.2,0.3,0.3,0.5,0.5
		C94.5,37.4,96,41.1,95.9,45L95.9,45z"/>
	<polygon class="st0" points="134.4,44.8 160.3,18 142.2,18 126.3,34.9 126.3,0.1 113.6,7.7 113.6,71.8 126.3,71.8 126.3,54.7 
		143.3,71.8 162,71.8 	"/>
	<path class="st0" d="M191,53.5c-4.4,6.3-13.1,7.8-19.4,3.4c-0.7-0.5-1.4-1.1-2-1.7c-2.7-2.7-4.2-6.5-4.1-10.3
		c-0.1-3.9,1.4-7.6,4.1-10.3c5.4-5.5,14.2-5.6,19.7-0.3c0.6,0.6,1.2,1.3,1.7,2l0.6,0.8l10.5-7.5l-0.6-0.8
		c-5.4-7.5-12.8-11.4-21.9-11.4c-7.2-0.1-14.1,2.8-19.1,8c-5.2,5.1-8,12.1-7.9,19.4c-0.1,7.3,2.7,14.2,7.9,19.4
		c5,5.2,11.9,8.2,19.1,8.1c9.1,0,16.5-3.8,21.9-11.4l0.6-0.8l-10.5-7.5L191,53.5z"/>
	<path class="st0" d="M42.5,24.9c-4.4-5.1-10.9-8-17.6-7.9c-4.3,0-8.6,1.2-12.3,3.5v-4.2L0,23.5v18.9v0.4c0,0.3,0,0.6,0,0.9v27.9
		h12.6V43.8c-0.1-3.7,1.2-7.3,3.7-10.1c3.8-4.8,10.8-5.5,15.6-1.7c0.6,0.5,1.2,1.1,1.7,1.7c2.4,2.8,3.8,6.4,3.7,10.1v27.9h12.5V43.8
		C49.9,36.8,47.3,30,42.5,24.9z"/>
</g>
</svg>
