<?xml version="1.0" encoding="utf-8"?>
<!-- Generator: Adobe Illustrator 23.0.1, SVG Export Plug-In . SVG Version: 6.00 Build 0)  -->
<svg version="1.1" id="Layer_1" xmlns="http://www.w3.org/2000/svg" xmlns:xlink="http://www.w3.org/1999/xlink" x="0px" y="0px"
	 viewBox="0 0 202.08 72.45" style="enable-background:new 0 0 202.08 72.45;" xml:space="preserve">
<style type="text/css">
	.st0{fill:#005295;}
</style>
<title>Website images_1.01% text</title>
<g>
	<path class="st0" d="M100.89,25.67c-8.76-8.99-22.6-10.65-33.25-4V0L54.75,8v37c0,14.92,10.47,21.7,11.35,22.25
		c10.68,7.91,25.57,6.67,34.79-2.9c5.16-5.1,8.01-12.09,7.9-19.35C108.89,37.75,106.04,30.77,100.89,25.67z M95.89,45.04
		c0.08,3.85-1.44,7.57-4.19,10.27c-5.25,5.51-13.96,5.72-19.47,0.47c-0.16-0.15-0.32-0.31-0.47-0.47
		c-2.73-2.73-4.22-6.45-4.12-10.31c-0.09-3.86,1.41-7.59,4.14-10.32c5.24-5.52,13.97-5.75,19.5-0.5c0.17,0.16,0.34,0.33,0.5,0.5
		C94.51,37.41,96,41.14,95.91,45L95.89,45.04z"/>
	<polygon class="st0" points="134.36,44.83 160.31,17.95 142.24,17.95 126.29,34.93 126.29,0.12 113.64,7.67 113.64,71.75 
		126.29,71.75 126.29,54.67 143.29,71.75 161.97,71.75 	"/>
	<path class="st0" d="M191.02,53.45c-4.41,6.3-13.1,7.83-19.4,3.42c-0.72-0.5-1.39-1.07-2-1.7c-2.73-2.73-4.23-6.46-4.15-10.32
		c-0.08-3.86,1.41-7.59,4.14-10.32c5.37-5.52,14.19-5.64,19.71-0.27c0.63,0.61,1.2,1.28,1.7,1.99l0.57,0.8l10.49-7.45l-0.57-0.8
		c-5.41-7.54-12.79-11.37-21.92-11.37c-7.21-0.09-14.12,2.83-19.09,8.05c-5.17,5.11-8.02,12.11-7.91,19.37
		c-0.11,7.26,2.74,14.25,7.9,19.36c4.97,5.23,11.89,8.15,19.1,8.06c9.13,0,16.51-3.83,21.92-11.37l0.57-0.8l-10.49-7.45
		L191.02,53.45z"/>
	<path class="st0" d="M42.49,24.85c-4.43-5.09-10.86-7.99-17.61-7.94c-4.34-0.04-8.61,1.16-12.29,3.46v-4.19L0,23.55v18.93v0.44
		c0,0.29,0,0.59,0,0.9v27.93h12.6V43.82c-0.07-3.72,1.25-7.33,3.7-10.13c3.83-4.76,10.79-5.52,15.55-1.69
		c0.62,0.5,1.19,1.07,1.69,1.69c2.44,2.8,3.75,6.41,3.67,10.13v27.93h12.55V43.82C49.9,36.79,47.29,29.99,42.49,24.85z"/>
</g>
</svg>
