<svg id="Layer_1" data-name="Layer 1" xmlns="http://www.w3.org/2000/svg" viewBox="0 0 257.71 95.64"><defs><style>.cls-1{fill:#444;}.cls-2{fill:#fe502a;}.cls-3{fill:#f9e15b;}</style></defs><path class="cls-1" d="M156.95,11.7H257.71a0,0,0,0,1,0,0V95.64a0,0,0,0,1,0,0H147a0,0,0,0,1,0,0V21.69A10,10,0,0,1,156.95,11.7Z"/><path class="cls-2" d="M167,32.47h80.27L247,31.19c-1-5.79-6.58-10.09-13.2-10.09H150.05c-8.14,0-14.38,6.39-13.21,13.5l10.11,61h14.56L153.35,46.4C151.67,34.63,154.74,32.47,167,32.47Z"/><path class="cls-2" d="M247.25,32.47H167c-12.24,0-15.31,2.16-13.63,13.93l8.16,49.24h96.2Z"/><path class="cls-1" d="M223.6,1.06h27.9a6.21,6.21,0,0,1,6.21,6.21V11.7a0,0,0,0,1,0,0H217.4a0,0,0,0,1,0,0V7.27A6.21,6.21,0,0,1,223.6,1.06Z"/><path class="cls-1" d="M220.18,35.75h-9.56V25.84a16.28,16.28,0,1,0-32.55,0v9.91H168.5V25.84a25.84,25.84,0,1,1,51.68,0Z"/><rect class="cls-3" x="163.69" y="33.7" width="60.51" height="53.71" rx="6.14"/><path class="cls-1" d="M203,55a8.61,8.61,0,1,0-12.49,7.68v8.12a3.89,3.89,0,1,0,7.77,0V62.7A8.6,8.6,0,0,0,203,55Z"/><polygon class="cls-3" points="123.41 31.95 0 31.95 129.23 52.27 123.41 31.95"/><polygon class="cls-3" points="131.51 65.15 24.1 65.15 136.71 84.27 131.51 65.15"/></svg>