<svg id="Layer_1" data-name="Layer 1" xmlns="http://www.w3.org/2000/svg" viewBox="0 0 99.24 129.72"><defs><style>.cls-1{fill:#f3e2b7;}.cls-2{fill:#87543c;}.cls-3{fill:#5d3724;}.cls-4{fill:#ecb51e;}.cls-5{fill:#f1f1f2;}.cls-6{fill:#1fbbdb;}.cls-7{fill:#0caec4;}.cls-8{fill:#fff;}.cls-9{fill:#005295;}</style></defs><rect class="cls-1" x="3.26" y="11.08" width="92.72" height="70.41"/><polygon class="cls-2" points="97.28 0 1.96 0 0 8.47 99.23 8.47 97.28 0"/><rect class="cls-3" y="8.47" width="99.24" height="2.61"/><rect class="cls-4" x="1.96" y="44.98" width="95.32" height="2.61"/><polygon class="cls-2" points="97.28 81.48 1.96 81.48 0 89.96 99.23 89.96 97.28 81.48"/><rect class="cls-3" y="89.96" width="99.24" height="2.61"/><rect class="cls-4" x="3.26" y="92.56" width="92.72" height="37.16"/><rect class="cls-5" x="9.78" y="94.52" width="79.68" height="35.2"/><rect class="cls-6" x="37.64" y="96.47" width="11" height="4.96"/><rect class="cls-6" x="24.69" y="103.39" width="11" height="24.37"/><rect class="cls-6" x="50.6" y="96.47" width="11" height="4.96"/><rect class="cls-6" x="76.5" y="96.47" width="11" height="4.96"/><rect class="cls-7" x="37.64" y="103.39" width="11" height="24.37"/><rect class="cls-6" x="24.69" y="96.47" width="11" height="4.96"/><rect class="cls-6" x="11.73" y="103.39" width="11" height="24.37"/><rect class="cls-6" x="11.73" y="96.47" width="11" height="4.96"/><rect class="cls-7" x="50.6" y="103.39" width="11" height="24.37"/><rect class="cls-6" x="76.5" y="103.39" width="11" height="24.37"/><rect class="cls-6" x="63.55" y="103.39" width="11" height="24.37"/><rect class="cls-6" x="63.55" y="96.47" width="11" height="4.96"/><rect class="cls-8" x="13.33" y="53.95" width="9.61" height="21.83"/><rect class="cls-5" x="12.02" y="75.77" width="12.22" height="1.23"/><rect class="cls-6" x="13.98" y="54.6" width="8.31" height="20.53"/><rect class="cls-8" x="34.32" y="53.95" width="9.61" height="21.83"/><rect class="cls-5" x="33.01" y="75.77" width="12.22" height="1.23"/><rect class="cls-6" x="34.97" y="54.6" width="8.31" height="20.53"/><rect class="cls-8" x="55.3" y="53.95" width="9.61" height="21.83"/><rect class="cls-5" x="54" y="75.77" width="12.22" height="1.23"/><rect class="cls-6" x="55.96" y="54.6" width="8.31" height="20.53"/><rect class="cls-8" x="76.29" y="53.95" width="9.61" height="21.83"/><rect class="cls-5" x="74.99" y="75.77" width="12.22" height="1.23"/><rect class="cls-6" x="76.94" y="54.6" width="8.31" height="20.53"/><rect class="cls-5" x="51.55" y="114.73" width="0.96" height="5.4"/><rect class="cls-5" x="46.73" y="114.73" width="0.96" height="5.4"/><path class="cls-9" d="M54.94,35.36a3.87,3.87,0,0,0,2.84-1.2,4.17,4.17,0,0,0,0-5.79,4,4,0,0,0-5.67,0l-.08.08V24.54l-1.13.65V31.5S51.08,35.36,54.94,35.36Zm-2.06-6.2a2.83,2.83,0,0,1,2.06-.87,2.78,2.78,0,0,1,2,.87,3,3,0,0,1,.85,2.11A2.9,2.9,0,0,1,57,33.36a2.75,2.75,0,0,1-2,.87,2.79,2.79,0,0,1-2.06-.87A2.86,2.86,0,0,1,52,31.27,2.94,2.94,0,0,1,52.88,29.16Z"/><path class="cls-9" d="M67.68,35.28V30.6a3.74,3.74,0,0,0-4-3.43,3.88,3.88,0,0,0-2.86,1.2,4.17,4.17,0,0,0,0,5.79,4,4,0,0,0,5.67,0l.08-.08v1.17Zm-2-1.92a2.76,2.76,0,0,1-2,.88,2.8,2.8,0,0,1-2.06-.88,2.9,2.9,0,0,1-.85-2.09,2.94,2.94,0,0,1,.85-2.1,2.8,2.8,0,0,1,2.06-.88,2.76,2.76,0,0,1,2,.88,3,3,0,0,1,0,4.19Z"/><path class="cls-9" d="M33.84,28.41a3.93,3.93,0,0,0-4.93-.59V24.6L27,25.8v5.48a3.88,3.88,0,0,0,1.68,3.29,3.93,3.93,0,0,0,5.16-.43,4.09,4.09,0,0,0,0-5.73Zm-.74,2.87a2.07,2.07,0,0,1-.62,1.52,1.93,1.93,0,0,1-1.47.63,2,2,0,0,1-1.49-.63,2.08,2.08,0,0,1-.61-1.52,2.12,2.12,0,0,1,.61-1.53A2,2,0,0,1,31,29.12a1.93,1.93,0,0,1,1.47.63A2.09,2.09,0,0,1,33.1,31.28Z"/><polygon class="cls-9" points="38.8 31.25 42.65 27.26 39.97 27.26 37.6 29.78 37.6 24.62 35.73 25.74 35.73 35.24 37.6 35.24 37.6 32.71 40.12 35.24 42.89 35.24 38.8 31.25"/><path class="cls-9" d="M47.2,32.53a2,2,0,0,1-1.7.88A2,2,0,0,1,44,32.78a2.22,2.22,0,0,1,0-3.06,2,2,0,0,1,1.48-.62,2,2,0,0,1,1.7.88l.08.11L48.84,29l-.09-.12a3.8,3.8,0,0,0-3.25-1.68,3.85,3.85,0,0,0-2.83,1.19,4.11,4.11,0,0,0,0,5.74,3.86,3.86,0,0,0,2.83,1.2,3.81,3.81,0,0,0,3.25-1.69l.09-.12-1.56-1.1Z"/><polygon class="cls-9" points="78.62 31.15 82.96 27.15 81.64 27.15 77.95 30.42 77.95 24.65 76.94 25.21 76.94 35.3 77.92 35.3 77.92 31.89 81.67 35.3 83.02 35.3 78.62 31.15"/><path class="cls-9" d="M25.18,28.29a3.43,3.43,0,0,0-2.61-1.18,3.35,3.35,0,0,0-1.82.51V27l-1.87,1.09V31c0,.05,0,.09,0,.14v4.14h1.87V31.1a2.19,2.19,0,0,1,.54-1.5,1.63,1.63,0,0,1,2.56,0,2.19,2.19,0,0,1,.54,1.5v4.14h1.87V31.1A4,4,0,0,0,25.18,28.29Z"/><path class="cls-9" d="M68.69,35.28H69.8V31.19a3,3,0,0,1,.75-2.06,2.25,2.25,0,0,1,3.54,0,3,3,0,0,1,.76,2.06v4.09H76V31.19a4.08,4.08,0,0,0-1.07-2.84,3.45,3.45,0,0,0-2.51-1.18h-.09a3.43,3.43,0,0,0-2.51,1.18s0,0,0,0v-.77l-1,.62"/><path class="cls-9" d="M83.92,28.16a.51.51,0,1,1,.51-.51A.51.51,0,0,1,83.92,28.16Zm0-1a.47.47,0,1,0,.46.47A.47.47,0,0,0,83.92,27.18Z"/><path class="cls-9" d="M83.74,27.41h.31a.11.11,0,0,1,.07.12.14.14,0,0,1,0,.07.1.1,0,0,1,0,0l0,0a.14.14,0,0,1,0,.07v.06s0,0,0,0,0,0,0,0h-.09v-.12a.08.08,0,0,0,0-.07H83.8v.21h-.06Zm.21.22.07,0s0,0,0-.07a.07.07,0,0,0,0-.07H83.8v.17Z"/></svg>