<svg id="Layer_1" data-name="Layer 1" xmlns="http://www.w3.org/2000/svg" viewBox="0 0 131.49 132.13"><defs><style>.cls-1{fill:#1fbbdb;}.cls-2{fill:#fff;}.cls-3{fill:none;stroke:#fff;stroke-miterlimit:10;stroke-width:3.2px;}</style></defs><path class="cls-1" d="M126.93,46.27c-5.66-5.56-9.75-11.82-11.08-19.81s-6.5-11.88-14.24-12.8A29.49,29.49,0,0,1,84,5.21C78-.69,71.3-1.6,64,2.58A29.87,29.87,0,0,1,44.7,6.21a45.2,45.2,0,0,0-6-.15c-5.29,1-8.16,2.85-10.9,8.27C24.17,21.46,19.25,27,12.13,30.78c-6.4,3.41-8.82,9.09-7.49,16.14A32.23,32.23,0,0,1,2,67.88C-1.61,75.11-.26,81.65,5.59,87.09a32,32,0,0,1,9.83,18.27c1.32,7.17,5.5,11.75,12.94,12.68a34.27,34.27,0,0,1,20.14,9.61c5.06,4.86,11,5.89,17.25,2.49a35.89,35.89,0,0,1,22.7-4.22c6.2.84,11.56-1.24,14.41-7.07a40.79,40.79,0,0,1,17.51-18.46c5.09-2.82,7.36-7.62,6.41-13.53-1.38-8.49-.69-16.57,3.18-24.46C132.83,56.56,131.59,50.85,126.93,46.27Z"/><path class="cls-2" d="M36.71,75.74a7.29,7.29,0,0,1-3.27,3.62l2.06,1.88-2,1.54-2.72-2.47h0a8.26,8.26,0,0,1-4.45-.3,7.48,7.48,0,0,1-3.33-2.43,9.22,9.22,0,0,1-1.51-8.18A7.51,7.51,0,0,1,23.66,66a8.27,8.27,0,0,1,4.05-1.87,8.27,8.27,0,0,1,4.45.3,7.48,7.48,0,0,1,3.33,2.43,9,9,0,0,1,1.73,3.91A8.53,8.53,0,0,1,36.71,75.74Zm-3.69,1a5,5,0,0,0,1.46-2.45,6.88,6.88,0,0,0,.06-3.07,6.77,6.77,0,0,0-1.15-2.84,5.16,5.16,0,0,0-2.24-1.77,5.43,5.43,0,0,0-3-.24,5.23,5.23,0,0,0-2.73,1.31,5,5,0,0,0-1.46,2.45,6.57,6.57,0,0,0-.06,3.06A6.71,6.71,0,0,0,25,76a5.05,5.05,0,0,0,2.24,1.78A5.82,5.82,0,0,0,33,76.73Z"/><path class="cls-2" d="M42.1,76.74a5.39,5.39,0,0,1-2.3-3.8L37.89,62.59l2.54-.47,1.89,10.2a3.49,3.49,0,0,0,1.32,2.35,3.24,3.24,0,0,0,2.51.44,3.18,3.18,0,0,0,2.18-1.31,3.48,3.48,0,0,0,.4-2.67l-1.88-10.2,2.54-.47L51.3,70.82a5.36,5.36,0,0,1-.79,4.36,6.1,6.1,0,0,1-3.94,2.21A6.11,6.11,0,0,1,42.1,76.74Z"/><path class="cls-2" d="M62.41,72l-5.94,1.1-.24,2.08-2.76.51,2.36-16.45,2.23-.41,8.08,14.52-2.76.51Zm-1.1-2.15-3.72-7.25-.88,8.1Z"/><path class="cls-2" d="M65.27,57.53l2.54-.47,2.42,13.09L76.45,69l.44,2.39L68.13,73Z"/><path class="cls-2" d="M76.57,55.44,79.12,55,82,70.45l-2.55.47Z"/><path class="cls-2" d="M85.82,56.2,81.33,57l-.44-2.39,11.54-2.13.44,2.39-4.51.83,2.42,13.1-2.54.47Z"/><path class="cls-2" d="M106.5,49.91l-4.81,16.9-2.79.52,1.93-6.79-7.51-8.19,2.94-.55,5.39,5.89,2.06-7.27Z"/><circle class="cls-3" cx="65.79" cy="66.17" r="52.82"/></svg>