<svg id="Layer_1" data-name="Layer 1" xmlns="http://www.w3.org/2000/svg" viewBox="0 0 1125.21 108.35"><defs><style>.cls-1{fill:#125591;}</style></defs><path class="cls-1" d="M553.2,73.67a57.62,57.62,0,0,1,.59-8.6,29.06,29.06,0,0,1,2-7.11,22.14,22.14,0,0,1,3.92-6.08,34,34,0,0,1,6.53-5.49q2.07-1.47,4.29-3.11a26,26,0,0,0,4.08-3.7,19.33,19.33,0,0,0,3-4.6,13.08,13.08,0,0,0,1.18-5.63c0-3.86-1.18-6.69-3.55-8.52a14.14,14.14,0,0,0-8.9-2.75,12.78,12.78,0,0,0-9,3.49q-3.78,3.48-3.78,11.63H529.93A36,36,0,0,1,532.3,20a28.8,28.8,0,0,1,7-10.52,33,33,0,0,1,11.49-7A44.67,44.67,0,0,1,566.39,0,49.86,49.86,0,0,1,580,1.85a34.19,34.19,0,0,1,11.41,5.56,28.34,28.34,0,0,1,7.86,9.19,26.5,26.5,0,0,1,3,12.75,26.41,26.41,0,0,1-1.7,9.86,28.63,28.63,0,0,1-4.23,7.33,32.67,32.67,0,0,1-5.26,5.26c-1.83,1.44-3.38,2.7-4.67,3.78a53.92,53.92,0,0,0-4.59,4,17.71,17.71,0,0,0-2.89,3.7,13.66,13.66,0,0,0-1.56,4.37,35,35,0,0,0-.44,6Zm-3.56,19.41a14.61,14.61,0,0,1,1.19-5.85,15.49,15.49,0,0,1,3.26-4.82A15.13,15.13,0,0,1,559,79.15a16.13,16.13,0,0,1,12.16,0,15.16,15.16,0,0,1,8.15,8.08,15,15,0,0,1,0,11.71,16.29,16.29,0,0,1-3.26,4.89,14.93,14.93,0,0,1-4.89,3.34,16.25,16.25,0,0,1-12.16,0,14.72,14.72,0,0,1-4.89-3.34,16.29,16.29,0,0,1-3.26-4.89A14.62,14.62,0,0,1,549.64,93.08Z"/><rect class="cls-1" y="43.01" width="485.58" height="24.81"/><rect class="cls-1" x="639.63" y="43.01" width="485.58" height="24.81"/></svg>