<svg xmlns="http://www.w3.org/2000/svg" xmlns:xlink="http://www.w3.org/1999/xlink" viewBox="0 0 6.95 11.92"><defs><style>.cls-1{fill:none;}.cls-2{clip-path:url(#clip-path);}.cls-3{fill:#d13035;}</style><clipPath id="clip-path" transform="translate(-2.47 2.42)"><rect class="cls-1" width="11.9" height="7"/></clipPath></defs><g id="Layer_2" data-name="Layer 2"><g id="Layer_1-2" data-name="Layer 1"><g id="Group_18" data-name="Group 18"><g class="cls-2"><g id="Group_11" data-name="Group 11"><path id="Path_9" data-name="Path 9" class="cls-3" d="M3.3,9.5a.86.86,0,0,1-.8-.8,1.42,1.42,0,0,1,.2-.6L7.5,3.5,2.7-1.1a.78.78,0,0,1,0-1.1h0a.78.78,0,0,1,1.1,0L9.2,3a.78.78,0,0,1,0,1.1h0L3.8,9.3A.76.76,0,0,1,3.3,9.5Z" transform="translate(-2.47 2.42)"/></g></g></g></g></g></svg>