<svg version="1.2" xmlns="http://www.w3.org/2000/svg" viewBox="0 0 19 19" width="19" height="19">
	<title>Instagram-svg</title>
	<style>
		.s0 { fill: #d13035 } 
	</style>
	<path id="Path_8" fill-rule="evenodd" class="s0" d="m15.4 0.2c1.7 0 3.1 1.4 3.1 3.1v12.2c0 1.7-1.4 3.1-3.1 3.1h-12.2c-1.7 0-3.1-1.4-3.1-3.1v-12.2c0-1.7 1.4-3.1 3.1-3.1zm1.5 3.1c0-0.8-0.7-1.5-1.5-1.5h-12.2c-0.8 0-1.5 0.7-1.5 1.5v12.2c0 0.8 0.7 1.5 1.5 1.5h12.2c0.8 0 1.5-0.7 1.5-1.5z"/>
	<path id="Path_9" fill-rule="evenodd" class="s0" d="m13.9 9.4c0 2.5-2.1 4.6-4.6 4.6-2.5 0-4.6-2.1-4.6-4.6 0-2.5 2.1-4.6 4.6-4.6 2.5 0 4.6 2.1 4.6 4.6zm-1.5-0.1c0-1.7-1.4-3.1-3.1-3.1-1.7 0-3.1 1.4-3.1 3.1 0 1.7 1.4 3.1 3.1 3.1 1.7 0 3.1-1.3 3.1-3.1z"/>
	<path id="Ellipse_1" class="s0" d="m14.4 5.3c-0.6 0-1-0.4-1-1 0-0.6 0.4-1 1-1 0.6 0 1 0.4 1 1 0 0.6-0.4 1-1 1z"/>
</svg>