<svg version="1.2" xmlns="http://www.w3.org/2000/svg" viewBox="0 0 17 17" width="17" height="17">
	<title>LinkedIn-svg</title>
	<style>
		.s0 { fill: #d13035 } 
	</style>
	<g id="Group_42">
		<path id="Rectangle_49" class="s0" d="m0.7 5.7h3.3v10.5h-3.3z"/>
		<path id="Path_125" class="s0" d="m16.3 10.5v5.8h-3.3v-5.1c0-1.2 0-2.8-1.7-2.8-1.7 0-2 1.3-2 2.7v5.2h-3.3v-10.5h3.2v1.4c0.6-1.1 1.8-1.7 3.1-1.7 3.3 0 3.9 2.2 4 5z"/>
		<path id="Path_126" class="s0" d="m4.2 2.4c0 1.1-0.9 1.9-1.9 1.9-1.1 0-1.9-0.8-1.9-1.9 0-1.1 0.9-1.9 1.9-1.9 1.1 0 1.9 0.9 1.9 1.9z"/>
	</g>
</svg>