<svg id="Layer_1" data-name="Layer 1" xmlns="http://www.w3.org/2000/svg" viewBox="0 0 99.62 99.62"><defs><style>.cls-1{fill:#1fbbdb;}.cls-2{fill:#125591;}.cls-3{fill:#fff;}</style></defs><circle class="cls-1" cx="49.81" cy="49.81" r="49.81"/><path class="cls-2" d="M52.65,61.45c3.61-4.33,8.35-5.76,13.57-6.52,0,.46-.06.83-.13,1.18C64.9,62.24,61,65.7,55.17,67.33c-.4.12-.8.2-1.2.28-1.32.29-1.32.29-1.32,1.67v1.25h1c3.22,0,6.43,0,9.64,0a1.92,1.92,0,0,1,2,1.67,2,2,0,0,1-1.44,2.15,2.15,2.15,0,0,1-.62.07h-27a2,2,0,1,1,0-3.9c3.15,0,6.31,0,9.46,0h1c0-.94,0-1.79,0-2.63,0-.21-.36-.49-.61-.56a17.72,17.72,0,0,1-5.56-2.62A13.5,13.5,0,0,1,35.14,55,22.54,22.54,0,0,1,46.7,59.3V55.83c-1.21-.32-2.48-.58-3.7-1a21.41,21.41,0,1,1,10.69.7c-.85.16-1.1.45-1.06,1.29C52.7,58.3,52.65,59.77,52.65,61.45Z"/><path class="cls-2" d="M63.45,78.37c-.32,3.17-.63,6.27-1,9.37A1.36,1.36,0,0,1,61.12,89c-.2,0-.41,0-.62,0H39c-1.49,0-1.91-.35-2.06-1.81-.31-2.92-.59-5.85-.88-8.84Z"/><path class="cls-3" d="M51.41,23.56A7.36,7.36,0,0,1,54,24.3a6.37,6.37,0,0,1,1.82,1.41,5.85,5.85,0,0,1,1.07,1.88,6.9,6.9,0,0,1,.35,2.17H52.65A3.2,3.2,0,0,0,52,27.67a2.27,2.27,0,0,0-1.82-.76,2.8,2.8,0,0,0-1.69.51,1.76,1.76,0,0,0-.71,1.52,1.86,1.86,0,0,0,.78,1.57,8.06,8.06,0,0,0,2,1c.81.28,1.63.58,2.45.91a10.14,10.14,0,0,1,2.23,1.22,6,6,0,0,1,1.62,1.74,4.62,4.62,0,0,1,.64,2.5,6.4,6.4,0,0,1-.45,2.45,5.4,5.4,0,0,1-1.26,1.89,6.06,6.06,0,0,1-1.93,1.27,8.48,8.48,0,0,1-2.51.62v3H48.9v-3a8.34,8.34,0,0,1-2.49-.7,6.28,6.28,0,0,1-2-1.43,6.39,6.39,0,0,1-1.29-2.1,7.59,7.59,0,0,1-.46-2.73h4.57a3.48,3.48,0,0,0,.87,2.51,3,3,0,0,0,2.28.9A2.72,2.72,0,0,0,52.27,40,2.08,2.08,0,0,0,53,38.28a2,2,0,0,0-.24-1,2.43,2.43,0,0,0-.65-.71,4.47,4.47,0,0,0-1-.55c-.38-.16-.78-.33-1.22-.5-.9-.34-1.76-.67-2.57-1a8.75,8.75,0,0,1-2.13-1.23,5,5,0,0,1-2-4.24,5,5,0,0,1,.45-2.15,5.37,5.37,0,0,1,1.22-1.65,5.89,5.89,0,0,1,1.79-1.11,8.22,8.22,0,0,1,2.18-.56v-3h2.51Z"/></svg>