<svg xmlns="http://www.w3.org/2000/svg" viewBox="0 0 96.62 96.62"><defs><style>.cls-1{fill:#1fbbdb;}.cls-2{fill:#125591;}</style></defs><title>Replacement Icon</title><g id="Account"><circle class="cls-1" cx="48.31" cy="48.31" r="48.31"/><path class="cls-2" d="M43.75,46.14a.86.86,0,1,1-.5-1.65L85.16,31.83l-1.62-1a5.27,5.27,0,0,0-3.22-.48L40.43,42.35A18.68,18.68,0,1,0,43.6,58.83l8-2.42,2.15,1.16,1.66-.5.8-2,.2-.06h0l1.76-5a.69.69,0,0,1,.47-.87l2.43-.74a.7.7,0,0,1,.87.47l2.94,2.1,2.52-.76,1.22-3.47a.59.59,0,0,1,.4-.74l2.06-.62a.58.58,0,0,1,.74.39l3.05,2.18,2.51-.75,1.35-3.85a.7.7,0,0,1,.47-.87l2.43-.74a.71.71,0,0,1,.88.47l2.94,2.11c1-.56,1.81-1.16,1.7-1.52l2.22-4.61L88,33.7l-1-.63ZM19.36,60.47a4.63,4.63,0,1,1,3.1-5.77A4.63,4.63,0,0,1,19.36,60.47Z"/></g></svg>