<svg xmlns="http://www.w3.org/2000/svg" viewBox="0 0 96.62 96.62"><defs><style>.cls-1{fill:#1fbbdb;}.cls-2{fill:#125591;}.cls-3{fill:#fff;}</style></defs><title>Replacement Icon</title><g id="Security"><circle class="cls-1" cx="48.31" cy="48.31" r="48.31"/><path class="cls-2" d="M48.11,15.13v0h0v0L16.59,29.54a1.51,1.51,0,0,0-.88,1.56c.73,6.44,5.69,39.4,31.79,54.56a1.54,1.54,0,0,0,1.54,0c26-15.29,30.8-48.27,31.5-54.72a1.53,1.53,0,0,0-.89-1.56Z"/><path class="cls-3" d="M49.08,82.15a1.52,1.52,0,0,1-1.64,0h0A53.57,53.57,0,0,1,33.07,68.65,72.27,72.27,0,0,1,23.63,51a90,90,0,0,1-4.69-18h0a1.53,1.53,0,0,1,.88-1.62L48.07,18.38h0L76.43,31.17a1.52,1.52,0,0,1,.88,1.61h0a89.84,89.84,0,0,1-4.58,18,72.44,72.44,0,0,1-9.35,17.75,53.46,53.46,0,0,1-14.3,13.58Zm-25.85-49a1.51,1.51,0,0,0-.87,1.66A87.64,87.64,0,0,0,26.5,49.88a69.11,69.11,0,0,0,9,16.95A50.9,50.9,0,0,0,47.38,78.45a1.54,1.54,0,0,0,1.74,0A51,51,0,0,0,60.9,66.76a69.1,69.1,0,0,0,8.95-17,87.45,87.45,0,0,0,4.06-15.11A1.51,1.51,0,0,0,73,33L48.12,21.75a0,0,0,0,0,0,0Z"/></g></svg>