<svg xmlns="http://www.w3.org/2000/svg" xmlns:xlink="http://www.w3.org/1999/xlink" viewBox="0 0 108.5 65.6"><defs><style>.cls-1{fill:none;}.cls-2{clip-path:url(#clip-path);}.cls-3{fill:#102245;}</style><clipPath id="clip-path" transform="translate(0)"><rect class="cls-1" width="108.4" height="65.5"/></clipPath></defs><g id="Layer_2" data-name="Layer 2"><g id="Layer_1-2" data-name="Layer 1"><g class="cls-2"><g id="Group_126" data-name="Group 126"><path id="Path_190" data-name="Path 190" class="cls-3" d="M98.5,0H9.9A9.92,9.92,0,0,0,0,9.9V55.7a9.92,9.92,0,0,0,9.9,9.9H98.6a9.92,9.92,0,0,0,9.9-9.9V9.9A10.07,10.07,0,0,0,98.5,0Zm7.6,55.6a7.6,7.6,0,0,1-7.6,7.6H9.9a7.6,7.6,0,0,1-7.6-7.6V9.9A7.6,7.6,0,0,1,9.9,2.3H98.6a7.6,7.6,0,0,1,7.6,7.6V55.6Z" transform="translate(0)"/><path id="Path_191" data-name="Path 191" class="cls-3" d="M10.2,27.1H26A1.11,1.11,0,0,0,27.1,26h0V10.2A1.11,1.11,0,0,0,26,9.1H10.2a1.11,1.11,0,0,0-1.1,1.1h0V26a1,1,0,0,0,1.1,1.1h0m1.1-15.8H24.8V24.8H11.3Z" transform="translate(0)"/><path id="Path_192" data-name="Path 192" class="cls-3" d="M10.2,36.1H73.4a1.1,1.1,0,0,0,0-2.2H10.2A1.11,1.11,0,0,0,9.1,35a1,1,0,0,0,1.1,1.1h0" transform="translate(0)"/><path id="Path_193" data-name="Path 193" class="cls-3" d="M98.2,42.9h-88a1.1,1.1,0,1,0,0,2.2H98.3A1.11,1.11,0,0,0,99.4,44a1.28,1.28,0,0,0-1.2-1.1h0" transform="translate(0)"/><path id="Path_194" data-name="Path 194" class="cls-3" d="M98.2,51.9h-88a1.1,1.1,0,1,0,0,2.2H98.3A1.11,1.11,0,0,0,99.4,53a1.28,1.28,0,0,0-1.2-1.1h0" transform="translate(0)"/></g></g></g></g></svg>