<svg xmlns="http://www.w3.org/2000/svg" xmlns:xlink="http://www.w3.org/1999/xlink" viewBox="0 0 72.5 95.4"><defs><style>.cls-1{fill:none;}.cls-2{clip-path:url(#clip-path);}.cls-3{fill:#102245;}</style><clipPath id="clip-path" transform="translate(0 0)"><rect class="cls-1" width="72.4" height="95.4"/></clipPath></defs><g id="Layer_2" data-name="Layer 2"><g id="Layer_1-2" data-name="Layer 1"><g class="cls-2"><g id="Group_122" data-name="Group 122"><path id="Path_188" data-name="Path 188" class="cls-3" d="M36.2,0A26.21,26.21,0,0,0,9.8,26.2h0v4.7A10.74,10.74,0,0,0,0,41.5V84.7A10.71,10.71,0,0,0,10.7,95.4H61.8A10.71,10.71,0,0,0,72.5,84.7V41.6A10.6,10.6,0,0,0,62.7,31V26.3A26.57,26.57,0,0,0,36.2,0Zm0,3.4a22.88,22.88,0,0,1,23,22.7V31h-46V26.3A22.79,22.79,0,0,1,36,3.5c.1-.1.1-.1.2-.1ZM10.6,34.3H61.8a7.32,7.32,0,0,1,7.3,7.2V84.7A7.32,7.32,0,0,1,61.9,92H10.6a7.32,7.32,0,0,1-7.3-7.2V41.6a7.26,7.26,0,0,1,7.2-7.3ZM36.2,48.5A10.24,10.24,0,0,0,26,58.7a10,10,0,0,0,5.4,8.6v6.2a4.23,4.23,0,0,0,4.2,4.2h1.1a4.23,4.23,0,0,0,4.2-4.2V67.3a10,10,0,0,0-4.7-18.8Zm0,3.4A6.81,6.81,0,0,1,43,58.7,6.73,6.73,0,0,1,38.7,65a1.71,1.71,0,0,0-1.1,1.6v6.9a.77.77,0,0,1-.7.8H35.6a.77.77,0,0,1-.8-.7v-7A1.71,1.71,0,0,0,33.7,65a6.84,6.84,0,0,1-3.9-8.8,7,7,0,0,1,6.4-4.3Z" transform="translate(0 0)"/></g></g></g></g></svg>