<svg width="197" height="128" viewBox="0 0 197 128" fill="none" xmlns="http://www.w3.org/2000/svg">
<path d="M151.026 0H46.8545C45.5025 0 44.4209 1.0816 44.4209 2.4336V77.1992C44.4209 78.5512 45.5025 79.6328 46.8545 79.6328H151.026C152.378 79.6328 153.46 78.5512 153.46 77.1992V2.4336C153.46 1.0816 152.378 0 151.026 0ZM71.5623 70.2364H57.5015V9.464H71.5623V70.2364ZM91.6395 70.2364H77.5787V9.464H91.6395V9.4978L104.145 9.464L121.316 26.6344L121.35 46.5764L91.6395 16.8662V70.2364ZM142.069 70.2364H128.008V70.2026L115.739 70.2364L98.5685 53.066L98.5347 33.124L128.008 62.5976V9.464H142.069V70.2364Z" fill="#102245"/>
<path d="M60.8135 91.5304H71.6633C73.0491 91.5304 74.4349 91.6656 75.8207 91.9698C77.2403 92.274 78.4909 92.7472 79.6063 93.457C80.7217 94.1668 81.6343 95.1132 82.3441 96.2962C83.0539 97.4792 83.3919 99.0002 83.3919 100.825C83.3919 102.752 82.8173 104.408 81.6343 105.828C80.4513 107.247 78.8965 108.194 76.9361 108.633V108.735C79.3021 109.005 81.2625 109.918 82.8173 111.472C84.3721 113.027 85.1495 115.157 85.1495 117.827C85.1495 119.348 84.8453 120.7 84.2031 121.95C83.5609 123.201 82.6821 124.249 81.4991 125.128C80.3499 126.006 78.9303 126.682 77.2403 127.156C75.5503 127.629 73.6913 127.865 71.5957 127.865H60.8135V91.5304ZM64.4977 107.45H71.9337C72.8125 107.45 73.7251 107.349 74.6377 107.146C75.5503 106.943 76.3615 106.605 77.1389 106.098C77.8825 105.591 78.4909 104.949 78.9641 104.104C79.4373 103.293 79.6739 102.279 79.6739 101.062C79.6739 99.9128 79.4373 98.8988 78.9641 98.1214C78.4909 97.3102 77.8825 96.668 77.1051 96.1272C76.3277 95.6202 75.3813 95.2484 74.3335 95.0118C73.2857 94.7752 72.1365 94.6738 70.9535 94.6738H64.5315V107.45H64.4977ZM64.4977 124.722H71.3929C72.7449 124.722 73.9955 124.587 75.2123 124.35C76.4291 124.08 77.4769 123.674 78.3895 123.133C79.3021 122.559 80.0119 121.815 80.5865 120.936C81.1273 120.024 81.3977 118.942 81.3977 117.658C81.3977 115.258 80.5865 113.467 78.9641 112.284C77.3417 111.101 75.0433 110.526 72.0689 110.526H64.4977V124.722Z" fill="#102245"/>
<path d="M92.7201 127.899H88.6641L104.381 91.5304H107.964L123.579 127.899H119.456L115.434 118.334H96.6409L92.7201 127.899ZM98.0605 114.954H114.082L106.071 95.654L98.0605 114.954Z" fill="#102245"/>
<path d="M155.453 122.525H155.555V91.5304H159.239V127.899H154.608L133.45 96.6004H133.348V127.899H129.664V91.5304H134.295L155.453 122.525Z" fill="#102245"/>
<path d="M172.928 107.89H172.996L190.302 91.5642H195.608L177.255 108.059L196.622 127.933H191.18L172.996 108.532H172.928V127.899H169.244V91.5304H172.928V107.89Z" fill="#102245"/>
<path d="M0.27832 127.899V91.5304H9.13392V127.899H0.27832Z" fill="#102245"/>
<path d="M41.4805 127.899L26.8451 104.104H26.6761L26.8789 127.899H18.3613V91.5304H28.3661L42.9677 115.258H43.1367L42.9339 91.5304H51.4515V127.899H41.4805Z" fill="#102245"/>
<path d="M71.5286 9.46399H57.4678V70.2364H71.5286V9.46399Z" fill="#D13035"/>
</svg>
