<svg xmlns="http://www.w3.org/2000/svg" xmlns:xlink="http://www.w3.org/1999/xlink" viewBox="0 0 98 86.4"><defs><style>.cls-1{fill:none;}.cls-2{clip-path:url(#clip-path);}.cls-3{fill:#102245;}</style><clipPath id="clip-path"><rect class="cls-1" width="98.1" height="86.4"/></clipPath></defs><g id="Layer_2" data-name="Layer 2"><g id="Layer_1-2" data-name="Layer 1"><g class="cls-2"><g id="Group_116" data-name="Group 116"><path id="Path_181" data-name="Path 181" class="cls-3" d="M63.5,18.5H21a1.4,1.4,0,0,1,0-2.8H63.5a1.37,1.37,0,0,1,1.4,1.4,1.43,1.43,0,0,1-1.4,1.4h0"/><path id="Path_182" data-name="Path 182" class="cls-3" d="M63.5,32.2H21a1.4,1.4,0,1,1,0-2.8H63.5a1.37,1.37,0,0,1,1.4,1.4,1.43,1.43,0,0,1-1.4,1.4h0"/><path id="Path_183" data-name="Path 183" class="cls-3" d="M63.5,45.8H21A1.4,1.4,0,1,1,21,43H63.5a1.37,1.37,0,0,1,1.4,1.4,1.43,1.43,0,0,1-1.4,1.4h0"/><path id="Path_184" data-name="Path 184" class="cls-3" d="M15.4,78.9A1.37,1.37,0,0,1,14,77.5h0V61.6H6a6,6,0,0,1-6-6V6A6,6,0,0,1,6,0H78.4a6,6,0,0,1,6,6V55.6a6,6,0,0,1-6,6H33.3L16.4,78.5A1.28,1.28,0,0,1,15.4,78.9ZM6,2.8A3.16,3.16,0,0,0,2.8,6V55.6A3.16,3.16,0,0,0,6,58.8h9.4a1.37,1.37,0,0,1,1.4,1.4h0v14l14.9-15a1.28,1.28,0,0,1,1-.4H78.4a3.16,3.16,0,0,0,3.2-3.2V6a3.16,3.16,0,0,0-3.2-3.2Z"/><path id="Path_185" data-name="Path 185" class="cls-3" d="M88.7,86.3a1.28,1.28,0,0,1-1-.4l-9.6-9.6H52.4a4.12,4.12,0,0,1-4.1-4.1v-12a1.4,1.4,0,1,1,2.8,0V72.3a1.24,1.24,0,0,0,1.2,1.3H78.6a1.28,1.28,0,0,1,1,.4l7.6,7.6V75a1.37,1.37,0,0,1,1.4-1.4H94a1.22,1.22,0,0,0,1.2-1.2h0V43.7A1.22,1.22,0,0,0,94,42.5H83a1.4,1.4,0,0,1,0-2.8H94a4,4,0,0,1,4,4.1V72.4a4.1,4.1,0,0,1-4,4.1H90v8.6a1.29,1.29,0,0,1-.9,1.3c-.1-.1-.2-.1-.4-.1Z"/></g></g></g></g></svg>