<svg xmlns="http://www.w3.org/2000/svg" xmlns:xlink="http://www.w3.org/1999/xlink" viewBox="0 0 56.9 96"><defs><style>.cls-1{fill:none;}.cls-2{clip-path:url(#clip-path);}.cls-3{fill:#102245;}</style><clipPath id="clip-path" transform="translate(0.1)"><rect class="cls-1" width="56.8" height="95.9"/></clipPath></defs><g id="Layer_2" data-name="Layer 2"><g id="Layer_1-2" data-name="Layer 1"><g class="cls-2"><g id="Group_114" data-name="Group 114"><path id="Path_179" data-name="Path 179" class="cls-3" d="M49.6,0H7.1A7.17,7.17,0,0,0-.1,7.2V88.8A7.17,7.17,0,0,0,7.1,96H49.6a7.17,7.17,0,0,0,7.2-7.2V7.2A7.17,7.17,0,0,0,49.6,0M7.1,2.5H49.6a4.69,4.69,0,0,1,4.7,4.7h0v6.7H2.4V7.2A4.69,4.69,0,0,1,7.1,2.5ZM54.3,75.6H2.4V16.3H54.3ZM49.6,93.4H7.1a4.69,4.69,0,0,1-4.7-4.7V78.1H54.3V88.7a4.69,4.69,0,0,1-4.7,4.7Z" transform="translate(0.1)"/><rect id="Rectangle_217" data-name="Rectangle 217" class="cls-3" x="23" y="7.2" width="10.9" height="3"/><path id="Path_180" data-name="Path 180" class="cls-3" d="M30.8,84.8a3,3,0,0,1-3,3,3,3,0,0,1-3-3,3,3,0,0,1,3-3,3,3,0,0,1,3,3h0" transform="translate(0.1)"/></g></g></g></g></svg>