<svg xmlns="http://www.w3.org/2000/svg" xmlns:xlink="http://www.w3.org/1999/xlink" viewBox="0 0 93.6 82.43"><defs><style>.cls-1{fill:none;}.cls-2{clip-path:url(#clip-path);}.cls-3{fill:#102245;}</style><clipPath id="clip-path" transform="translate(0 0.03)"><rect class="cls-1" width="93.6" height="82.4"/></clipPath></defs><g id="Layer_2" data-name="Layer 2"><g id="Layer_1-2" data-name="Layer 1"><g class="cls-2"><g id="Group_120" data-name="Group 120"><path id="Path_187" data-name="Path 187" class="cls-3" d="M93.6,38.4h0A7.21,7.21,0,0,0,86.7,31H60.2c1.5-7.2,1.3-12.5-.7-22.1-1.4-7-5.3-9.2-8.1-8.9s-5.5,2.9-5.5,8h0c.7,17.3-8.6,25.8-14.1,31a15.38,15.38,0,0,0-1.3,1.2,4.26,4.26,0,0,0-3.1-1.4H4.3A4.27,4.27,0,0,0,0,43.1V61.9H0V78.1a4.27,4.27,0,0,0,4.3,4.3h23a4.37,4.37,0,0,0,3.6-1.9l4.6,1.8a1.09,1.09,0,0,0,.5.1h9.3c7.2,0,12.8,0,18-.2L80,81.8a7.28,7.28,0,0,0,6.9-7.4,7.88,7.88,0,0,0-1.7-4.9,7.71,7.71,0,0,0,4.3-10,7.89,7.89,0,0,0-1.4-2.3,7.64,7.64,0,0,0,4.1-6.8A8.3,8.3,0,0,0,90.1,45a7.87,7.87,0,0,0,3.5-6.6M28.5,42.6V78.7a1.39,1.39,0,0,1-1.2.7H4.3A1.37,1.37,0,0,1,2.9,78h0V67.9h0V43.1a1.37,1.37,0,0,1,1.4-1.4h23a1.71,1.71,0,0,1,1.3.7.35.35,0,0,1-.1.2m56.6,3.3h0a4.39,4.39,0,0,1,4,4.5,4.25,4.25,0,0,1-4,4.5H83a1.61,1.61,0,0,0-1.5,1.5,1.52,1.52,0,0,0,1.4,1.5H83a4.55,4.55,0,0,1,3.9,5.2A4.67,4.67,0,0,1,83,67H79.9a1.61,1.61,0,0,0-1.5,1.5,1.37,1.37,0,0,0,1.4,1.4h0a4.6,4.6,0,0,1,4,5.1,4.67,4.67,0,0,1-4,4l-16.7.4c-5.2.1-10.7.2-17.9.2H36.3l-4.7-1.8V43c.6-.6,1.3-1.3,2.1-2,5.5-5.1,15.8-14.6,15-33.1,0-3.3,1.5-5,3-5.1,1.7-.1,4.1,1.8,5,6.6,2,10.1,2.1,15,.3,22.7a1.31,1.31,0,0,0,.3,1.2,1.61,1.61,0,0,0,1.1.5H86.8a4.39,4.39,0,0,1,4,4.5,4.25,4.25,0,0,1-4,4.5H85.2a1.61,1.61,0,0,0-1.5,1.5,1.55,1.55,0,0,0,1.4,1.6" transform="translate(0 0.03)"/></g></g></g></g></svg>