<svg xmlns="http://www.w3.org/2000/svg" xmlns:xlink="http://www.w3.org/1999/xlink" viewBox="0 0 96.62 96.62"><defs><style>.cls-1{fill:none;}.cls-2{fill:#1fbbdb;}.cls-3{fill:#125591;}.cls-4{fill:#fff;}.cls-5{clip-path:url(#clip-path);}</style><clipPath id="clip-path"><circle class="cls-1" cx="48.31" cy="48.31" r="48.31"/></clipPath></defs><title>Replacement Icon</title><g id="Home_Loans" data-name="Home Loans"><circle class="cls-2" cx="48.31" cy="48.31" r="48.31"/><path class="cls-3" d="M76.73,55.19a1.91,1.91,0,0,1-1.35-.56L46.9,26.16,19.15,53.91a1.91,1.91,0,1,1-2.7-2.7l29.1-29.1a1.9,1.9,0,0,1,2.7,0L78.08,51.93a1.91,1.91,0,0,1-1.35,3.26Z"/><rect class="cls-3" x="28.85" y="21.79" width="4.45" height="18.13"/><polygon class="cls-3" points="71.36 47.91 71.36 78.09 23.13 78.09 23.13 45.33 46.9 23.46 71.36 47.91"/><circle class="cls-4" cx="45.97" cy="40.93" r="7.38"/><path class="cls-3" d="M46,50.22a1.9,1.9,0,0,1-1.91-1.91V30.85a1.91,1.91,0,0,1,3.82,0V48.31A1.91,1.91,0,0,1,46,50.22Z"/><path class="cls-3" d="M54.7,42.45H37.24a1.91,1.91,0,0,1,0-3.82H54.7a1.91,1.91,0,0,1,0,3.82Z"/><path class="cls-4" d="M38.59,78.15V67.06a8.07,8.07,0,0,1,8-8.05h0a8.08,8.08,0,0,1,8.06,8.05V78.15"/><circle class="cls-3" cx="51.09" cy="68.77" r="2.54"/><circle class="cls-4" cx="67.66" cy="21.47" r="8.07"/><g class="cls-5"><rect class="cls-3" x="3.72" y="78.09" width="88.28" height="23.38"/></g></g></svg>