<svg xmlns="http://www.w3.org/2000/svg" viewBox="0 0 96.62 96.62"><defs><style>.cls-1{fill:#1fbbdb;}.cls-2{fill:#125591;}.cls-3{fill:#fff;}</style></defs><title>Replacement Icon</title><g id="Learn"><circle class="cls-1" cx="48.31" cy="48.31" r="48.31"/><path class="cls-2" d="M24.79,55.86v6.6h.11c0,8.43,10.63,17.65,23.75,17.65S72.4,70.89,72.4,62.46h.11v-6.6L48.65,67.8Z"/><polygon class="cls-2" points="48.65 65.41 84.46 47.49 86.85 46.3 48.65 27.19 10.45 46.3 12.84 47.49 48.65 65.41"/><ellipse class="cls-3" cx="48.93" cy="44.64" rx="4.79" ry="1.65"/><path class="cls-3" d="M71.37,62.94a.48.48,0,0,1-.48-.48v-8.1L48.75,45.08a.47.47,0,0,1-.26-.62.49.49,0,0,1,.63-.26l22.43,9.4a.49.49,0,0,1,.3.44v8.42A.48.48,0,0,1,71.37,62.94Z"/><circle class="cls-3" cx="71.37" cy="62.46" r="2.95"/><path class="cls-3" d="M73.59,70.82H69.15A1.15,1.15,0,0,1,68,69.68l1.39-6a1.15,1.15,0,0,1,1.15-1.14h1.64a1.15,1.15,0,0,1,1.15,1.14l1.39,6A1.15,1.15,0,0,1,73.59,70.82Z"/></g></svg>