<svg id="Careers_Culture" data-name="Careers + Culture" xmlns="http://www.w3.org/2000/svg" xmlns:xlink="http://www.w3.org/1999/xlink" viewBox="0 0 96.62 96.62"><defs><style>.cls-1{fill:none;}.cls-2{fill:#005295;}.cls-3{fill:#1fbbdb;}.cls-4{fill:url(#Unnamed_Pattern_6);}.cls-5{fill:url(#Unnamed_Pattern_6-3);}.cls-6{fill:#fff;}</style><pattern id="Unnamed_Pattern_6" data-name="Unnamed Pattern 6" width="76" height="76" patternTransform="translate(251.03 -8332.94) scale(0.5)" patternUnits="userSpaceOnUse" viewBox="0 0 76 76"><rect class="cls-1" width="76" height="76"/><rect class="cls-2" width="76" height="76"/></pattern><pattern id="Unnamed_Pattern_6-3" data-name="Unnamed Pattern 6" width="76" height="76" patternTransform="translate(274.34 -8320.54) scale(0.5)" patternUnits="userSpaceOnUse" viewBox="0 0 76 76"><rect class="cls-1" width="76" height="76"/><rect class="cls-2" width="76" height="76"/></pattern></defs><title>Replacement Icon</title><circle class="cls-3" cx="48.31" cy="48.31" r="48.31"/><path class="cls-4" d="M40.78,38.79a9.58,9.58,0,0,0-5.18,1.48v-7.8l-4.71,2.84V48.8A9.59,9.59,0,0,0,35,56.93a9.64,9.64,0,0,0,12.72-1.06,10.09,10.09,0,0,0,0-14.14,9.52,9.52,0,0,0-7-2.94m3.63,13.78a5,5,0,0,1-7.29,0,5.42,5.42,0,0,1,0-7.53,5,5,0,0,1,7.29,0,5.4,5.4,0,0,1,0,7.53"/><polygon class="cls-5" points="69.49 38.91 62.88 38.91 57.05 45.12 57.05 32.48 52.42 35.2 52.42 58.58 57.05 58.58 57.05 52.33 63.26 58.58 70.09 58.58 60 48.73 69.49 38.91"/><path class="cls-5" d="M81,51.89a5.09,5.09,0,0,1-7.82.63,5.46,5.46,0,0,1,0-7.55A5.1,5.1,0,0,1,81,45.6l.21.29,3.84-2.72-.21-.3a9.79,9.79,0,0,0-15-1.21,10.12,10.12,0,0,0,0,14.16,9.78,9.78,0,0,0,15-1.21l.21-.29L81.24,51.6Z"/><path class="cls-5" d="M20.07,38.53a8.3,8.3,0,0,0-4.49,1.27V38.26L11,41v7.29h0s0,.08,0,.12V58.58h4.61V48.36a5.45,5.45,0,0,1,1.34-3.7,4,4,0,0,1,6.3,0,5.45,5.45,0,0,1,1.34,3.7V58.58h4.61V48.36a9.91,9.91,0,0,0-2.66-6.93,8.46,8.46,0,0,0-6.44-2.9"/><path class="cls-6" d="M56.45,71.86a3.9,3.9,0,0,0,2.89-1.23,4.23,4.23,0,0,0,0-5.88,4,4,0,0,0-5.76,0l-.09.08v-4l-1.14.77v6.36s.18,3.93,4.1,3.93m-2.09-6.3a2.83,2.83,0,0,1,2.09-.88,2.79,2.79,0,0,1,2.08.88,3.08,3.08,0,0,1,0,4.27,2.83,2.83,0,0,1-2.08.88,2.86,2.86,0,0,1-2.09-.88,3.05,3.05,0,0,1,0-4.27"/><path class="cls-6" d="M69.41,71.78V67a3.82,3.82,0,0,0-4.08-3.49,4,4,0,0,0-2.91,1.22,4.24,4.24,0,0,0,0,5.89,4,4,0,0,0,2.91,1.22,3.91,3.91,0,0,0,2.85-1.19l.09-.08v1.19Zm-2-2a2.88,2.88,0,0,1-4.16,0,3,3,0,0,1,0-4.26,2.88,2.88,0,0,1,4.16,0,3,3,0,0,1,0,4.26"/><polygon class="cls-6" points="80.56 67.58 84.98 63.51 83.63 63.51 79.88 66.83 79.88 60.93 78.86 61.55 78.86 71.8 79.85 71.8 79.85 68.33 83.66 71.8 85.03 71.8 80.56 67.58"/><path class="cls-6" d="M76.72,64.73a3.44,3.44,0,0,0-2.55-1.19h-.09a3.44,3.44,0,0,0-2.55,1.19l-.07.08V64l-1,.62v7.16h1.12V67.62a3.13,3.13,0,0,1,.76-2.1,2.31,2.31,0,0,1,3.61,0,3.08,3.08,0,0,1,.76,2.1v4.16h1.12V67.62a4.15,4.15,0,0,0-1.09-2.89"/><path class="cls-4" d="M84.55,40.06a.62.62,0,1,1,.62-.62.62.62,0,0,1-.62.62m0-1.19a.57.57,0,0,0-.57.57.57.57,0,1,0,1.14,0,.57.57,0,0,0-.57-.57"/><path class="cls-4" d="M84.33,39.14h.27l.11,0a.14.14,0,0,1,.09.14.12.12,0,0,1,0,.09.17.17,0,0,1-.06.06l.05,0s0,0,0,.08v.13l0,0h-.1v-.17s0-.06,0-.07l-.07,0h-.18v.26h-.08Zm.26.28a.12.12,0,0,0,.09,0s0,0,0-.08a.1.1,0,0,0,0-.09h-.26v.21Z"/></svg>