<svg xmlns="http://www.w3.org/2000/svg" viewBox="0 0 96.62 96.62"><defs><style>.cls-1{fill:#1fbbdb;}.cls-2{fill:none;}.cls-3{fill:#125591;}.cls-4{fill:#fff;}</style></defs><title>Replacement Icon</title><g id="Personal"><circle class="cls-1" cx="48.31" cy="48.31" r="48.31"/><path class="cls-2" d="M78.1,53.09l-.31,0a2.53,2.53,0,0,0,.2,2.69,2.18,2.18,0,0,0,2.59.44c.43-.31.15-1-.16-1.46A3.27,3.27,0,0,0,78.1,53.09Z"/><path class="cls-3" d="M82,53.71a5.17,5.17,0,0,0-3.31-2.44,16.81,16.81,0,0,1,1.77-2.22,1,1,0,0,0-1.4-1.3,17.22,17.22,0,0,0-2.54,3.43A11.88,11.88,0,0,0,73,52.29c-3.85-8.15-13.56-13.94-24.95-13.94a31.82,31.82,0,0,0-11.83,2.24c-3-3.27-9.88-4.16-9.88-4.16l3.92,7.43a22.3,22.3,0,0,0-7.18,8.46l-4.21.43A1.92,1.92,0,0,0,17,54.66v11a1.91,1.91,0,0,0,1.91,1.9l4.3.45a23.25,23.25,0,0,0,9.48,9.8l1.8,6.63a1.25,1.25,0,0,0,1.24,1.24h7.13a1.25,1.25,0,0,0,1.24-1.24l.19-2.88a33.88,33.88,0,0,0,3.8.22,32.44,32.44,0,0,0,6.45-.64l.22,3.3A1.25,1.25,0,0,0,56,85.66h7.13a1.24,1.24,0,0,0,1.23-1.24L67.49,75a19.7,19.7,0,0,0,7.3-14.91,18.06,18.06,0,0,0-1-6,10.74,10.74,0,0,1,2-.77A4,4,0,0,0,76.57,57a4.23,4.23,0,0,0,3.09,1.33,3.44,3.44,0,0,0,2.07-.64C82.65,57,83.22,55.6,82,53.71Zm-52.43-.82A2.38,2.38,0,1,1,32,55.28,2.39,2.39,0,0,1,29.61,52.89Zm8.32-6.47a1.19,1.19,0,1,1-1.08-2.13,27,27,0,0,1,25.94.64,1.21,1.21,0,0,1,.36,1.65,1.22,1.22,0,0,1-1,.55,1.25,1.25,0,0,1-.64-.19A25.05,25.05,0,0,0,37.93,46.42Zm42.65,9.76A2.18,2.18,0,0,1,78,55.74a2.53,2.53,0,0,1-.2-2.69l.31,0a3.27,3.27,0,0,1,2.32,1.63C80.73,55.21,81,55.87,80.58,56.18Z"/><path class="cls-4" d="M62.14,47.13a1.22,1.22,0,0,0,1-.55,1.21,1.21,0,0,0-.36-1.65,27,27,0,0,0-25.94-.64,1.19,1.19,0,1,0,1.08,2.13,25.05,25.05,0,0,1,23.57.52A1.25,1.25,0,0,0,62.14,47.13Z"/><path class="cls-4" d="M34.37,52.89A2.38,2.38,0,1,0,32,55.28,2.38,2.38,0,0,0,34.37,52.89Z"/><circle class="cls-3" cx="49.85" cy="22.5" r="13.8"/><path class="cls-4" d="M53.41,18.77a1.58,1.58,0,0,0-.41-.31c-.2-.12-.44-.25-.71-.38a8.68,8.68,0,0,0-.91-.34,4.4,4.4,0,0,0-1-.21v3.16l.46.11a16.67,16.67,0,0,1,1.72.55,4.39,4.39,0,0,1,1.32.73,2.91,2.91,0,0,1,.83,1.05A3.42,3.42,0,0,1,55,24.64a3.86,3.86,0,0,1-.35,1.71,3.18,3.18,0,0,1-1,1.17,4.22,4.22,0,0,1-1.43.69,7.27,7.27,0,0,1-1.71.26v2H49.43v-2a9.69,9.69,0,0,1-2.5-.53,8.93,8.93,0,0,1-2.2-1.12l1.11-2.17a4.74,4.74,0,0,0,.51.38,6.66,6.66,0,0,0,.86.47,10,10,0,0,0,1.11.42,6,6,0,0,0,1.27.28V23.05L49.26,23l-.33-.1a11.54,11.54,0,0,1-1.61-.55,4.43,4.43,0,0,1-1.15-.72,2.64,2.64,0,0,1-.68-.95,3.34,3.34,0,0,1-.23-1.29,4,4,0,0,1,.32-1.63,3.78,3.78,0,0,1,.88-1.24,4.16,4.16,0,0,1,1.32-.8,6.21,6.21,0,0,1,1.65-.37V13.45h1.09V15.3a7.36,7.36,0,0,1,2.22.49,9.38,9.38,0,0,1,1.79.93ZM47.86,19a1.1,1.1,0,0,0,.42.94,4.16,4.16,0,0,0,1.31.58v-3C48.43,17.58,47.86,18.06,47.86,19Zm4.44,5.94a1.1,1.1,0,0,0-.52-1,5.8,5.8,0,0,0-1.42-.64v2.95C51.65,26.19,52.3,25.74,52.3,24.89Z"/></g></svg>