<?xml version="1.0" encoding="utf-8"?>
<!-- Generator: Adobe Illustrator 23.0.1, SVG Export Plug-In . SVG Version: 6.00 Build 0)  -->
<svg version="1.1" id="Layer_1" xmlns="http://www.w3.org/2000/svg" xmlns:xlink="http://www.w3.org/1999/xlink" x="0px" y="0px"
	 viewBox="0 0 1232.2 507.2" style="enable-background:new 0 0 1232.2 507.2;" xml:space="preserve">
<style type="text/css">
	.st0{fill:#102245;}
	.st1{fill:#D13035;}
</style>
<g>
	<path class="st0" d="M431.1,146.8H151.7c-3.6,0-6.5,2.9-6.5,6.5v200.6c0,3.6,2.9,6.5,6.5,6.5h279.4c3.6,0,6.5-2.9,6.5-6.5V153.3
		C437.6,149.8,434.7,146.8,431.1,146.8z M217.9,335.2h-37.7v-163h37.7V335.2z M271.8,335.2H234v-163h37.7v0.1l33.6-0.1l46,46
		l0.1,53.5L271.8,192V335.2z M407,335.2h-37.7v-0.1l-32.9,0.1l-46-46l-0.1-53.5l79,79V172.2H407V335.2z"/>
	<g>
		<path class="st0" d="M478.5,172.2h48.6c6.1,0,12.4,0.7,18.6,2c6.3,1.3,11.9,3.5,16.9,6.7c5,3.1,9.1,7.4,12.2,12.8
			c3.1,5.4,4.7,12.1,4.7,20.3c0,8.6-2.6,16.1-7.9,22.4c-5.2,6.4-12.3,10.6-21.1,12.5v0.5c10.6,1.2,19.3,5.3,26.3,12.3
			c7,7,10.5,16.5,10.5,28.4c0,6.8-1.4,12.9-4.3,18.5c-2.8,5.6-6.9,10.4-12.1,14.3c-5.2,3.9-11.6,6.9-19.1,9.1
			c-7.5,2.2-15.9,3.2-25.3,3.2h-48.3V172.2z M495.1,243.6h33.4c4,0,8-0.5,12.1-1.4c4.1-0.9,7.8-2.5,11.2-4.7
			c3.4-2.2,6.1-5.2,8.2-8.9c2.1-3.7,3.1-8.2,3.1-13.6c0-5.2-1-9.6-3.1-13.2c-2.1-3.6-4.9-6.6-8.4-8.9c-3.5-2.3-7.7-3.9-12.4-5
			c-4.8-1-9.8-1.5-15.2-1.5h-28.8V243.6z M495.1,321h30.9c6,0,11.7-0.6,17.2-1.7c5.4-1.2,10.2-3,14.3-5.5c4.1-2.5,7.3-5.8,9.8-9.9
			c2.5-4.1,3.7-8.9,3.7-14.6c0-10.7-3.6-18.8-10.9-24.1c-7.3-5.3-17.6-7.9-31-7.9h-33.8V321z"/>
		<path class="st0" d="M621.5,335.2h-18.2l70.5-163h16.1l70,163h-18.4l-18-42.8h-84.3L621.5,335.2z M645.4,277.2h71.8l-35.9-86.6
			L645.4,277.2z"/>
		<path class="st0" d="M902.6,311.1h0.5V172.2h16.6v163h-20.7L804.1,195h-0.5v140.2H787v-163h20.7L902.6,311.1z"/>
		<path class="st0" d="M980.9,245.5h0.2l77.6-73.2h23.7l-82.2,73.9l86.8,89.1h-24.4l-81.5-86.8h-0.2v86.8h-16.6v-163h16.6V245.5z"/>
	</g>
	<rect x="180.2" y="172.2" class="st1" width="37.7" height="163"/>
</g>
<g>
	<path class="st0" d="M-1022.1,283.6h-148.8c-1.9,0-3.5,1.5-3.5,3.5v106.8c0,1.9,1.5,3.5,3.5,3.5h148.8c1.9,0,3.5-1.5,3.5-3.5V287.1
		C-1018.7,285.2-1020.2,283.6-1022.1,283.6z M-1135.7,383.9h-20.1v-86.8h20.1V383.9z M-1107,383.9h-20.1v-86.8h20.1v0.1l17.9-0.1
		l24.5,24.5l0.1,28.5l-42.4-42.4V383.9z M-1035,383.9h-20.1v-0.1l-17.5,0.1l-24.5-24.5l-0.1-28.5l42.1,42.1v-75.9h20.1V383.9z"/>
	<g>
		<path class="st0" d="M-996.9,297.1h25.9c3.3,0,6.6,0.3,9.9,1c3.4,0.7,6.4,1.9,9,3.6c2.7,1.7,4.8,3.9,6.5,6.8
			c1.7,2.9,2.5,6.5,2.5,10.8c0,4.6-1.4,8.6-4.2,12c-2.8,3.4-6.5,5.6-11.2,6.7v0.2c5.6,0.7,10.3,2.8,14,6.6c3.7,3.7,5.6,8.8,5.6,15.1
			c0,3.6-0.8,6.9-2.3,9.9c-1.5,3-3.6,5.5-6.4,7.6c-2.8,2.1-6.2,3.7-10.2,4.8c-4,1.1-8.5,1.7-13.5,1.7h-25.7V297.1z M-988.1,335.1
			h17.8c2.1,0,4.3-0.2,6.4-0.7c2.2-0.5,4.1-1.3,5.9-2.5c1.8-1.2,3.2-2.8,4.4-4.7c1.1-2,1.7-4.4,1.7-7.2c0-2.8-0.6-5.1-1.7-7
			c-1.1-1.9-2.6-3.5-4.5-4.7c-1.9-1.2-4.1-2.1-6.6-2.6c-2.5-0.5-5.2-0.8-8.1-0.8h-15.3V335.1z M-988.1,376.3h16.4
			c3.2,0,6.2-0.3,9.1-0.9c2.9-0.6,5.4-1.6,7.6-2.9c2.2-1.3,3.9-3.1,5.2-5.3c1.3-2.2,2-4.8,2-7.8c0-5.7-1.9-10-5.8-12.8
			c-3.9-2.8-9.4-4.2-16.5-4.2h-18V376.3z"/>
		<path class="st0" d="M-920.8,383.9h-9.7l37.5-86.8h8.6l37.3,86.8h-9.8l-9.6-22.8h-44.9L-920.8,383.9z M-908,353h38.2l-19.1-46.1
			L-908,353z"/>
		<path class="st0" d="M-771.1,371.1h0.2v-73.9h8.8v86.8h-11l-50.5-74.7h-0.2v74.7h-8.8v-86.8h11L-771.1,371.1z"/>
		<path class="st0" d="M-729.4,336.1h0.1l41.3-39h12.6l-43.8,39.4l46.2,47.4h-13l-43.4-46.2h-0.1v46.2h-8.8v-86.8h8.8V336.1z"/>
	</g>
	<rect x="-1155.7" y="297.1" class="st1" width="20.1" height="86.8"/>
</g>
<g>
	<path class="st0" d="M-731.8-360.4h-392.5c-5,0-9.1,4.1-9.1,9.1v281.8c0,5,4.1,9.1,9.1,9.1h392.5c5,0,9.1-4.1,9.1-9.1v-281.8
		C-722.7-356.3-726.8-360.4-731.8-360.4z M-1031.3-95.7h-53v-229h53V-95.7z M-955.6-95.7h-53v-229h53v0.2l47.2-0.2l64.6,64.6
		l0.1,75.1l-112-112V-95.7z M-765.6-95.7h-53v-0.2l-46.2,0.2l-64.6-64.6l-0.1-75.1l111,111v-200.3h53V-95.7z"/>
	<g>
		<path class="st0" d="M-1071.8-15.5h40.9c5.2,0,10.4,0.6,15.7,1.6c5.3,1.1,10,3,14.2,5.6c4.2,2.6,7.6,6.2,10.3,10.7
			c2.6,4.5,4,10.2,4,17c0,7.2-2.2,13.5-6.6,18.9c-4.4,5.4-10.3,8.9-17.7,10.6v0.4c8.9,1,16.3,4.5,22.1,10.4
			c5.9,5.9,8.8,13.8,8.8,23.9c0,5.7-1.2,10.9-3.6,15.6c-2.4,4.7-5.8,8.7-10.1,12c-4.4,3.3-9.7,5.8-16,7.6
			c-6.3,1.8-13.4,2.7-21.3,2.7h-40.6V-15.5z M-1057.8,44.5h28.1c3.4,0,6.7-0.4,10.2-1.2c3.4-0.8,6.5-2.1,9.4-4
			c2.8-1.9,5.1-4.4,6.9-7.5c1.7-3.1,2.6-6.9,2.6-11.4c0-4.4-0.9-8.1-2.6-11.1c-1.7-3-4.1-5.5-7.1-7.5c-3-1.9-6.5-3.3-10.5-4.2
			c-4-0.8-8.3-1.3-12.8-1.3h-24.2V44.5z M-1057.8,109.6h25.9c5,0,9.8-0.5,14.4-1.5c4.6-1,8.6-2.5,12-4.6c3.4-2.1,6.2-4.9,8.2-8.3
			c2.1-3.4,3.1-7.5,3.1-12.3c0-9-3.1-15.8-9.2-20.2c-6.1-4.5-14.8-6.7-26-6.7h-28.5V109.6z"/>
		<path class="st0" d="M-951.5,121.6h-15.3l59.2-137.1h13.6l58.9,137.1h-15.5l-15.1-36h-70.9L-951.5,121.6z M-931.4,72.8h60.4
			L-901.2,0L-931.4,72.8z"/>
		<path class="st0" d="M-715.1,101.3h0.4V-15.5h13.9v137.1h-17.4L-798,3.7h-0.4v117.9h-13.9V-15.5h17.4L-715.1,101.3z"/>
		<path class="st0" d="M-649.3,46.1h0.2l65.2-61.6h19.9L-633,46.7l73,74.9h-20.5l-68.5-73h-0.2v73h-13.9V-15.5h13.9V46.1z"/>
	</g>
	<g>
		<path class="st0" d="M-1299.8,121.6V-15.5h33.3v137.1H-1299.8z"/>
		<path class="st0" d="M-1144.6,121.6l-55.2-89.6h-0.6l0.8,89.6h-32.1V-15.5h37.8l55,89.5h0.6l-0.8-89.5h32.1v137.1H-1144.6z"/>
	</g>
	<rect x="-1084.3" y="-324.7" class="st1" width="53" height="229"/>
</g>
<rect x="-1308.3" y="579" class="st0" width="109.3" height="109.3"/>
<rect x="-870.9" y="579" class="st1" width="109.3" height="109.3"/>
<text transform="matrix(1 0 0 1 -1177.0791 589.3652)"><tspan x="0" y="0" style="font-family:'Helvetica-Bold'; font-size:14.375px;">R  13</tspan><tspan x="0" y="34.5" style="font-family:'Helvetica-Bold'; font-size:14.375px;">G  34</tspan><tspan x="0" y="69" style="font-family:'Helvetica-Bold'; font-size:14.375px;">B  66</tspan></text>
<text transform="matrix(1 0 0 1 -1108.4429 589.3652)"><tspan x="0" y="0" style="font-family:'Helvetica-Bold'; font-size:14.375px;">C  99</tspan><tspan x="0" y="34.5" style="font-family:'Helvetica-Bold'; font-size:14.375px;">M  86</tspan><tspan x="0" y="69" style="font-family:'Helvetica-Bold'; font-size:14.375px;">Y  44</tspan><tspan x="0" y="103.5" style="font-family:'Helvetica-Bold'; font-size:14.375px;">K  49</tspan></text>
<text transform="matrix(1 0 0 1 -1039.4429 589.3652)"><tspan x="0" y="0" style="font-family:'Helvetica-Bold'; font-size:14.375px;">PMS:</tspan><tspan x="0" y="34.5" style="font-family:'Helvetica-Bold'; font-size:14.375px;">282 C</tspan></text>
<text transform="matrix(1 0 0 1 -744.0254 589.3652)"><tspan x="0" y="0" style="font-family:'Helvetica-Bold'; font-size:14.375px;">R  209</tspan><tspan x="0" y="34.5" style="font-family:'Helvetica-Bold'; font-size:14.375px;">G  48</tspan><tspan x="0" y="69" style="font-family:'Helvetica-Bold'; font-size:14.375px;">B  53</tspan></text>
<text transform="matrix(1 0 0 1 -675.3896 589.3652)"><tspan x="0" y="0" style="font-family:'Helvetica-Bold'; font-size:14.375px;">C  12</tspan><tspan x="0" y="34.5" style="font-family:'Helvetica-Bold'; font-size:14.375px;">M  95</tspan><tspan x="0" y="69" style="font-family:'Helvetica-Bold'; font-size:14.375px;">Y  86</tspan><tspan x="0" y="103.5" style="font-family:'Helvetica-Bold'; font-size:14.375px;">K  2</tspan></text>
<text transform="matrix(1 0 0 1 -606.3896 589.3652)"><tspan x="0" y="0" style="font-family:'Helvetica-Bold'; font-size:14.375px;">PMS:</tspan><tspan x="0" y="34.5" style="font-family:'Helvetica-Bold'; font-size:14.375px;">711 C</tspan></text>
<text transform="matrix(1 0 0 1 -1308.3163 806.377)" style="font-family:'MyriadPro-Regular'; font-size:50.2342px;">#102245</text>
<text transform="matrix(1 0 0 1 -870.8867 806.377)" style="font-family:'MyriadPro-Regular'; font-size:50.2342px;">#d13035</text>
</svg>
