<svg xmlns="http://www.w3.org/2000/svg" viewBox="0 0 96.62 96.62"><defs><style>.cls-1{fill:#1fbbdb;}.cls-2{fill:#125591;}.cls-3{fill:#fff;}</style></defs><title>Replacement Icon</title><g id="Treasury_Solutions" data-name="Treasury Solutions"><circle class="cls-1" cx="48.31" cy="48.31" r="48.31"/><path class="cls-2" d="M75.06,71.78H21.56c-4,0-7.33,1.48-7.33-2.56V37.05A9.74,9.74,0,0,1,24,27.33H71.61A10.82,10.82,0,0,1,82.4,38.11V69.22C82.4,73.26,79.1,71.78,75.06,71.78Z"/><path class="cls-3" d="M73.06,68.33H23.57c-3.13,0-5.7,3-5.7-.14V36.48a5.72,5.72,0,0,1,5.7-5.7H73.06a5.71,5.71,0,0,1,5.69,5.7V68.19C78.75,71.32,76.19,68.33,73.06,68.33Z"/><path class="cls-2" d="M85.92,66.73h0c0,3.13-2.57,7.13-5.7,7.13H16.4c-3.13,0-5.69-4-5.69-7.13h0"/><circle class="cls-3" cx="48.31" cy="66.55" r="3.07"/><circle class="cls-2" cx="67.83" cy="41.22" r="5.12"/><circle class="cls-2" cx="56.5" cy="57.04" r="5.12"/><circle class="cls-2" cx="40.13" cy="39.62" r="5.12"/><circle class="cls-2" cx="27.53" cy="51.92" r="5.12"/><path class="cls-2" d="M56.63,60l-1.54-1.79c-6-7-12.82-14.53-15.09-16.49-1.93,1.48-7,6.75-11.08,11.39l-2.78-2.45S29,47.51,31.9,44.43c6.54-6.86,7.46-6.76,8.43-6.65s1.69.19,10,9.38c2.34,2.6,4.63,5.22,6.08,6.89l10-13.91,3,2.16Z"/></g></svg>