<svg id="Layer_1" data-name="Layer 1" xmlns="http://www.w3.org/2000/svg" viewBox="0 0 741.44 366.97"><defs><style>.cls-1{fill:#d1ecec;}.cls-2{fill:#005393;}</style></defs><title>landing pages-parts_text block with arrow</title><rect class="cls-1" x="0.5" y="-0.23" width="741.44" height="164.71"/><polygon class="cls-1" points="107.15 152.2 21.32 152.2 57.6 357.88 196.56 357.88 196.56 320.84 95.99 320.84 107.15 152.2"/><polygon class="cls-1" points="220.88 338.32 192.46 366.74 192.46 309.91 220.88 338.32"/><path class="cls-2" d="M98.54,48.3a8.18,8.18,0,0,1,2.11,5.89,9.19,9.19,0,0,1-3,7.29q-3,2.66-8.34,2.65H76.68V28.43H88.62q5.35,0,8.41,2.48a8.26,8.26,0,0,1,3.06,6.8q0,6.74-6.78,8.06A8.16,8.16,0,0,1,98.54,48.3Zm-16-14.72v9.8h5.81a6.51,6.51,0,0,0,4.31-1.31,4.41,4.41,0,0,0,1.56-3.59,4.45,4.45,0,0,0-1.53-3.62,6.61,6.61,0,0,0-4.34-1.28Zm10.76,24a5.27,5.27,0,0,0,1.48-4,4.71,4.71,0,0,0-1.53-3.65,5.72,5.72,0,0,0-4-1.4H82.55V59h6.63A5.69,5.69,0,0,0,93.31,57.55Z"/><path class="cls-2" d="M108.4,62.35c-1.6-1.6-2.39-4-2.39-7V40.37h5.56V53.93a7.62,7.62,0,0,0,1.12,4.54A4.3,4.3,0,0,0,116.41,60a5.31,5.31,0,0,0,4.39-1.71,7,7,0,0,0,1.37-4.51V40.37h5.56V64.13h-5.56V60.82c-1.46,2.62-3.91,3.92-7.34,3.92A8.68,8.68,0,0,1,108.4,62.35Z"/><path class="cls-2" d="M138,63.72a8.5,8.5,0,0,1-3.62-2.83,6.73,6.73,0,0,1-1.3-4h5.56a3,3,0,0,0,1.35,2.5,5.88,5.88,0,0,0,3.49,1,3.79,3.79,0,0,0,2.5-.77,2.53,2.53,0,0,0,.92-2,2.35,2.35,0,0,0-.64-1.71,5.55,5.55,0,0,0-2.47-1.09l-4.75-1.28A7.18,7.18,0,0,1,135.2,51a6.65,6.65,0,0,1-1.35-4.23A6,6,0,0,1,135,43.15a7.57,7.57,0,0,1,3.27-2.5,11.74,11.74,0,0,1,4.69-.9,10.84,10.84,0,0,1,6.89,2,6.56,6.56,0,0,1,2.49,5.41h-5.45a2.76,2.76,0,0,0-1.1-2.32,4.87,4.87,0,0,0-3-.84,4.1,4.1,0,0,0-2.45.69,2.05,2.05,0,0,0-1,1.76,2.18,2.18,0,0,0,.69,1.63,5.55,5.55,0,0,0,2.27,1.12l4.74,1.38a7.78,7.78,0,0,1,4,2.5A7,7,0,0,1,150,62.78a10.88,10.88,0,0,1-6.86,2A12.69,12.69,0,0,1,138,63.72Z"/><path class="cls-2" d="M158,35.75a4.25,4.25,0,0,1,0-5.86,4.25,4.25,0,0,1,5.92,0,4.25,4.25,0,0,1,0,5.86,4.25,4.25,0,0,1-5.92,0Zm.21,4.62h5.51V64.13h-5.51Z"/><path class="cls-2" d="M170.83,40.37h5.55v3.31a7.62,7.62,0,0,1,3.12-2.91,10,10,0,0,1,4.64-1q4.28,0,6.47,2.4c1.46,1.6,2.2,4,2.2,7V64.13h-5.56V51.74c0-2.58-.39-4.44-1.18-5.56S184,44.5,182,44.5a5.24,5.24,0,0,0-4.18,1.71,7.25,7.25,0,0,0-1.48,4.87v13h-5.55Z"/><path class="cls-2" d="M221.06,54.09H203.41a5.66,5.66,0,0,0,1.84,4.3A7,7,0,0,0,210,59.9a7.23,7.23,0,0,0,3.32-.66,4.67,4.67,0,0,0,2-2H221a8.16,8.16,0,0,1-3.6,5.43A12.46,12.46,0,0,1,210,64.74a11.8,11.8,0,0,1-8.87-3.36q-3.27-3.37-3.26-9.13a14.16,14.16,0,0,1,1.47-6.61,10.49,10.49,0,0,1,4.19-4.36,12.5,12.5,0,0,1,6.27-1.53,12.09,12.09,0,0,1,5.94,1.43,10.17,10.17,0,0,1,4,4A11.84,11.84,0,0,1,221.21,51Q221.21,52.1,221.06,54.09Zm-5.3-4.24a5.74,5.74,0,0,0-1.61-4.23,6.14,6.14,0,0,0-4.41-1.48,6.45,6.45,0,0,0-4.59,1.58,5.61,5.61,0,0,0-1.74,4.13Z"/><path class="cls-2" d="M229.7,63.72a8.62,8.62,0,0,1-3.62-2.83,6.79,6.79,0,0,1-1.3-4h5.56a3,3,0,0,0,1.35,2.5,5.91,5.91,0,0,0,3.5,1,3.81,3.81,0,0,0,2.5-.77,2.52,2.52,0,0,0,.91-2,2.34,2.34,0,0,0-.63-1.71,5.55,5.55,0,0,0-2.48-1.09l-4.74-1.28A7.15,7.15,0,0,1,226.9,51a6.65,6.65,0,0,1-1.35-4.23,6,6,0,0,1,1.17-3.59,7.54,7.54,0,0,1,3.26-2.5,11.79,11.79,0,0,1,4.7-.9,10.79,10.79,0,0,1,6.88,2,6.54,6.54,0,0,1,2.5,5.41H238.6a2.75,2.75,0,0,0-1.09-2.32,4.9,4.9,0,0,0-3-.84,4.14,4.14,0,0,0-2.45.69,2.07,2.07,0,0,0-1,1.76,2.2,2.2,0,0,0,.68,1.63A5.62,5.62,0,0,0,234,49.19l4.75,1.38a7.78,7.78,0,0,1,4,2.5,7,7,0,0,1-1,9.71,10.88,10.88,0,0,1-6.86,2A12.77,12.77,0,0,1,229.7,63.72Z"/><path class="cls-2" d="M253,63.72a8.56,8.56,0,0,1-3.62-2.83,6.73,6.73,0,0,1-1.3-4h5.56a3,3,0,0,0,1.35,2.5,5.88,5.88,0,0,0,3.49,1,3.77,3.77,0,0,0,2.5-.77,2.53,2.53,0,0,0,.92-2,2.31,2.31,0,0,0-.64-1.71,5.5,5.5,0,0,0-2.47-1.09l-4.74-1.28A7.15,7.15,0,0,1,250.21,51a6.6,6.6,0,0,1-1.36-4.23A5.9,5.9,0,0,1,250,43.15a7.54,7.54,0,0,1,3.26-2.5,11.74,11.74,0,0,1,4.69-.9,10.82,10.82,0,0,1,6.89,2,6.57,6.57,0,0,1,2.5,5.41h-5.46a2.76,2.76,0,0,0-1.1-2.32,4.87,4.87,0,0,0-3-.84,4.12,4.12,0,0,0-2.45.69,2.05,2.05,0,0,0-1,1.76,2.18,2.18,0,0,0,.69,1.63,5.62,5.62,0,0,0,2.27,1.12l4.74,1.38a7.78,7.78,0,0,1,4,2.5,7,7,0,0,1-1,9.71,10.9,10.9,0,0,1-6.86,2A12.74,12.74,0,0,1,253,63.72Z"/><path class="cls-2" d="M305.39,41.31a10.38,10.38,0,0,1,4,4.39,14.49,14.49,0,0,1,1.41,6.55,14,14,0,0,1-1.48,6.48,10.91,10.91,0,0,1-4.13,4.43,11.57,11.57,0,0,1-6.07,1.58,9.73,9.73,0,0,1-4.44-1,8,8,0,0,1-3.21-2.78v3.21h-5.51V28.43h5.51V43.58a7.84,7.84,0,0,1,3.31-2.78,10.73,10.73,0,0,1,4.69-1A11.26,11.26,0,0,1,305.39,41.31Zm-2.12,16.37a7.73,7.73,0,0,0,1.94-5.43,7.73,7.73,0,0,0-1.94-5.43,6.48,6.48,0,0,0-5-2.12,6.63,6.63,0,0,0-5.1,2.09,7.74,7.74,0,0,0-1.94,5.46,7.74,7.74,0,0,0,1.94,5.46,6.63,6.63,0,0,0,5.1,2.09A6.48,6.48,0,0,0,303.27,57.68Z"/><path class="cls-2" d="M319.67,63.11a10.36,10.36,0,0,1-4-4.46,14.69,14.69,0,0,1-1.35-6.4,13.92,13.92,0,0,1,1.42-6.35,11.13,11.13,0,0,1,4.11-4.49,11.77,11.77,0,0,1,6.3-1.66,9.42,9.42,0,0,1,4.38,1,7.88,7.88,0,0,1,3.12,2.81V40.37h5.5V64.13h-5.5V60.92a7.57,7.57,0,0,1-3.24,2.78,10,10,0,0,1-4.41,1A11.76,11.76,0,0,1,319.67,63.11Zm12.39-5.45a8.08,8.08,0,0,0,1.81-5.41,8.08,8.08,0,0,0-1.81-5.41,6.49,6.49,0,0,0-5.23-2.14,6.41,6.41,0,0,0-5.07,2.12,7.92,7.92,0,0,0-1.86,5.43,7.92,7.92,0,0,0,1.86,5.43,6.41,6.41,0,0,0,5.07,2.12A6.49,6.49,0,0,0,332.06,57.66Z"/><path class="cls-2" d="M346.31,40.37h5.56v3.31A7.66,7.66,0,0,1,355,40.77a10.07,10.07,0,0,1,4.64-1q4.29,0,6.48,2.4t2.19,7V64.13h-5.55V51.74c0-2.58-.4-4.44-1.18-5.56s-2.12-1.68-4-1.68a5.24,5.24,0,0,0-4.18,1.71,7.25,7.25,0,0,0-1.48,4.87v13h-5.56Z"/><path class="cls-2" d="M386.45,51.74l10.3,12.39h-7.29l-8.77-10.86V64.13h-5.51V28.43h5.51V50.82l9-10.45h7Z"/><path class="cls-2" d="M401.39,35.75a4.25,4.25,0,0,1,0-5.86,4.25,4.25,0,0,1,5.92,0,4.25,4.25,0,0,1,0,5.86,4.25,4.25,0,0,1-5.92,0Zm.21,4.62h5.5V64.13h-5.5Z"/><path class="cls-2" d="M414.24,40.37h5.56v3.31a7.66,7.66,0,0,1,3.11-2.91,10.07,10.07,0,0,1,4.64-1q4.29,0,6.48,2.4t2.19,7V64.13h-5.55V51.74c0-2.58-.4-4.44-1.18-5.56s-2.12-1.68-4-1.68a5.24,5.24,0,0,0-4.18,1.71,7.25,7.25,0,0,0-1.48,4.87v13h-5.56Z"/><path class="cls-2" d="M466.16,40.37V63.11a15.67,15.67,0,0,1-1.09,6.12,9.68,9.68,0,0,1-3.19,4.13c-1.87,1.4-4.59,2.09-8.16,2.09a14.67,14.67,0,0,1-8.37-2.14,8.89,8.89,0,0,1-2.72-2.85,7.31,7.31,0,0,1-1.05-3.62h5.81a4.46,4.46,0,0,0,1.92,3,7.56,7.56,0,0,0,4.36,1.07,7.14,7.14,0,0,0,5.22-1.7q1.71-1.71,1.71-5.64v-2.6a7.17,7.17,0,0,1-3.18,2.78,10,10,0,0,1-4.42,1,11.56,11.56,0,0,1-6.24-1.63,10.63,10.63,0,0,1-4-4.49,14.15,14.15,0,0,1-1.4-6.37,13.59,13.59,0,0,1,1.47-6.32A11.27,11.27,0,0,1,447,41.41a11.58,11.58,0,0,1,6.17-1.66,9.45,9.45,0,0,1,4.38,1,7.45,7.45,0,0,1,3.06,2.81V40.37ZM459,57.63a8.6,8.6,0,0,0,0-10.76,7.1,7.1,0,0,0-10.17,0,7.77,7.77,0,0,0-1.92,5.43,7.77,7.77,0,0,0,1.92,5.43,7.1,7.1,0,0,0,10.17,0Z"/><path class="cls-2" d="M495.05,33.79c-.76.47-1.14,1.48-1.14,3v3.57h6.22V45h-6.22V64.13h-5.56V45H483.5V40.37h4.85V36.9c0-3.33.86-5.63,2.6-6.89a9.18,9.18,0,0,1,5.45-1.88,12.05,12.05,0,0,1,3.73.46v4.69l-1.07-.13a9.51,9.51,0,0,0-1.13-.08A5.35,5.35,0,0,0,495.05,33.79Z"/><path class="cls-2" d="M508,63.11a11,11,0,0,1-4.36-4.49,14.3,14.3,0,0,1,0-12.75A10.93,10.93,0,0,1,508,41.39a14.42,14.42,0,0,1,13.36,0,10.87,10.87,0,0,1,4.36,4.48,14.21,14.21,0,0,1,0,12.75,10.9,10.9,0,0,1-4.36,4.49,14.5,14.5,0,0,1-13.36,0Zm11.81-5.4a7.93,7.93,0,0,0,1.86-5.46,7.93,7.93,0,0,0-1.86-5.46,7.33,7.33,0,0,0-10.25,0,7.93,7.93,0,0,0-1.86,5.46,7.93,7.93,0,0,0,1.86,5.46,7.33,7.33,0,0,0,10.25,0Z"/><path class="cls-2" d="M532.61,40.37h5.56V45a6.11,6.11,0,0,1,2.4-3.65,6.73,6.73,0,0,1,3.93-1.25,9.71,9.71,0,0,1,2.19.2v5.1a21.55,21.55,0,0,0-2.19-.1,5.56,5.56,0,0,0-4.64,2.17,9.88,9.88,0,0,0-1.69,6.2v10.5h-5.56Z"/><path class="cls-2" d="M573,33.79c-.76.47-1.15,1.48-1.15,3v3.57h6.23V45h-6.23V64.13h-5.55V45h-4.85V40.37h4.85V36.9c0-3.33.86-5.63,2.6-6.89a9.18,9.18,0,0,1,5.45-1.88,12.05,12.05,0,0,1,3.73.46v4.69L577,33.15a9.51,9.51,0,0,0-1.13-.08A5.35,5.35,0,0,0,573,33.79Z"/><path class="cls-2" d="M582.44,40.37H588V45a6.11,6.11,0,0,1,2.4-3.65,6.72,6.72,0,0,1,3.92-1.25,9.87,9.87,0,0,1,2.2.2v5.1a21.62,21.62,0,0,0-2.2-.1,5.56,5.56,0,0,0-4.64,2.17,10,10,0,0,0-1.68,6.2v10.5h-5.56Z"/><path class="cls-2" d="M621.71,54.09H604.06a5.66,5.66,0,0,0,1.84,4.3,7,7,0,0,0,4.79,1.51,7.23,7.23,0,0,0,3.32-.66,4.67,4.67,0,0,0,2-2h5.61a8.12,8.12,0,0,1-3.6,5.43,12.46,12.46,0,0,1-7.32,2.11,11.8,11.8,0,0,1-8.87-3.36q-3.27-3.37-3.26-9.13A14,14,0,0,1,600,45.64a10.47,10.47,0,0,1,4.18-4.36,12.5,12.5,0,0,1,6.27-1.53,12.09,12.09,0,0,1,5.94,1.43,10.17,10.17,0,0,1,4,4A11.84,11.84,0,0,1,621.86,51Q621.86,52.1,621.71,54.09Zm-5.3-4.24a5.74,5.74,0,0,0-1.61-4.23,6.14,6.14,0,0,0-4.41-1.48,6.45,6.45,0,0,0-4.59,1.58,5.61,5.61,0,0,0-1.74,4.13Z"/><path class="cls-2" d="M649.1,54.09H631.45a5.66,5.66,0,0,0,1.84,4.3,7,7,0,0,0,4.79,1.51,7.23,7.23,0,0,0,3.32-.66,4.6,4.6,0,0,0,2-2H649a8.16,8.16,0,0,1-3.6,5.43,12.46,12.46,0,0,1-7.32,2.11,11.78,11.78,0,0,1-8.87-3.36q-3.27-3.37-3.27-9.13a14.16,14.16,0,0,1,1.48-6.61,10.53,10.53,0,0,1,4.18-4.36,12.56,12.56,0,0,1,6.28-1.53,12.09,12.09,0,0,1,5.94,1.43,10.08,10.08,0,0,1,4,4A11.84,11.84,0,0,1,649.25,51Q649.25,52.1,649.1,54.09Zm-5.31-4.24a5.74,5.74,0,0,0-1.6-4.23,6.14,6.14,0,0,0-4.41-1.48,6.49,6.49,0,0,0-4.6,1.58,5.57,5.57,0,0,0-1.73,4.13Z"/><path class="cls-2" d="M654.33,63.27a4.19,4.19,0,0,1-1.25-3.06,4.27,4.27,0,0,1,4.28-4.29,4.23,4.23,0,0,1,3.06,1.25,4.09,4.09,0,0,1,1.27,3,4.34,4.34,0,0,1-4.33,4.33A4.07,4.07,0,0,1,654.33,63.27Z"/><path class="cls-2" d="M95.09,119.59H81.37L80,124.13H73.62l12-35.7h5.15l12,35.7H96.47Zm-1.58-5.25-5.3-17.7-5.31,17.7Z"/><path class="cls-2" d="M126.64,101.31a10.38,10.38,0,0,1,4,4.39,14.49,14.49,0,0,1,1.41,6.55,14,14,0,0,1-1.48,6.48,10.91,10.91,0,0,1-4.13,4.43,11.57,11.57,0,0,1-6.07,1.58,9.73,9.73,0,0,1-4.44-1,8,8,0,0,1-3.21-2.78v13.92h-5.51V100.37h5.51v3.21A7.84,7.84,0,0,1,116,100.8a10.73,10.73,0,0,1,4.69-1A11.26,11.26,0,0,1,126.64,101.31Zm-2.12,16.37a8.57,8.57,0,0,0,0-10.86,6.48,6.48,0,0,0-5-2.12,6.63,6.63,0,0,0-5.1,2.09,8.65,8.65,0,0,0,0,10.92,6.63,6.63,0,0,0,5.1,2.09A6.48,6.48,0,0,0,124.52,117.68Z"/><path class="cls-2" d="M156.83,101.31a10.47,10.47,0,0,1,4,4.39,14.62,14.62,0,0,1,1.4,6.55,14,14,0,0,1-1.48,6.48,10.85,10.85,0,0,1-4.13,4.43,11.57,11.57,0,0,1-6.07,1.58,9.76,9.76,0,0,1-4.44-1,8,8,0,0,1-3.21-2.78v13.92h-5.51V100.37h5.51v3.21a7.84,7.84,0,0,1,3.31-2.78,10.77,10.77,0,0,1,4.7-1A11.25,11.25,0,0,1,156.83,101.31Zm-2.12,16.37a8.57,8.57,0,0,0,0-10.86,6.48,6.48,0,0,0-5-2.12,6.66,6.66,0,0,0-5.1,2.09,8.69,8.69,0,0,0,0,10.92,6.66,6.66,0,0,0,5.1,2.09A6.48,6.48,0,0,0,154.71,117.68Z"/><path class="cls-2" d="M167.56,88.43h5.56v35.7h-5.56Z"/><path class="cls-2" d="M202,100.37v23.86q0,5.46-3.11,8.47a11.46,11.46,0,0,1-8.06,2.75q-5.25,0-8.16-2.44a8.12,8.12,0,0,1-2.65-6.17h5.61a4.35,4.35,0,0,0,1.35,3,5.69,5.69,0,0,0,3.75,1,5.36,5.36,0,0,0,4.18-1.7q1.53-1.71,1.53-5.33v-3a7.38,7.38,0,0,1-3.06,2.93,10,10,0,0,1-4.59,1,8,8,0,0,1-6.5-2.72,10.81,10.81,0,0,1-2.27-7.17V100.37h5.56v13.31a7.68,7.68,0,0,0,1.17,4.54,4.59,4.59,0,0,0,4,1.63,4.94,4.94,0,0,0,4.26-2,8.68,8.68,0,0,0,1.45-5.2V100.37Z"/><path class="cls-2" d="M226,123.11a10.9,10.9,0,0,1-4.36-4.49,14.21,14.21,0,0,1,0-12.75,10.87,10.87,0,0,1,4.36-4.48,14.42,14.42,0,0,1,13.36,0,10.93,10.93,0,0,1,4.36,4.48,14.3,14.3,0,0,1,0,12.75,11,11,0,0,1-4.36,4.49,14.5,14.5,0,0,1-13.36,0Zm11.8-5.4a8.91,8.91,0,0,0,0-10.92,7.33,7.33,0,0,0-10.25,0,8.94,8.94,0,0,0,0,10.92,7.33,7.33,0,0,0,10.25,0Z"/><path class="cls-2" d="M250.54,100.37h5.56v3.31a7.59,7.59,0,0,1,3.11-2.91,10,10,0,0,1,4.64-1q4.29,0,6.48,2.4t2.19,7v14.94H267V111.74c0-2.58-.39-4.44-1.17-5.56s-2.13-1.68-4-1.68a5.22,5.22,0,0,0-4.18,1.71,7.2,7.2,0,0,0-1.48,4.87v13h-5.56Z"/><path class="cls-2" d="M279.2,88.43h5.56v35.7H279.2Z"/><path class="cls-2" d="M291.7,95.75a4.23,4.23,0,0,1,0-5.86,4.24,4.24,0,0,1,5.91,0,4.23,4.23,0,0,1,0,5.86,4.24,4.24,0,0,1-5.91,0Zm.2,4.62h5.51v23.76H291.9Z"/><path class="cls-2" d="M304.55,100.37h5.56v3.31a7.53,7.53,0,0,1,3.11-2.91,10,10,0,0,1,4.64-1q4.27,0,6.48,2.4t2.19,7v14.94H321V111.74c0-2.58-.39-4.44-1.17-5.56a4.58,4.58,0,0,0-4-1.68,5.21,5.21,0,0,0-4.18,1.71,7.2,7.2,0,0,0-1.48,4.87v13h-5.56Z"/><path class="cls-2" d="M354.78,114.09H337.14a5.65,5.65,0,0,0,1.83,4.3,7.06,7.06,0,0,0,4.8,1.51,7.19,7.19,0,0,0,3.31-.66,4.67,4.67,0,0,0,2-2h5.61a8.11,8.11,0,0,1-3.59,5.43,12.51,12.51,0,0,1-7.32,2.11,11.82,11.82,0,0,1-8.88-3.36q-3.25-3.37-3.26-9.13a14,14,0,0,1,1.48-6.61,10.47,10.47,0,0,1,4.18-4.36,12.5,12.5,0,0,1,6.27-1.53,12,12,0,0,1,5.94,1.43,10.17,10.17,0,0,1,4,4,11.84,11.84,0,0,1,1.42,5.87Q354.93,112.1,354.78,114.09Zm-5.3-4.24a5.74,5.74,0,0,0-1.61-4.23,6.14,6.14,0,0,0-4.41-1.48,6.45,6.45,0,0,0-4.59,1.58,5.57,5.57,0,0,0-1.73,4.13Z"/><path class="cls-2" d="M372.84,95.75a4.23,4.23,0,0,1,0-5.86,4.24,4.24,0,0,1,5.91,0,4.25,4.25,0,0,1,0,5.86,4.24,4.24,0,0,1-5.91,0Zm.2,4.62h5.51v23.76H373Z"/><path class="cls-2" d="M385.69,100.37h5.56v3.31a7.53,7.53,0,0,1,3.11-2.91,10,10,0,0,1,4.64-1q4.28,0,6.47,2.4t2.2,7v14.94h-5.56V111.74c0-2.58-.39-4.44-1.17-5.56a4.58,4.58,0,0,0-4-1.68,5.24,5.24,0,0,0-4.19,1.71,7.25,7.25,0,0,0-1.47,4.87v13h-5.56Z"/><path class="cls-2" d="M432.86,123.5A10.76,10.76,0,0,1,428.6,120a10,10,0,0,1-1.81-5.13h5.92a4.4,4.4,0,0,0,1.89,3.44,7,7,0,0,0,4.23,1.25,6.44,6.44,0,0,0,5-1.94,7.29,7.29,0,0,0,1.81-5.2,7.63,7.63,0,0,0-1.66-5.15,5.57,5.57,0,0,0-4.46-1.94,8.26,8.26,0,0,0-4.18,1,6.2,6.2,0,0,0-2.55,3.08H427.4V89.45h21.78v5.2H432.71v9q2.66-3.06,7.6-3.06A11.21,11.21,0,0,1,446.1,102a9.73,9.73,0,0,1,3.8,4.08,14.33,14.33,0,0,1-.21,12.45,11.33,11.33,0,0,1-4.36,4.54,12.88,12.88,0,0,1-6.6,1.65A13.66,13.66,0,0,1,432.86,123.5Z"/><path class="cls-2" d="M469.84,100.37h5.56v3.31a6.59,6.59,0,0,1,2.6-2.83,7.55,7.55,0,0,1,4-1.1c3.77,0,6.27,1.42,7.49,4.24a7.05,7.05,0,0,1,2.86-3,8.42,8.42,0,0,1,4.44-1.2q8.56,0,8.56,9.34v15h-5.55v-14a6.73,6.73,0,0,0-1.13-4.29,4,4,0,0,0-3.31-1.37,4.57,4.57,0,0,0-3.67,1.55q-1.34,1.56-1.33,5.49v12.59h-5.56v-14a6.87,6.87,0,0,0-1.07-4.26,3.9,3.9,0,0,0-3.26-1.35,4.72,4.72,0,0,0-3.75,1.55q-1.35,1.56-1.35,5.49v12.59h-5.56Z"/><path class="cls-2" d="M512.06,95.75a4.25,4.25,0,0,1,0-5.86,4.25,4.25,0,0,1,5.92,0,4.25,4.25,0,0,1,0,5.86,4.25,4.25,0,0,1-5.92,0Zm.21,4.62h5.51v23.76h-5.51Z"/><path class="cls-2" d="M524.92,100.37h5.55v3.31a7.62,7.62,0,0,1,3.12-2.91,10,10,0,0,1,4.64-1q4.28,0,6.47,2.4t2.2,7v14.94h-5.56V111.74c0-2.58-.39-4.44-1.18-5.56s-2.12-1.68-4-1.68a5.24,5.24,0,0,0-4.19,1.71,7.25,7.25,0,0,0-1.48,4.87v13h-5.55Z"/><path class="cls-2" d="M555.92,122.35c-1.6-1.6-2.39-3.95-2.39-7V100.37h5.56v13.56a7.62,7.62,0,0,0,1.12,4.54,4.31,4.31,0,0,0,3.72,1.53,5.31,5.31,0,0,0,4.39-1.71,7,7,0,0,0,1.37-4.51V100.37h5.56v23.76h-5.56v-3.31c-1.46,2.62-3.91,3.92-7.34,3.92A8.68,8.68,0,0,1,555.92,122.35Z"/><path class="cls-2" d="M596,119.24v4.89a23.58,23.58,0,0,1-4.13.31,9.34,9.34,0,0,1-5.43-1.56c-1.52-1-2.27-3.3-2.27-6.81V105h-4v-4.64h4V93.18h5.55v7.19h5.46V105h-5.46v9.79a8.59,8.59,0,0,0,.39,3,2.2,2.2,0,0,0,1.12,1.33,4.87,4.87,0,0,0,2,.33A16.84,16.84,0,0,0,596,119.24Z"/><path class="cls-2" d="M622.17,114.09H604.53a5.65,5.65,0,0,0,1.83,4.3,7.06,7.06,0,0,0,4.8,1.51,7.19,7.19,0,0,0,3.31-.66,4.67,4.67,0,0,0,2-2h5.61a8.09,8.09,0,0,1-3.6,5.43,12.45,12.45,0,0,1-7.31,2.11,11.82,11.82,0,0,1-8.88-3.36Q599,118,599,112.25a14,14,0,0,1,1.48-6.61,10.47,10.47,0,0,1,4.18-4.36A12.5,12.5,0,0,1,611,99.75a12,12,0,0,1,5.94,1.43,10.1,10.1,0,0,1,4,4,11.84,11.84,0,0,1,1.43,5.87C622.33,111.74,622.27,112.76,622.17,114.09Zm-5.3-4.24a5.74,5.74,0,0,0-1.61-4.23,6.14,6.14,0,0,0-4.41-1.48,6.45,6.45,0,0,0-4.59,1.58,5.57,5.57,0,0,0-1.73,4.13Z"/><path class="cls-2" d="M630.82,123.72a8.5,8.5,0,0,1-3.62-2.83,6.74,6.74,0,0,1-1.31-4h5.56a3,3,0,0,0,1.35,2.5,5.93,5.93,0,0,0,3.5,1,3.79,3.79,0,0,0,2.5-.77,2.53,2.53,0,0,0,.92-2,2.35,2.35,0,0,0-.64-1.71,5.55,5.55,0,0,0-2.48-1.09l-4.74-1.28A7.18,7.18,0,0,1,628,111a6.65,6.65,0,0,1-1.35-4.23,6,6,0,0,1,1.17-3.59,7.51,7.51,0,0,1,3.27-2.5,11.71,11.71,0,0,1,4.69-.9,10.79,10.79,0,0,1,6.88,2,6.54,6.54,0,0,1,2.5,5.41h-5.45a2.76,2.76,0,0,0-1.1-2.32,4.87,4.87,0,0,0-3-.84,4.1,4.1,0,0,0-2.45.69,2.05,2.05,0,0,0-1,1.76,2.18,2.18,0,0,0,.69,1.63,5.55,5.55,0,0,0,2.27,1.12l4.74,1.38a7.78,7.78,0,0,1,4,2.5,7,7,0,0,1-1,9.71,10.88,10.88,0,0,1-6.86,2A12.69,12.69,0,0,1,630.82,123.72Z"/><path class="cls-2" d="M650.71,123.27a4.19,4.19,0,0,1-1.25-3.06,4.27,4.27,0,0,1,4.28-4.29,4.23,4.23,0,0,1,3.06,1.25,4.1,4.1,0,0,1,1.28,3,4.35,4.35,0,0,1-4.34,4.33A4.07,4.07,0,0,1,650.71,123.27Z"/></svg>