<svg xmlns="http://www.w3.org/2000/svg" viewBox="0 0 175 175"><defs><style>.cls-1{isolation:isolate;}.cls-2,.cls-6{fill:#fff;}.cls-3{fill:#005295;}.cls-4{fill:#fe502a;}.cls-5{fill:#323841;}.cls-6{opacity:0.5;mix-blend-mode:soft-light;}.cls-7{fill:#b1b1b1;}.cls-11,.cls-14,.cls-7{mix-blend-mode:multiply;}.cls-8{fill:#d9d9d9;}.cls-9{fill:#4f4f4e;}.cls-10{fill:#7f9f8e;}.cls-12{fill:#1d1d1b;}.cls-13{fill:#3c3c3b;}.cls-14{fill:#9c9b9b;}.cls-15{fill:#c6c6c5;}.cls-16{fill:#e64645;}.cls-17{fill:#667183;}</style></defs><title>nbkc-July-Adulting 1- Loan Officer-parts</title><g class="cls-1"><g id="Layer_1" data-name="Layer 1"><path class="cls-2" d="M107.05,31.09l-2,10.13s1.12,5.19,6.85,1.34S118,23.71,107.05,31.09Z"/><path class="cls-2" d="M105.5,30.78l-2,10.13s-3,4.39-6.85-1.34S98.12,19.81,105.5,30.78Z"/><circle class="cls-3" cx="105.3" cy="35.56" r="4.73"/><rect class="cls-4" width="175" height="175"/><path class="cls-5" d="M41.39,58.61v89.71a3.36,3.36,0,0,0,3.36,3.36h84a3.36,3.36,0,0,0,3.36-3.36V58.61Z"/><path class="cls-6" d="M58.28,67.9c.48,2.37.92,4.77,1.52,7.12a75.82,75.82,0,0,0,5.93,15.46c1.47,2.91,3.07,5.76,4.81,8.52a48.37,48.37,0,0,0,5.06,7.07,42.19,42.19,0,0,0,12.91,9.3,61.7,61.7,0,0,0,28.82,6.23,66.81,66.81,0,0,0,10.52-1.3V62.1H57.65A21.33,21.33,0,0,0,58.28,67.9Z"/><path class="cls-7" d="M83,128.86a58.24,58.24,0,0,1-16.76-11C61,112.68,57.11,106.09,53.6,99.66a104.71,104.71,0,0,1-9.47-22.73c-1-3.58-1.69-7.24-2.39-10.88-.12-.63-.24-1.26-.35-1.9v84.17a3.36,3.36,0,0,0,3.36,3.36h84a3.36,3.36,0,0,0,3.36-3.36V134.61A81.07,81.07,0,0,1,83,128.86Z"/><path class="cls-5" d="M132.32,58.61l4-31.7a3.63,3.63,0,0,0-3.66-3.59H41.13a3.63,3.63,0,0,0-3.66,3.59l4,31.7Z"/><path class="cls-6" d="M113.75,31c-8.54-.91-17.18,0-25.69.89a46.48,46.48,0,0,0-18,5.37A40.94,40.94,0,0,0,56.89,48.89a47.81,47.81,0,0,0-5.38,9.72h80.81L134.8,39C128.12,35.36,121.34,31.75,113.75,31Z"/><path class="cls-7" d="M63.39,39.5a43.67,43.67,0,0,1,15.8-7.93c6.28-1.68,13-2.1,19.45-2.53,6.86-.45,14.09-.68,20.8,1.08C124.91,31.56,130,34.27,135,37l1.27-10.09a3.63,3.63,0,0,0-3.66-3.59H41.13a3.63,3.63,0,0,0-3.66,3.59l4,31.7h8.09A45.39,45.39,0,0,1,63.39,39.5Z"/><path class="cls-8" d="M124.33,50.49A3.37,3.37,0,0,1,121,53.85H52.31A3.37,3.37,0,0,1,49,50.49l-2.24-19a3.36,3.36,0,0,1,3.36-3.36h73.65a3.37,3.37,0,0,1,3.36,3.36Z"/><path class="cls-9" d="M121.78,49a2.54,2.54,0,0,1-2.54,2.54h-65A2.54,2.54,0,0,1,51.73,49L50,33a2.54,2.54,0,0,1,2.54-2.54h68.74A2.54,2.54,0,0,1,123.86,33Z"/><path class="cls-10" d="M121.13,49a2.47,2.47,0,0,1-2.47,2.47H54.86A2.46,2.46,0,0,1,52.4,49L50.75,34a2.46,2.46,0,0,1,2.47-2.47h67.46A2.46,2.46,0,0,1,123.14,34Z"/><g class="cls-11"><path class="cls-8" d="M57.31,37.5v3l-.94.95-.32-.32V37Zm-1.26,8.68V42.07l.32-.31.94.94v3Zm5.52,1.1H56.84a1,1,0,0,1-.79-.79L57.31,46H61.1Zm-.47-10.1H57.33l-1.26-.47a1,1,0,0,1,.79-.79h4.71Zm.32,3.31V37.18l.47-1.26a1,1,0,0,1,.79.79v4.41l-.32.32Zm.94,1.27.32.31v4.42a1,1,0,0,1-.79.79L61.42,46V42.7Z"/><path class="cls-8" d="M64.26,41.44l-.32-.32V37.5l.79-.79.47.47v3.31Zm.94,1.26V46l-.47.47-.79-.79V42.07l.32-.31ZM69,37.18H65.52l-.63-.63.63-.63H69l.63.63Zm.63,9.47-.63.63H65.52l-.63-.63.63-.63H69Zm-.31-6.16V37.18l.47-.47.79.79v3.62l-.32.32Zm.94,1.27.32.31V45.7l-.79.79L69.31,46V42.7Z"/><path class="cls-8" d="M72.15,41.44l-.32-.32V37.5l.79-.79.47.47v3.31Zm.94,1.26V46l-.47.47-.79-.79V42.07l.32-.31Zm3.79-5.52H73.41l-.63-.63.63-.63h3.47l.63.63Zm.63,9.47-.63.63H73.41l-.63-.63.63-.63h3.47Zm-.31-6.16V37.18l.47-.47.79.79v3.62l-.32.32Zm.94,1.27.32.31V45.7l-.79.79L77.2,46V42.7Z"/><path class="cls-8" d="M81,37.5v3l-.94.95-.32-.32V37Zm-1.26,8.68V42.07l.32-.31.94.94v3Zm5.53,1.1H80.51a1,1,0,0,1-.79-.79L81,46h3.79Zm-.48-10.1H81l-1.26-.47a1,1,0,0,1,.79-.79h4.72Zm.32,3.31V37.18l.47-1.26a1,1,0,0,1,.79.79v4.41l-.32.32ZM86,41.76l.32.31v4.42a1,1,0,0,1-.79.79L85.09,46V42.7Z"/><path class="cls-8" d="M88.87,37.5v3l-.94.95-.32-.32V37Zm-1.26,8.68V42.07l.32-.31.94.94v3Zm5.53,1.1H88.4a1,1,0,0,1-.79-.79L88.87,46h3.79Zm-.48-10.1H88.89l-1.26-.47a1,1,0,0,1,.79-.79h4.72ZM93,40.49V37.18l.47-1.26a1,1,0,0,1,.79.79v4.41l-.32.32Zm.94,1.27.32.31v4.42a1,1,0,0,1-.79.79L93,46V42.7Z"/><path class="cls-8" d="M96.77,37.5v3l-1,.95-.32-.32V37ZM95.5,46.18V42.07l.32-.31,1,.94v3Zm5.53,1.1H96.29a1,1,0,0,1-.79-.79L96.77,46h3.78Zm-.48-10.1H96.78l-1.26-.47a1,1,0,0,1,.79-.79H101Zm.32,3.31V37.18l.47-1.26a1,1,0,0,1,.79.79v4.41l-.32.32Zm.94,1.27.32.31v4.42a1,1,0,0,1-.79.79L100.87,46V42.7Z"/><path class="cls-8" d="M104.66,37.5v3l-1,.95-.32-.32V37Zm-1.27,8.68V42.07l.32-.31,1,.94v3Zm5.53,1.1h-4.74a1,1,0,0,1-.79-.79l1.27-.47h3.78Zm-.48-10.1h-3.77l-1.26-.47a1,1,0,0,1,.79-.79h4.72Zm.32,3.31V37.18l.47-1.26a1,1,0,0,1,.79.79v4.41l-.32.32Zm.94,1.27.32.31v4.42a1,1,0,0,1-.79.79L108.76,46V42.7Z"/><path class="cls-8" d="M112.55,37.5v3l-1,.95-.32-.32V37Zm-1.27,8.68V42.07l.32-.31,1,.94v3Zm5.53,1.1h-4.74a1,1,0,0,1-.79-.79l1.27-.47h3.78Zm-.48-10.1h-3.77l-1.26-.47a1,1,0,0,1,.79-.79h4.72Zm.32,3.31V37.18l.47-1.26a1,1,0,0,1,.79.79v4.41l-.31.32Zm.95,1.27.31.31v4.42a1,1,0,0,1-.79.79L116.65,46V42.7Z"/></g><rect class="cls-12" x="50.04" y="59.45" width="30.24" height="9.52"/><rect class="cls-13" x="57.06" y="59.45" width="0.56" height="9.52"/><rect class="cls-13" x="64.88" y="59.45" width="0.56" height="9.52"/><rect class="cls-13" x="72.69" y="59.45" width="0.56" height="9.52"/><rect class="cls-14" x="51.44" y="78" width="14.65" height="10.78" rx="0.77"/><rect class="cls-15" x="50.04" y="76.74" width="14.65" height="10.78" rx="0.77"/><rect class="cls-14" x="72.3" y="78" width="14.65" height="10.78" rx="0.77"/><rect class="cls-15" x="70.9" y="76.74" width="14.65" height="10.78" rx="0.77"/><rect class="cls-14" x="91.34" y="78" width="14.65" height="10.78" rx="0.77"/><rect class="cls-15" x="89.94" y="76.74" width="14.65" height="10.78" rx="0.77"/><rect class="cls-14" x="110.47" y="78" width="14.65" height="10.78" rx="0.77"/><rect class="cls-16" x="109.07" y="76.74" width="14.65" height="10.78" rx="0.77"/><rect class="cls-14" x="51.44" y="94.71" width="14.65" height="10.78" rx="0.77"/><rect class="cls-15" x="50.04" y="93.44" width="14.65" height="10.78" rx="0.77"/><rect class="cls-14" x="72.3" y="94.71" width="14.65" height="10.78" rx="0.77"/><rect class="cls-15" x="70.9" y="93.44" width="14.65" height="10.78" rx="0.77"/><rect class="cls-14" x="91.34" y="94.71" width="14.65" height="10.78" rx="0.77"/><rect class="cls-15" x="89.94" y="93.44" width="14.65" height="10.78" rx="0.77"/><rect class="cls-14" x="110.47" y="94.71" width="14.65" height="10.78" rx="0.77"/><rect class="cls-17" x="109.07" y="93.44" width="14.65" height="10.78" rx="0.77"/><rect class="cls-14" x="51.44" y="111.41" width="14.65" height="10.78" rx="0.77"/><rect class="cls-15" x="50.04" y="110.15" width="14.65" height="10.78" rx="0.77"/><rect class="cls-14" x="72.3" y="111.41" width="14.65" height="10.78" rx="0.77"/><rect class="cls-15" x="70.9" y="110.15" width="14.65" height="10.78" rx="0.77"/><rect class="cls-14" x="91.34" y="111.41" width="14.65" height="10.78" rx="0.77"/><rect class="cls-15" x="89.94" y="110.15" width="14.65" height="10.78" rx="0.77"/><rect class="cls-14" x="110.47" y="111.41" width="14.65" height="10.78" rx="0.77"/><rect class="cls-17" x="109.07" y="110.15" width="14.65" height="10.78" rx="0.77"/><rect class="cls-14" x="51.44" y="128.11" width="14.65" height="10.78" rx="0.77"/><rect class="cls-15" x="50.04" y="126.85" width="14.65" height="10.78" rx="0.77"/><rect class="cls-14" x="72.3" y="128.11" width="14.65" height="10.78" rx="0.77"/><rect class="cls-15" x="70.9" y="126.85" width="14.65" height="10.78" rx="0.77"/><rect class="cls-14" x="91.34" y="128.11" width="14.65" height="10.78" rx="0.77"/><rect class="cls-17" x="89.94" y="126.85" width="14.65" height="10.78" rx="0.77"/><rect class="cls-14" x="110.47" y="128.11" width="14.65" height="10.78" rx="0.77"/><rect class="cls-17" x="109.07" y="126.85" width="14.65" height="10.78" rx="0.77"/><path class="cls-12" d="M58.82,78.9v1.53l-1.12,5.5H56l1.25-5.77H55.47V78.9Z"/><path class="cls-12" d="M79.59,81.59a1.3,1.3,0,0,1,.6.47,3.39,3.39,0,0,1,.2,1.48,3.56,3.56,0,0,1-.16,1.25,1.36,1.36,0,0,1-.64.66,2.62,2.62,0,0,1-1.28.26,2.55,2.55,0,0,1-1.24-.25,1.46,1.46,0,0,1-.65-.65,3.23,3.23,0,0,1-.2-1.36,5.13,5.13,0,0,1,.1-1.11,1.11,1.11,0,0,1,.61-.75,1,1,0,0,1-.49-.5,1.94,1.94,0,0,1-.16-.86,1.76,1.76,0,0,1,.5-1.36,2.21,2.21,0,0,1,1.51-.45,2.12,2.12,0,0,1,1.6.48,1.93,1.93,0,0,1,.44,1.37,1.83,1.83,0,0,1-.14.82A1.49,1.49,0,0,1,79.59,81.59Zm-1,1.41a1.2,1.2,0,0,0-.08-.53.28.28,0,0,0-.26-.13.27.27,0,0,0-.25.12A1.25,1.25,0,0,0,78,83v.92a1.19,1.19,0,0,0,.09.58.27.27,0,0,0,.26.13.26.26,0,0,0,.26-.13,1.84,1.84,0,0,0,.06-.6Zm0-2.92a1.17,1.17,0,0,0-.07-.47.25.25,0,0,0-.24-.11.24.24,0,0,0-.23.12,1.2,1.2,0,0,0-.06.46v.54a.88.88,0,0,0,.07.43.23.23,0,0,0,.23.13.25.25,0,0,0,.24-.12,1.34,1.34,0,0,0,.06-.5Z"/><path class="cls-12" d="M95.29,83.71H97c0,.33,0,.53,0,.62a.31.31,0,0,0,.11.21.35.35,0,0,0,.25.09.36.36,0,0,0,.23-.08.33.33,0,0,0,.09-.21c0-.09,0-.27,0-.53V82.69a.8.8,0,0,1-.39.42,1.26,1.26,0,0,1-.64.15,1.45,1.45,0,0,1-.85-.26,1.13,1.13,0,0,1-.47-.63,3.68,3.68,0,0,1-.1-1v-.56a7.26,7.26,0,0,1,.06-1.1,1.45,1.45,0,0,1,.3-.67,1.53,1.53,0,0,1,.67-.47,2.59,2.59,0,0,1,1-.17,2.91,2.91,0,0,1,1.15.19,1.58,1.58,0,0,1,.7.56,1.66,1.66,0,0,1,.29.77c0,.27,0,.79,0,1.57v1c0,.84,0,1.4,0,1.68a1.55,1.55,0,0,1-.3.8,1.7,1.7,0,0,1-.72.57,2.86,2.86,0,0,1-1.06.19,2.66,2.66,0,0,1-1.21-.24,1.49,1.49,0,0,1-.68-.68A2.62,2.62,0,0,1,95.29,83.71ZM97,81.52c0,.29,0,.48.12.55a.32.32,0,0,0,.23.1.3.3,0,0,0,.27-.13,1,1,0,0,0,.08-.52V80.25a1.39,1.39,0,0,0-.08-.61.26.26,0,0,0-.26-.14.33.33,0,0,0-.24.11c-.08.07-.12.27-.12.59Z"/><path class="cls-12" d="M59.31,95.53v4.6h.5v1.19h-.5v1.24H57.55v-1.24H55.47v-1.19L57,95.53Zm-1.76,4.6v-3l-.77,3Z"/><path class="cls-12" d="M58.44,112.22v7H56.68v-3.77a6,6,0,0,0,0-1,.35.35,0,0,0-.21-.25,2.45,2.45,0,0,0-.78-.08h-.18v-.82a3.16,3.16,0,0,0,1.93-1.13Z"/><path class="cls-12" d="M59.87,131.13v2.34a5.32,5.32,0,0,1-.09,1.16,1.6,1.6,0,0,1-.36.68,1.44,1.44,0,0,1-.66.46,2.58,2.58,0,0,1-.86.14,3.15,3.15,0,0,1-1-.15,1.37,1.37,0,0,1-.66-.45,1.88,1.88,0,0,1-.35-.65,4,4,0,0,1-.11-1.08v-2.45a4.71,4.71,0,0,1,.17-1.45,1.43,1.43,0,0,1,.66-.78,2.41,2.41,0,0,1,1.21-.29,2.59,2.59,0,0,1,1,.2,1.75,1.75,0,0,1,.68.5,1.7,1.7,0,0,1,.31.65A6.3,6.3,0,0,1,59.87,131.13Zm-1.76-.6a2.56,2.56,0,0,0,0-.7.24.24,0,0,0-.25-.14.25.25,0,0,0-.26.15,2.38,2.38,0,0,0-.06.69V134a2.64,2.64,0,0,0,0,.74.25.25,0,0,0,.26.13.24.24,0,0,0,.25-.15,2.22,2.22,0,0,0,.06-.66Z"/><path class="cls-12" d="M78,131.13v2.34a5.32,5.32,0,0,1-.09,1.16,1.41,1.41,0,0,1-.36.68,1.44,1.44,0,0,1-.66.46,2.54,2.54,0,0,1-.86.14,3.15,3.15,0,0,1-1-.15,1.47,1.47,0,0,1-.66-.45,2.06,2.06,0,0,1-.35-.65,4,4,0,0,1-.11-1.08v-2.45a4.71,4.71,0,0,1,.17-1.45,1.41,1.41,0,0,1,.67-.78,2.37,2.37,0,0,1,1.2-.29,2.56,2.56,0,0,1,1,.2,1.67,1.67,0,0,1,.68.5,1.45,1.45,0,0,1,.31.65A6.3,6.3,0,0,1,78,131.13Zm-1.75-.6a2.42,2.42,0,0,0-.06-.7.24.24,0,0,0-.25-.14.25.25,0,0,0-.26.15,2.38,2.38,0,0,0-.06.69V134a2.48,2.48,0,0,0,.06.74.24.24,0,0,0,.25.13.25.25,0,0,0,.26-.15,2.22,2.22,0,0,0,.06-.66Z"/><path class="cls-12" d="M82.79,131.13v2.34a5.32,5.32,0,0,1-.09,1.16,1.6,1.6,0,0,1-.36.68,1.44,1.44,0,0,1-.66.46,2.63,2.63,0,0,1-.86.14,3.15,3.15,0,0,1-1-.15,1.37,1.37,0,0,1-.66-.45,1.91,1.91,0,0,1-.36-.65,4.56,4.56,0,0,1-.1-1.08v-2.45a4.71,4.71,0,0,1,.17-1.45,1.43,1.43,0,0,1,.66-.78,2.38,2.38,0,0,1,1.21-.29,2.59,2.59,0,0,1,1,.2,1.75,1.75,0,0,1,.68.5,1.7,1.7,0,0,1,.31.65A6.3,6.3,0,0,1,82.79,131.13Zm-1.76-.6a2.56,2.56,0,0,0,0-.7.24.24,0,0,0-.25-.14.25.25,0,0,0-.26.15,2.26,2.26,0,0,0-.07.69V134a2.48,2.48,0,0,0,.06.74.25.25,0,0,0,.26.13.24.24,0,0,0,.25-.15A2.22,2.22,0,0,0,81,134Z"/><path class="cls-2" d="M98.79,128.61l-2.08,7.3H95.38l2.09-7.3Z"/><path class="cls-2" d="M112.64,130.58h7.51V132h-7.51Zm0,2.2h7.51v1.4h-7.51Z"/><path class="cls-2" d="M118.86,112.09l-.87,3.42,1.05,3.74h-2.12c-.21-.94-.37-1.76-.48-2.44-.14.85-.3,1.67-.47,2.44h-1.82l.94-3.74-.94-3.42H116c.29,1.46.45,2.29.47,2.49q.32-1.83.48-2.49Z"/><path class="cls-2" d="M113.06,81.25h2.63V78.61h1.79v2.64h2.65V83h-2.65v2.62h-1.79V83h-2.63Z"/><path class="cls-2" d="M119.59,98v1.89H113.2V98Z"/><path class="cls-12" d="M80,118.05v1.2H76.17v-1c1.14-1.87,1.82-3,2-3.47a2.73,2.73,0,0,0,.32-1,.74.74,0,0,0-.1-.43.34.34,0,0,0-.3-.14.31.31,0,0,0-.29.16,1.23,1.23,0,0,0-.1.62v.67H76.17v-.26a5.68,5.68,0,0,1,.06-.93,1.6,1.6,0,0,1,.3-.67,1.45,1.45,0,0,1,.62-.5,2.27,2.27,0,0,1,.91-.17,2.19,2.19,0,0,1,1.59.52,1.76,1.76,0,0,1,.53,1.31,3.17,3.17,0,0,1-.3,1.28,24.71,24.71,0,0,1-1.78,2.85Z"/><path class="cls-12" d="M98.93,115.27a1.11,1.11,0,0,1,.6.44,3.23,3.23,0,0,1,.19,1.43,3.52,3.52,0,0,1-.19,1.31,1.4,1.4,0,0,1-.66.7,2.61,2.61,0,0,1-1.2.24,2.55,2.55,0,0,1-1.31-.28,1.36,1.36,0,0,1-.62-.69,4.53,4.53,0,0,1-.15-1.4v-.56h1.75v1.14a2.09,2.09,0,0,0,0,.58.24.24,0,0,0,.24.12.26.26,0,0,0,.27-.15,2.66,2.66,0,0,0,.07-.82v-.48a1.42,1.42,0,0,0-.09-.59.44.44,0,0,0-.27-.25,2.92,2.92,0,0,0-.69-.07v-1a3.93,3.93,0,0,0,.77,0,.36.36,0,0,0,.21-.21,1.32,1.32,0,0,0,.07-.51v-.39a1,1,0,0,0-.08-.48.26.26,0,0,0-.23-.12.25.25,0,0,0-.25.12,1.24,1.24,0,0,0-.07.53v.58H95.59v-.6a1.62,1.62,0,0,1,.46-1.36,2.36,2.36,0,0,1,1.46-.35,2.26,2.26,0,0,1,1.7.49,1.92,1.92,0,0,1,.45,1.36,1.8,1.8,0,0,1-.16.85A1.57,1.57,0,0,1,98.93,115.27Z"/><path class="cls-12" d="M80.07,95.53v1.13H77.9v1.19a1.31,1.31,0,0,1,1-.48,1.4,1.4,0,0,1,1.09.41,2.36,2.36,0,0,1,.38,1.56v1a5.54,5.54,0,0,1-.08,1.09,1.49,1.49,0,0,1-.3.65,1.54,1.54,0,0,1-.66.46,3,3,0,0,1-1,.16,2.78,2.78,0,0,1-1.19-.24,1.37,1.37,0,0,1-.73-.71,3.51,3.51,0,0,1-.22-1.45v-.38H78v.44a7,7,0,0,0,0,1,.31.31,0,0,0,.33.29.26.26,0,0,0,.21-.09.31.31,0,0,0,.09-.18c0-.06,0-.34,0-.82v-1.4a1.32,1.32,0,0,0-.08-.54.3.3,0,0,0-.27-.14.3.3,0,0,0-.31.23,1.6,1.6,0,0,0,0,.4H76.24l.07-3.55Z"/><path class="cls-12" d="M85.07,40.49V37.18l.48-1.26a1,1,0,0,1,.79.79v4.42l-.32.31Zm1,1.27.32.31v4.42a1,1,0,0,1-.79.79L85.07,46V42.7Z"/><path class="cls-12" d="M91.54,47.28H90.28V46h1.26Z"/><path class="cls-12" d="M96.75,37v3.47l-.94.95-.32-.31V36.55ZM100.86,41l.63.63-.63.63H96.75l-.63-.63.63-.63Zm0-.48V37.18l.47-1.26a1,1,0,0,1,.79.79v4.42l-.32.31Zm.94,1.27.32.31v4.42a1,1,0,0,1-.79.79L100.86,46V42.7Z"/><path class="cls-12" d="M103.38,46.18V42.07l.32-.31.94.94v3Zm6,1.1h-5.21a1,1,0,0,1-.79-.79l1.26-.47h4.26Zm-.95-10.1h-3.77l-1.26-.47a1,1,0,0,1,.79-.79h4.71Zm.32,3.79.63.63-.63.63h-4.11L104,41.6l.63-.63Zm0-.48V37.18l.47-1.26a1,1,0,0,1,.79.79v4.42l-.32.31Z"/><path class="cls-12" d="M112.53,37.5v3l-.94.95-.32-.31V37Zm4.26,9.78h-4.73a1,1,0,0,1-.79-.79l1.26-.47h3.79Zm0-10.1h-4.24l-1.26-.47a1,1,0,0,1,.79-.79h5.19ZM116.64,41l.63.63-.63.63h-4.11l-.63-.63.63-.63Zm.94.79.32.31v4.42a1,1,0,0,1-.79.79L116.64,46V42.7Z"/><path class="cls-12" d="M99.5,97.4H97.74c0-.33,0-.53,0-.62a.3.3,0,0,0-.1-.21.35.35,0,0,0-.25-.09.36.36,0,0,0-.23.08.41.41,0,0,0-.1.22c0,.08,0,.26,0,.52v1.12a.86.86,0,0,1,.4-.42,1.24,1.24,0,0,1,.64-.14,1.4,1.4,0,0,1,.85.26,1.12,1.12,0,0,1,.47.62,4.19,4.19,0,0,1,.1,1v.56a7.2,7.2,0,0,1-.06,1.09,1.41,1.41,0,0,1-.3.67,1.61,1.61,0,0,1-.67.48,2.79,2.79,0,0,1-1,.17,3,3,0,0,1-1.16-.2,1.55,1.55,0,0,1-.69-.56,1.66,1.66,0,0,1-.29-.77c0-.27,0-.79,0-1.57v-1q0-1.26,0-1.68a1.66,1.66,0,0,1,.31-.8,1.59,1.59,0,0,1,.72-.57,2.87,2.87,0,0,1,1.06-.18,2.84,2.84,0,0,1,1.21.23,1.42,1.42,0,0,1,.67.68A2.49,2.49,0,0,1,99.5,97.4Zm-1.76,2.19a1,1,0,0,0-.08-.51.28.28,0,0,0-.27-.14.29.29,0,0,0-.26.13,1,1,0,0,0-.09.52v1.27a1.52,1.52,0,0,0,.08.61.28.28,0,0,0,.27.15.35.35,0,0,0,.23-.12c.08-.07.12-.27.12-.59Z"/></g></g></svg>