<svg id="Layer_1" data-name="Layer 1" xmlns="http://www.w3.org/2000/svg" viewBox="0 0 175 175"><defs><style>.cls-1{fill:#1fbbdb;}.cls-2{fill:#fff;}.cls-3,.cls-4{fill:#005295;}.cls-4{font-size:68.7px;font-family:ProspectusM-Bld, Prospectus Pro M;}.cls-5{letter-spacing:0em;}.cls-6{letter-spacing:0em;}</style></defs><title>nbkc-July-Adulting 1- Loan Officer-parts</title><rect class="cls-1" width="175" height="175"/><path class="cls-2" d="M79.13,39.66a4.8,4.8,0,0,0-4.79-4s-8-.08-10.61,0c-1.1,0-3.84.17-4.42-.27A1.12,1.12,0,0,1,58.85,34a37,37,0,0,1,2.83-7.18c1.29-2.68,1.65-11.6-.47-13.07A4.67,4.67,0,0,0,54.72,15L53,21A21.57,21.57,0,0,1,50,27.61l-3.17,4.58c-.68,1-3.35,4.1-4.85,5.84a4.29,4.29,0,0,0-1,2.8l-.06,21.71a2.91,2.91,0,0,0,2.08,2.79L49,67.11l14.64,0H66.8a4.93,4.93,0,0,0,4.77-3.36,4.56,4.56,0,0,0-.13-3,4.64,4.64,0,0,0,2.07-7.94,4.67,4.67,0,0,0,3.77-4.57,4.62,4.62,0,0,0-1.53-3.45A4.65,4.65,0,0,0,79.13,39.66Z"/><rect class="cls-3" x="14.7" y="43.84" width="30.08" height="17.01" rx="1.72" transform="translate(-22.68 81.95) rotate(-89.85)"/><path class="cls-2" d="M166.64,123.32a4.78,4.78,0,0,0-4.79-4s-7.95-.09-10.6,0c-1.11,0-3.84.16-4.43-.28a1.12,1.12,0,0,1-.46-1.36,36.48,36.48,0,0,1,2.84-7.18c1.29-2.68,1.65-11.6-.47-13.07a4.67,4.67,0,0,0-6.5,1.18l-1.68,6.09a21.54,21.54,0,0,1-3.08,6.56l-3.17,4.58c-.68,1-3.35,4.11-4.85,5.85a4.35,4.35,0,0,0-1,2.8l0,21.71a2.88,2.88,0,0,0,2.08,2.79l6.08,1.78,14.64,0h3.15a4.94,4.94,0,0,0,4.77-3.37,4.47,4.47,0,0,0-.13-3,4.64,4.64,0,0,0,2.07-7.94,4.65,4.65,0,0,0,2.24-8A4.66,4.66,0,0,0,166.64,123.32Z"/><rect class="cls-3" x="102.21" y="127.5" width="30.08" height="17.01" rx="1.72" transform="translate(-19.07 252.91) rotate(-89.85)"/><path class="cls-2" d="M119.31,123.32a4.79,4.79,0,0,0-4.79-4s-8-.09-10.6,0c-1.11,0-3.84.16-4.43-.28a1.12,1.12,0,0,1-.46-1.36,36.48,36.48,0,0,1,2.84-7.18c1.29-2.68,1.65-11.6-.47-13.07a4.67,4.67,0,0,0-6.5,1.18l-1.68,6.09a21.54,21.54,0,0,1-3.08,6.56L87,115.85c-.68,1-3.35,4.11-4.85,5.85a4.35,4.35,0,0,0-1,2.8l0,21.71A2.88,2.88,0,0,0,83.11,149l6.08,1.78,14.64,0H107a4.94,4.94,0,0,0,4.77-3.37,4.47,4.47,0,0,0-.13-3,4.64,4.64,0,0,0,2.07-7.94,4.65,4.65,0,0,0,2.24-8A4.66,4.66,0,0,0,119.31,123.32Z"/><rect class="cls-3" x="54.88" y="127.5" width="30.08" height="17.01" rx="1.72" transform="translate(-66.27 205.58) rotate(-89.85)"/><path class="cls-2" d="M72,123.32a4.79,4.79,0,0,0-4.79-4s-7.95-.09-10.6,0c-1.11,0-3.84.16-4.43-.28a1.12,1.12,0,0,1-.46-1.36,37,37,0,0,1,2.83-7.18c1.3-2.68,1.66-11.6-.46-13.07a4.67,4.67,0,0,0-6.5,1.18l-1.68,6.09a21.54,21.54,0,0,1-3.08,6.56l-3.17,4.58c-.68,1-3.35,4.11-4.85,5.85a4.35,4.35,0,0,0-1,2.8l0,21.71A2.88,2.88,0,0,0,35.78,149l6.08,1.78,14.64,0h3.15a4.94,4.94,0,0,0,4.77-3.37,4.47,4.47,0,0,0-.13-3,4.64,4.64,0,0,0,2.07-7.94,4.65,4.65,0,0,0,2.24-8A4.66,4.66,0,0,0,72,123.32Z"/><rect class="cls-3" x="7.55" y="127.5" width="30.08" height="17.01" rx="1.72" transform="translate(-113.48 158.25) rotate(-89.85)"/><text class="cls-4" transform="translate(87.5 69.44) scale(1 0.99)">v<tspan class="cls-5" x="34.28" y="0">s</tspan><tspan class="cls-6" x="64.44" y="0">.</tspan></text></svg>