<svg id="Layer_1" data-name="Layer 1" xmlns="http://www.w3.org/2000/svg" viewBox="0 0 173.97 173.97"><defs><style>.cls-1{fill:#1075f1;}.cls-2{fill:#fff;}.cls-3{fill:#bbbdbf;}.cls-4{fill:#37b34a;}.cls-5{fill:#c3996b;}.cls-6{fill:#a87c4f;}.cls-7{fill:#8a5d3b;}.cls-8{fill:#efc7af;}.cls-9{fill:#cda18b;opacity:0.43;}.cls-10{fill:#f1f1f2;}.cls-11{fill:#404041;}</style></defs><title>nbkc-July-Adulting 1- Loan Officer-parts</title><rect class="cls-1" width="173.97" height="173.97"/><path class="cls-2" d="M139.5,146.75H34.69Q44.85,91.25,55,35.76h64.23Q129.37,91.26,139.5,146.75Z"/><path class="cls-3" d="M110.65,45.7H64.35l.4-3.2h45.49C110.4,43.78,110.49,44.42,110.65,45.7Z"/><path class="cls-3" d="M119.11,52H56.18l.17-1.09h62.58Z"/><path class="cls-3" d="M104.57,55.87h-49c.07-.44.11-.65.18-1.09h48.74Z"/><path class="cls-3" d="M116.48,59.78H54.92c.07-.44.11-.66.18-1.09h61.22Z"/><path class="cls-3" d="M121.06,63.67H54.29c.08-.44.11-.66.18-1.09h66.41Z"/><path class="cls-3" d="M124,81.24H51.46c.07-.43.11-.65.18-1.09h72.17Z"/><path class="cls-3" d="M107.18,85.13H50.84L51,84h56.08Z"/><path class="cls-3" d="M120.78,89H50.21L50.38,88h70.24C120.68,88.39,120.72,88.61,120.78,89Z"/><path class="cls-3" d="M73.58,92.93h-24c.07-.43.11-.65.18-1.09H73.64Z"/><path class="cls-3" d="M96.36,102.76H48.68l.17-1.09H96.32C96.33,102.11,96.34,102.32,96.36,102.76Z"/><path class="cls-3" d="M109.8,106.65H48.06l.18-1.09H109.7Z"/><path class="cls-3" d="M124.65,110.56H47.44c.07-.44.11-.65.18-1.09h76.86Z"/><path class="cls-3" d="M121.86,114.45h-75c.07-.44.1-.66.17-1.09h74.71Z"/><path class="cls-3" d="M88.29,67.48H53.68c.07-.44.11-.66.18-1.09H88.28Z"/><path class="cls-3" d="M122.34,71.37H53.05c.07-.44.11-.66.18-1.09h68.93Z"/><path class="cls-3" d="M85.68,75.43c-.16.21-.23.32-.39.54h0l.61-.08v.29l-.61-.08h0l.38.52-.25.16c-.1-.24-.14-.37-.24-.61h0c-.1.25-.16.37-.27.61l-.23-.15.39-.53h0l-.59.08v-.29l.59.08h0l-.37-.53.24-.15.25.6h0l.25-.6Z"/><path class="cls-3" d="M88.8,75.43l-.38.54h0l.61-.08v.29l-.61-.08h0l.39.52-.25.16-.25-.61h0c-.1.25-.15.37-.26.61l-.23-.15c.15-.22.23-.32.38-.53h0l-.59.08v-.29l.6.08h0c-.15-.21-.23-.31-.38-.53l.24-.15.25.6h0c.1-.24.15-.36.24-.6Z"/><path class="cls-3" d="M92,75.43,91.6,76h0l.6-.08v.29l-.61-.08h0l.4.52-.25.16c-.11-.24-.16-.37-.26-.61h0l-.25.61L91,76.64l.37-.53h0l-.59.08v-.29l.6.08h0c-.16-.21-.24-.31-.39-.53l.24-.15.26.6h0l.23-.6Z"/><path class="cls-3" d="M85.31,96.18l-.43.55h0l.68-.09V97l-.68-.08h0l.43.52-.29.16c-.1-.25-.16-.37-.26-.61h0l-.3.61-.25-.16.43-.53h0L84,97v-.3l.66.08h0l-.42-.53.28-.15c.1.24.16.36.27.6h0L85,96Z"/><path class="cls-3" d="M88.77,96.18l-.42.55h0l.67-.09V97l-.67-.08h0l.43.52-.28.16L88.23,97h0c-.12.24-.18.37-.29.61l-.26-.16.43-.53h0l-.67.09v-.3l.66.08h0l-.42-.53.27-.15.28.6h0L88.5,96Z"/><path class="cls-3" d="M92.28,96.18l-.41.55h0l.67-.09V97l-.68-.08h0l.44.52-.28.16c-.11-.25-.17-.37-.28-.61h0c-.11.24-.16.37-.28.61l-.25-.16.41-.53h0L91,97v-.3l.66.08h0c-.17-.21-.25-.32-.43-.53l.27-.15c.12.24.18.36.29.6h0c.11-.24.16-.36.26-.61Z"/><path class="cls-3" d="M73.24,125.46a2.47,2.47,0,0,0-1.07-.93,2.3,2.3,0,0,0-.79-1.12,2.76,2.76,0,0,0-1.3-.64,2.48,2.48,0,0,0-1.09-.89,3,3,0,0,0-1.46-.32,2.71,2.71,0,0,0-1.32-.59,3.05,3.05,0,0,0-1.52,0,3,3,0,0,0-1.47-.26,3.28,3.28,0,0,0-1.49.38,3.14,3.14,0,0,0-1.52.09,3.29,3.29,0,0,0-1.38.7,3.29,3.29,0,0,0-1.49.43,3.23,3.23,0,0,0-1.17,1,3.27,3.27,0,0,0-1.36.75,2.79,2.79,0,0,0-.88,1.18,3.11,3.11,0,0,0-1.15,1,2.45,2.45,0,0,0-.54,1.31,2.77,2.77,0,0,0-.84,1.21,2.06,2.06,0,0,0-.14,1.34,2.47,2.47,0,0,0-.49,1.32,2,2,0,0,0,.28,1.29,2.08,2.08,0,0,0-.07,1.35,2,2,0,0,0,.68,1.15A2,2,0,0,0,52,136.5a2.34,2.34,0,0,0,1,.93,2.07,2.07,0,0,0,.76,1.12,2.82,2.82,0,0,0,1.35.64,2.46,2.46,0,0,0,1.13.89,3.34,3.34,0,0,0,1.55.31,2.91,2.91,0,0,0,1.4.6,3.67,3.67,0,0,0,1.64,0,3.31,3.31,0,0,0,1.58.26,3.55,3.55,0,0,0,1.6-.38,3.62,3.62,0,0,0,1.64-.08,3.33,3.33,0,0,0,1.44-.71,3.48,3.48,0,0,0,1.57-.43,3,3,0,0,0,1.19-1,3.36,3.36,0,0,0,1.39-.75,2.52,2.52,0,0,0,.83-1.18,2.87,2.87,0,0,0,1.12-1,2.21,2.21,0,0,0,.44-1.3,2.5,2.5,0,0,0,.76-1.21,2.08,2.08,0,0,0,0-1.35,2.46,2.46,0,0,0,0-2.61,2.15,2.15,0,0,0,0-1.34,2.27,2.27,0,0,0-.75-1.15A2.1,2.1,0,0,0,73.24,125.46ZM68,138.63c-4.65,2.36-11.71,2-14.77-2.76s.33-10.25,4.68-12.54c4.62-2.44,11-1.79,14.12,2.76S72.64,136.29,68,138.63Z"/><path class="cls-3" d="M58.27,123.85c-4.06,2.14-7.13,7.37-4.34,11.69s9.41,4.78,13.75,2.57,6.69-7.42,3.78-11.69S62.58,121.57,58.27,123.85Zm8.08,12.34c-3.19,1.62-7.9,1.33-10-1.88s.13-7,3.12-8.55c3.16-1.65,7.58-1.23,9.69,1.88S69.45,134.61,66.35,136.19Z"/><path class="cls-3" d="M60.94,128.07a4.4,4.4,0,0,1,4.11,0l2-1.08a6.72,6.72,0,0,0-7.17-.46c-2.1,1.1-3.71,3.41-3.19,5.86l2.11-1.08A3.62,3.62,0,0,1,60.94,128.07Z"/><path class="cls-3" d="M64.78,133.89a4.66,4.66,0,0,1-4.21,0L58.46,135a7.08,7.08,0,0,0,7.39.46,5.27,5.27,0,0,0,3-5.86l-2.05,1.08A3.47,3.47,0,0,1,64.78,133.89Z"/><path class="cls-4" d="M79.14,125.54l-.33,10.87h52.43l-1.74-10.87Zm51.67,10.56H79.2q.15-5.13.29-10.24h49.7Z"/><path class="cls-4" d="M85.82,127c.44,2.63.89,5.25,1.35,7.88H84.68c-.05-.57-.07-.85-.12-1.42H83.7c-.07.57-.1.85-.17,1.42H81c.47-2.63.93-5.25,1.39-7.88Zm-1.31,5.06c-.11-.89-.33-3.31-.33-3.31s-.42,2.62-.5,3.31Z"/><path class="cls-4" d="M87.57,127H90a6.39,6.39,0,0,1,1.49.13,1.72,1.72,0,0,1,.78.38,1.18,1.18,0,0,1,.37.6,4.43,4.43,0,0,1,.12,1.09v.69a2.42,2.42,0,0,1-.16,1.1,1.1,1.1,0,0,1-.66.53,3.72,3.72,0,0,1-1.27.18H90c0,1.27,0,1.91,0,3.18H87.59C87.58,132.29,87.58,129.66,87.57,127ZM90,128.39c0,.8,0,1.2,0,2h.17a.63.63,0,0,0,.46-.14,1,1,0,0,0,.12-.58c0-.26,0-.39,0-.65a.7.7,0,0,0-.15-.52A1.09,1.09,0,0,0,90,128.39Z"/><path class="cls-4" d="M93.35,127h2.39a6.39,6.39,0,0,1,1.49.13,1.87,1.87,0,0,1,.8.38,1.34,1.34,0,0,1,.38.6,5.38,5.38,0,0,1,.14,1.09c0,.28,0,.41,0,.69a2.36,2.36,0,0,1-.13,1.1,1.11,1.11,0,0,1-.65.53,3.72,3.72,0,0,1-1.27.18h-.65l.1,3.18H93.54C93.48,132.29,93.41,129.66,93.35,127Zm2.41,1.35c0,.8,0,1.2.07,2H96a.62.62,0,0,0,.46-.14.92.92,0,0,0,.11-.58l0-.65a.69.69,0,0,0-.16-.52A1.09,1.09,0,0,0,95.76,128.39Z"/><path class="cls-4" d="M99.13,127h1.68a14.27,14.27,0,0,1,2.27.11,1.69,1.69,0,0,1,1,.57,2.5,2.5,0,0,1,.47,1.47,2,2,0,0,1-.19,1.24c-.17.21-1,.37-1,.37a4.49,4.49,0,0,1,1,.41,1.25,1.25,0,0,1,.34.46,6.54,6.54,0,0,1,.13,1.17l.14,2.08h-2.26l-.15-2.62a1.74,1.74,0,0,0-.16-.78.88.88,0,0,0-.63-.16c.08,1.43.12,2.14.19,3.56H99.49Zm2.44,1.35.1,1.75a1.09,1.09,0,0,0,.56-.1c.1-.06.14-.27.12-.61l0-.44a.64.64,0,0,0-.18-.49A1,1,0,0,0,101.57,128.39Z"/><path class="cls-4" d="M111.15,131.65a13.28,13.28,0,0,1,.08,1.68,1.56,1.56,0,0,1-.33.91,2.05,2.05,0,0,1-.89.63,4.09,4.09,0,0,1-1.38.21,4.18,4.18,0,0,1-1.36-.2,2.51,2.51,0,0,1-1-.62,1.83,1.83,0,0,1-.49-.9,15,15,0,0,1-.19-1.71l-.09-1.35a13.62,13.62,0,0,1,0-1.68,1.59,1.59,0,0,1,.34-.9,2,2,0,0,1,.88-.63,3.56,3.56,0,0,1,1.33-.22,4,4,0,0,1,1.33.21,2.39,2.39,0,0,1,1,.62,1.84,1.84,0,0,1,.5.9,12.86,12.86,0,0,1,.22,1.7Zm-2.61-2.59a2.06,2.06,0,0,0-.13-.7.36.36,0,0,0-.58,0,1.51,1.51,0,0,0,0,.73c.11,1.47.17,2.21.28,3.68a3.58,3.58,0,0,0,.13.85.32.32,0,0,0,.32.16c.17,0,.27-.06.31-.18a4.05,4.05,0,0,0,0-.89C108.71,131.24,108.65,130.51,108.54,129.06Z"/><path class="cls-4" d="M117.25,127q-.15,3.93-.35,7.88h-3.7c-.71-2.63-1.42-5.25-2.11-7.88h2.49c.43,1.83,1.18,5.51,1.18,5.51s0-2.87,0-4.05c0-.58,0-.88,0-1.46Z"/><path class="cls-4" d="M117.65,127h3.95l.2,1.57h-1.59l.19,1.5h1.49l.2,1.5h-1.51l.22,1.73h1.78l.2,1.58h-4.23Z"/><path class="cls-4" d="M122.44,127h1.77a13.4,13.4,0,0,1,2.34.13,2.18,2.18,0,0,1,1,.45,1.72,1.72,0,0,1,.51.69,9.85,9.85,0,0,1,.3,1.51c.17,1.1.26,1.65.43,2.76a5.28,5.28,0,0,1,.09,1.42.88.88,0,0,1-.32.56,1.67,1.67,0,0,1-.69.28,8,8,0,0,1-1.3.08h-3.07Q123,131,122.44,127Zm2.55,1.35.74,5.18c.35,0,.55-.06.62-.18a2.3,2.3,0,0,0,0-1c-.18-1.23-.27-1.84-.44-3.07a3.68,3.68,0,0,0-.14-.68.38.38,0,0,0-.21-.22A1.45,1.45,0,0,0,125,128.39Z"/><path class="cls-5" d="M132.65,122.62H75.53v-9A1.44,1.44,0,0,1,77,112.19H131.2a1.44,1.44,0,0,1,1.45,1.45Z"/><rect class="cls-6" x="76.91" y="122.62" width="54.37" height="0.43"/><path class="cls-6" d="M108.85,94.93C111.39,84,116,75.75,104.09,75.65c-11.93.1-7.29,8.36-4.76,19.28a18,18,0,0,1-4.76,17.26h19A18,18,0,0,1,108.85,94.93Z"/><path class="cls-7" d="M114.09,111.64a12,12,0,0,1-1.23-1.34H95.33a12,12,0,0,1-1.23,1.34l-.63.55h21.25Z"/><path class="cls-8" d="M85.74,85l-2.85,9.58,29.35,8.73c1.86.56,4-1.12,4.78-3.74l0-.09c.78-2.62-.09-5.19-2-5.74Z"/><path class="cls-8" d="M89.64,80.33l-.4,1.35a4.6,4.6,0,0,0,3,5.75l23.13,6.94A4.55,4.55,0,0,0,121,91.21l.4-1.35a4.6,4.6,0,0,0-3-5.75L95.28,77.17A4.56,4.56,0,0,0,89.64,80.33Z"/><path class="cls-8" d="M91.87,70.54l-.43,1.39a4.7,4.7,0,0,0,3.11,5.95l24.25,7a4.88,4.88,0,0,0,6-3.33l.43-1.4a4.71,4.71,0,0,0-3.11-6l-24.24-7A4.89,4.89,0,0,0,91.87,70.54Z"/><path class="cls-8" d="M94.36,61l-.43,1.42a4.93,4.93,0,0,0,3.33,6.14l25.4,7.5a5,5,0,0,0,6.16-3.33l.43-1.42a4.92,4.92,0,0,0-3.33-6.13l-25.4-7.51A5,5,0,0,0,94.36,61Z"/><polygon class="cls-9" points="89.84 96.69 90.55 96.9 104.54 58.85 101.38 57.91 89.84 96.69"/><rect class="cls-10" x="70.3" y="70.71" width="41.28" height="9.89" transform="translate(-7.51 141.23) rotate(-73.43)"/><polygon class="cls-11" points="0 26.53 94.81 54.56 82.64 95.43 0 70.82 0 26.53 0 26.53"/><circle class="cls-2" cx="78.26" cy="86.56" r="2.65"/><path class="cls-2" d="M70.5,81.5a2.65,2.65,0,1,1-3.29,1.78A2.64,2.64,0,0,1,70.5,81.5Z"/></svg>