<svg xmlns="http://www.w3.org/2000/svg" xmlns:xlink="http://www.w3.org/1999/xlink" viewBox="0 0 96.62 96.62"><defs><style>.cls-1{fill:none;}.cls-2{fill:#1fbbdb;}.cls-3{clip-path:url(#clip-path);}.cls-4{fill:#fff;}.cls-4,.cls-6{fill-rule:evenodd;}.cls-5,.cls-6{fill:#125591;}</style><clipPath id="clip-path"><circle class="cls-1" cx="48.31" cy="48.31" r="48.31"/></clipPath></defs><title>Replacement Icon</title><g id="Loans"><circle class="cls-2" cx="48.31" cy="48.31" r="48.31"/><g class="cls-3"><path class="cls-4" d="M88.09,50.29,75.74,28.91a1.64,1.64,0,0,0-2.24-.61L63.64,34a1.65,1.65,0,0,0-.6,2.24L75.39,57.62a1.63,1.63,0,0,0,2.24.6l9.86-5.69a1.65,1.65,0,0,0,.6-2.24Z"/><rect class="cls-5" x="5.35" y="35.93" width="27.98" height="14.67" rx="1.64" transform="translate(-27.8 38.38) rotate(-60)"/><path class="cls-4" d="M-13.43,42.44a2,2,0,0,0,.73,2.7l22.37,13a2,2,0,0,0,2.71-.73l14.9-25.82a2,2,0,0,0-.72-2.7l-22.38-13a2,2,0,0,0-2.7.73Z"/><path class="cls-6" d="M94.23,16.14a2,2,0,0,0-2.7-.72l-22.38,13a2,2,0,0,0-.72,2.71L83.33,57A2,2,0,0,0,86,57.7l22.38-13a2,2,0,0,0,.72-2.71Z"/><path class="cls-4" d="M59.4,51.78c-5.15-3.66-10.3-7.29-15.44-11a4.28,4.28,0,0,0-3.2-1h-8.7L21.94,57.39l6.28,4.51L42.8,51.38a3.88,3.88,0,0,1,4.14-.26l6.11,3.52a5.74,5.74,0,0,0,3.85.8,4.3,4.3,0,0,0,2.83-2,1.19,1.19,0,0,0-.33-1.64Z"/><path class="cls-6" d="M49.18,42.09l2-1.45a4,4,0,0,1,2.63-.78h9L73,57.39,51.31,73a6,6,0,0,1-7.12.4L51.58,68a1,1,0,0,0,.23-1.38,1,1,0,0,0-1.39-.23l-8,5.74-3-2.16,7.48-5.4A1,1,0,1,0,45.78,63l-8,5.78-2.88-2.07,7.42-5.35A1,1,0,0,0,42.52,60a1,1,0,0,0-1.38-.22l-8,5.74-3.27-2.35L44,53a1.88,1.88,0,0,1,2-.14l6.08,3.51a7.71,7.71,0,0,0,5.22,1,6.28,6.28,0,0,0,4.12-2.91,3.14,3.14,0,0,0-.84-4.32L49.18,42.09Z"/></g></g></svg>