<svg xmlns="http://www.w3.org/2000/svg" viewBox="0 0 96.62 96.62"><defs><style>.cls-1{fill:#1fbbdb;}.cls-2{fill:#125591;}.cls-3{fill:#fff;}</style></defs><title>Replacement Icon</title><g id="Get_Pre-Qualified" data-name="Get Pre-Qualified"><circle class="cls-1" cx="48.31" cy="48.31" r="48.31"/><path class="cls-2" d="M42.53,81.72a7.55,7.55,0,0,0-1-.18A59.92,59.92,0,0,1,28.75,80.2a30.15,30.15,0,0,1-4.12-1.37c-.69-.26-1.41-.73-1.41-1.55s.73-1.18,1.38-1.5a22.89,22.89,0,0,1,6.64-1.86,79.55,79.55,0,0,1,16-.84,49.86,49.86,0,0,1,13.72,2,10.15,10.15,0,0,1,2.31,1.08c1.15.75,1.12,1.59,0,2.35a11.61,11.61,0,0,1-4.67,1.7c-3,.46-6,.82-9,1.16-1.32.15-2.66.12-4,.19a5.38,5.38,0,0,0-.89.17Z"/><path class="cls-2" d="M68.77,64.7l-48-8.46c.43-2.34.75-4.63,1.3-6.86a4.53,4.53,0,0,1,5.34-3.23c4.69.81,9.37,1.66,14.06,2.48a2.64,2.64,0,0,0,.73-.08,2.19,2.19,0,0,0-.28-.66A3.61,3.61,0,0,1,43.44,42a.76.76,0,0,0,.58-.81A43.27,43.27,0,0,0,41.71,24a10.9,10.9,0,1,1,21-5.25,11.17,11.17,0,0,1-2.62,8.62,44.13,44.13,0,0,0-8,15.37.68.68,0,0,0,.26.84,3.61,3.61,0,0,1-.59,6.09,2.43,2.43,0,0,0-.49.52,2.67,2.67,0,0,0,.66.32c4.47.8,9,1.6,13.43,2.37,2.66.45,4.22,1.78,4.53,4.11a8.63,8.63,0,0,1-.2,2.47C69.42,61.15,69.09,62.88,68.77,64.7Z"/><path class="cls-3" d="M21.55,61.05c.24-1.4.48-2.73.7-4.07.07-.5.39-.45.73-.39l8.29,1.48,19.82,3.49,15.73,2.78L66,68.89Z"/></g></svg>