<svg xmlns="http://www.w3.org/2000/svg" viewBox="0 0 96.62 96.62"><defs><style>.cls-1{fill:#1fbbdb;}.cls-2{fill:#125591;}.cls-3{fill:#fff;}</style></defs><title>Replacement Icon</title><g id="Resources"><circle class="cls-1" cx="48.31" cy="48.31" r="48.31"/><polygon class="cls-2" points="82.3 72.45 79.25 71.2 79.25 74.04 82.3 72.45"/><path class="cls-3" d="M80.56,68.6v5.08L49.87,82.24,43,75.42s-1.67-6,0-6.82S80.56,68.6,80.56,68.6Z"/><path class="cls-2" d="M76.68,70l3.22-.72,2.4-.66V66.25h0L48.66,36.78,15.3,44.33a8,8,0,0,0,0,8.79L49,82.45,82.3,74.9h0V72.46l-2.22.5L49.77,79.8a2.46,2.46,0,0,1-.48-1.33,4.31,4.31,0,0,1,1-2.5Z"/><polygon class="cls-2" points="80.08 63.85 77.03 62.6 77.03 65.44 80.08 63.85"/><path class="cls-2" d="M78.34,60v5.08L47.65,73.64l-6.83-6.82s-1.67-6,0-6.82S78.34,60,78.34,60Z"/><path class="cls-3" d="M74.46,61.38l3.21-.72L80.08,60V57.65h0L46.43,28.18,13.08,35.73a8,8,0,0,0,0,8.79L46.72,73.85,80.08,66.3h0V63.85l-2.22.51L47.54,71.2a2.45,2.45,0,0,1-.47-1.34,4.28,4.28,0,0,1,1-2.49Z"/><polygon class="cls-2" points="82.3 55.88 79.25 54.63 79.25 57.47 82.3 55.88"/><path class="cls-3" d="M80.56,52v5.08L49.87,65.67,43,58.85s-1.67-6,0-6.82S80.56,52,80.56,52Z"/><path class="cls-2" d="M76.68,53.41l3.22-.72L82.3,52V49.68h0L48.66,20.21,15.3,27.76a8,8,0,0,0,0,8.79L49,65.88,82.3,58.33h0V55.88l-2.22.51L49.77,63.23a2.46,2.46,0,0,1-.48-1.34,4.3,4.3,0,0,1,1-2.49Z"/></g></svg>