<svg id="Layer_1" data-name="Layer 1" xmlns="http://www.w3.org/2000/svg" viewBox="0 0 477.74 140.9"><defs><style>.cls-1{fill:#c1a04d;}.cls-2{fill:#a07f35;}.cls-3{fill:#876727;}.cls-4{fill:#005295;stroke:#005295;stroke-linecap:round;stroke-linejoin:round;stroke-width:2px;}</style></defs><title>Header Image</title><path class="cls-1" d="M377.13,4.48C307.12,3.71,166.34.78,96.33,0c-3.9,0-7.9-.07-11.55,1.29-4.35,1.62-7.76,5-11,8.32C61.57,21.82,1,109.78.82,113.5c-.32,5.9,7.21,8.55,13.09,9.16,19.13,2,38.39,2.11,57.62,2.21l394.69,2.25a11.32,11.32,0,0,0,9.3-4.56c3.2-4.46.84-8.51-1.87-11.65-5.71-6.59-71.47-83.82-86.83-101.86a12.88,12.88,0,0,0-9.58-4.57Z"/><path class="cls-2" d="M262.62,122.85,66.37,120.62c-1.75,0-3.63,0-5.07,1.3s2,13.17,3.32,14.64c133.49,1.7,263,2.62,396.44,4.33,5.29.07,11.23-.2,14.87-5.19,2.43-3.31,2.3-16.44.3-19.72-15.16,7.72-32.89,5.79-49.23,6.32q-27,.89-54.09,1.07C336.15,123.68,299.38,123.26,262.62,122.85Z"/><path class="cls-2" d="M66.37,120.62c0,3.16-.13,12.83-.14,16l-51-1.76c-3-.1-6.15-.22-9-1.6-4.75-2.31-9.16-19-3.65-22.61,1.29-.86,16.92,5.43,19.45,5.82C25.76,117,66.37,122.42,66.37,120.62Z"/><path class="cls-3" d="M31.84,122.42c-.35-.37.25-1,.74-.86s.76.64,1,1.11A31.55,31.55,0,0,1,36,131.82a1.19,1.19,0,0,1-1.79,0,3.41,3.41,0,0,1-.72-1.9c-.42-2.63-1.23-4.88-1.65-7.52"/><path class="cls-3" d="M469.9,122.58a77.8,77.8,0,0,1,.6,9.89c0,1.51-.22,3.31-1.56,4-.25-2.76-1.33-5.38-1.84-8.11s-.34-5.84,1.55-7.87c.58.49,1.05.62.81,1.34"/><path class="cls-3" d="M328.47,126.4c.2,2.32.3,4.66.3,7,0,1.07-.11,2.34-.78,2.84-.13-1.95-.67-3.81-.92-5.73s-.17-4.13.77-5.56c.29.34.53.44.41.94"/><path class="cls-3" d="M40.31,123.09l1.5,9.54a16.37,16.37,0,0,0-.56-10.39c-.54,0-.4-.32-1,.33"/><path class="cls-3" d="M464.75,124.8c2.62,2.94,2,8.15.08,11.57a26.72,26.72,0,0,1-.08-11.57"/><path class="cls-3" d="M28.83,122.58a32.91,32.91,0,0,1-.33,8.64,16.23,16.23,0,0,1-.61-10.41l1.6,1.11"/><path class="cls-3" d="M46.88,123a26.25,26.25,0,0,0,.23,10.63,2.41,2.41,0,0,0,1.93-.19l-1.17-11.42a1.43,1.43,0,0,0-1.07,1.06"/><path class="cls-3" d="M166,124.74a26.25,26.25,0,0,0,.23,10.63,2.39,2.39,0,0,0,1.94-.18L167,123.76a1.45,1.45,0,0,0-1.08,1.07"/><path class="cls-3" d="M56.57,123.83c.55,4,1.66,7.46,2.21,11.49,1.76-1.43,1.92-4,1.59-6.3s-1-4.54-.38-6.73a4.47,4.47,0,0,0-2.26-.16,1.51,1.51,0,0,0-1.16,1.7"/><path class="cls-3" d="M108.62,125.37c.31,3.54.94,6.55,1.25,10.09,1-1.26,1.1-3.56.91-5.53a21.78,21.78,0,0,1-.22-5.91,1.65,1.65,0,0,0-1.28-.14,1.41,1.41,0,0,0-.66,1.49"/><path class="cls-3" d="M73.53,124.78c-.35-.38.25-1,.74-.87s.77.65,1,1.11a31.64,31.64,0,0,1,2.45,9.15,1.17,1.17,0,0,1-1.79,0,3.37,3.37,0,0,1-.72-1.89c-.42-2.64-1.22-4.89-1.65-7.52"/><path class="cls-3" d="M127.3,125.47c-.35-.38.24-1,.74-.87s.76.65,1,1.11a31.64,31.64,0,0,1,2.45,9.15,1.17,1.17,0,0,1-1.79,0A3.37,3.37,0,0,1,129,133c-.43-2.64-1.23-4.89-1.65-7.52"/><path class="cls-3" d="M64.22,125l1.91,10a16.16,16.16,0,0,0-.91-11.52c-1,.25-.72.57-1,1.51"/><path class="cls-3" d="M136,125.38l1.91,10a16.1,16.1,0,0,0-.9-11.52c-1,.25-.72.56-1,1.51"/><path class="cls-3" d="M116.11,125.38l1.91,10a16.1,16.1,0,0,0-.9-11.52c-1,.25-.72.56-1,1.51"/><path class="cls-3" d="M85.1,124.38l1.5,9.53A16.37,16.37,0,0,0,86,123.52c-.54,0-.4-.31-1,.34"/><path class="cls-3" d="M119.77,124.94l1.51,9.53a16.37,16.37,0,0,0-.56-10.39c-.55,0-.41-.31-1,.34"/><path class="cls-3" d="M146,125.76l1.5,9.54a16.4,16.4,0,0,0-.56-10.4c-.55,0-.41-.31-1,.34"/><path class="cls-3" d="M161.08,125.76l1.5,9.54a16.4,16.4,0,0,0-.56-10.4c-.55,0-.41-.31-1,.34"/><path class="cls-3" d="M70.52,126.62a33,33,0,0,1-.33,8.65,16.23,16.23,0,0,1-.61-10.41l1.6,1.11"/><path class="cls-3" d="M126,126.19a33.34,33.34,0,0,1-.34,8.64,16.23,16.23,0,0,1-.61-10.41l1.6,1.12"/><path class="cls-3" d="M144.55,127.13a33.42,33.42,0,0,1-.34,8.65,16.23,16.23,0,0,1-.61-10.41l1.6,1.11"/><path class="cls-3" d="M80.49,123.55a26.43,26.43,0,0,0,.23,10.63,2.39,2.39,0,0,0,1.94-.18l-1.17-11.43a1.43,1.43,0,0,0-1.07,1.07"/><path class="cls-3" d="M189.14,125.18a26.61,26.61,0,0,0,.23,10.63,2.43,2.43,0,0,0,1.94-.19l-1.17-11.43a1.46,1.46,0,0,0-1.07,1.07"/><path class="cls-3" d="M132.61,124.74a26.25,26.25,0,0,0,.23,10.63,2.39,2.39,0,0,0,1.94-.18l-1.18-11.43a1.46,1.46,0,0,0-1.07,1.07"/><path class="cls-3" d="M112.93,124.36a26.25,26.25,0,0,0,.23,10.63,2.44,2.44,0,0,0,1.94-.19l-1.17-11.43a1.47,1.47,0,0,0-1.08,1.07"/><path class="cls-3" d="M302.4,127.32c-.34-.38.25-1,.74-.87a1.76,1.76,0,0,1,1,1.12,30.93,30.93,0,0,1,2.45,9.15,1.18,1.18,0,0,1-1.78,0,3.42,3.42,0,0,1-.73-1.9c-.42-2.63-1.22-4.88-1.65-7.52"/><path class="cls-3" d="M311.13,127.23l1.92,10a16.16,16.16,0,0,0-.91-11.52c-.95.26-.72.57-1,1.51"/><path class="cls-3" d="M291.22,127.23l1.91,10a16.16,16.16,0,0,0-.9-11.52c-1,.26-.72.57-1,1.51"/><path class="cls-3" d="M294.88,126.79l1.5,9.54a16.37,16.37,0,0,0-.56-10.39c-.54,0-.41-.32-1,.33"/><path class="cls-3" d="M301.07,128a33,33,0,0,1-.34,8.65,16.37,16.37,0,0,1-.61-10.41l1.6,1.11"/><path class="cls-3" d="M307.71,126.6a26.61,26.61,0,0,0,.23,10.63,2.43,2.43,0,0,0,1.94-.19l-1.17-11.43a1.46,1.46,0,0,0-1.07,1.07"/><path class="cls-3" d="M288,126.21a26.61,26.61,0,0,0,.23,10.63,2.43,2.43,0,0,0,1.94-.19L289,125.23a1.44,1.44,0,0,0-1.07,1.06"/><path class="cls-3" d="M460.3,125.38a22.81,22.81,0,0,1-1.3,13.46,39.5,39.5,0,0,1,.2-15.13.83.83,0,0,1,.82,1.09"/><path class="cls-3" d="M51.67,124.24c.21,3.15.67,5.74.88,8.89a2.24,2.24,0,0,0,1.87-.21A19.5,19.5,0,0,0,53,121.45a2.35,2.35,0,0,0-1.29,2.79"/><path class="cls-3" d="M168.9,125.71l1.5,9.53a16.37,16.37,0,0,0-.56-10.39c-.54,0-.41-.31-1,.34"/><path class="cls-3" d="M175.46,125.66a26.61,26.61,0,0,0,.23,10.63,2.43,2.43,0,0,0,1.94-.19l-1.17-11.43a1.46,1.46,0,0,0-1.07,1.07"/><path class="cls-3" d="M180.25,126.86c.22,3.15.68,5.74.89,8.89a2.24,2.24,0,0,0,1.87-.21,19.5,19.5,0,0,0-1.46-11.47,2.36,2.36,0,0,0-1.3,2.79"/><path class="cls-3" d="M454.63,124.93c2.13,4.44.15,9.68-1.71,14.24a39.28,39.28,0,0,1-.88-11.78c.18-1.6.24-3.7,1.64-2.91.76.43.73,0,.75,0"/><path class="cls-3" d="M331.37,124.93c1.07,3.68.08,8-.85,11.82a53.66,53.66,0,0,1-.44-9.78c.09-1.32.12-3.07.82-2.41.38.35.36,0,.37,0"/><path class="cls-3" d="M106.47,125.74a52.27,52.27,0,0,1,.4,6.5c0,1-.15,2.18-1,2.64-.17-1.82-.88-3.54-1.22-5.33s-.22-3.84,1-5.18c.38.32.69.41.53.88"/><path class="cls-3" d="M100.47,125.37c1.73,1.93,1.36,5.36.06,7.61a17.76,17.76,0,0,1-.06-7.61"/><path class="cls-3" d="M140.1,126.77c1.73,1.94,1.35,5.36.06,7.61a17.6,17.6,0,0,1-.06-7.61"/><path class="cls-3" d="M412.61,127.72c.32,3.54.95,6.55,1.26,10.09,1-1.26,1.09-3.56.9-5.53a21.77,21.77,0,0,1-.21-5.91,1.72,1.72,0,0,0-1.29-.14,1.44,1.44,0,0,0-.66,1.49"/><path class="cls-3" d="M431.29,127.82c-.34-.38.25-1,.74-.87a1.76,1.76,0,0,1,1,1.12,30.93,30.93,0,0,1,2.45,9.15,1.18,1.18,0,0,1-1.78,0,3.45,3.45,0,0,1-.73-1.9c-.42-2.64-1.22-4.89-1.65-7.52"/><path class="cls-3" d="M440,127.73l1.91,10a16.1,16.1,0,0,0-.9-11.52c-.95.25-.72.56-1,1.51"/><path class="cls-3" d="M420.11,127.73l1.91,10a16.15,16.15,0,0,0-.9-11.52c-1,.25-.72.56-1,1.51"/><path class="cls-3" d="M423.77,127.29l1.5,9.54a16.37,16.37,0,0,0-.56-10.39c-.54,0-.41-.32-1,.33"/><path class="cls-3" d="M430,128.54a33,33,0,0,1-.34,8.65,16.4,16.4,0,0,1-.61-10.42l1.6,1.12"/><path class="cls-3" d="M436.6,127.09a26.61,26.61,0,0,0,.23,10.63,2.39,2.39,0,0,0,1.94-.18l-1.17-11.43a1.46,1.46,0,0,0-1.07,1.07"/><path class="cls-3" d="M416.92,126.71a26.61,26.61,0,0,0,.23,10.63,2.43,2.43,0,0,0,1.94-.19l-1.17-11.43a1.46,1.46,0,0,0-1.07,1.07"/><path class="cls-3" d="M410.47,128.09a50.51,50.51,0,0,1,.39,6.5c0,1-.14,2.18-1,2.64-.16-1.81-.87-3.54-1.21-5.33s-.22-3.84,1-5.18c.37.32.69.41.53.88"/><path class="cls-3" d="M444.1,129.12c1.72,1.94,1.35,5.36,0,7.61a17.6,17.6,0,0,1,0-7.61"/><path class="cls-3" d="M186.8,126.26c1.73,1.93,1.35,5.36.06,7.61a17.45,17.45,0,0,1-.06-7.61"/><path class="cls-3" d="M155.8,126.13c1.73,1.93,1.35,5.36.06,7.61a17.45,17.45,0,0,1-.06-7.61"/><path class="cls-3" d="M97.54,125.75a15,15,0,0,1-.86,8.86,26.08,26.08,0,0,1,.14-10,.54.54,0,0,1,.54.72"/><path class="cls-3" d="M92.6,125.06c1.41,2.92.1,6.37-1.13,9.36a26,26,0,0,1-.57-7.74c.11-1.05.15-2.44,1.07-1.92.5.28.48,0,.5,0"/><path class="cls-3" d="M368.43,127.42c.31,3.53.94,6.55,1.25,10.08,1-1.25,1.09-3.55.91-5.52a21.79,21.79,0,0,1-.22-5.91,1.66,1.66,0,0,0-1.28-.14,1.41,1.41,0,0,0-.66,1.49"/><path class="cls-3" d="M333.34,126.82c-.35-.37.24-1,.74-.86s.76.64,1,1.11a31.55,31.55,0,0,1,2.45,9.15,1.19,1.19,0,0,1-1.79,0,3.41,3.41,0,0,1-.72-1.9c-.43-2.63-1.23-4.88-1.65-7.52"/><path class="cls-3" d="M387.1,127.51c-.34-.37.25-1,.74-.86s.77.64,1,1.11a31.22,31.22,0,0,1,2.44,9.15,1.18,1.18,0,0,1-1.78,0,3.41,3.41,0,0,1-.72-1.9c-.43-2.63-1.23-4.88-1.66-7.52"/><path class="cls-3" d="M395.84,127.43l1.91,10a16.18,16.18,0,0,0-.9-11.51c-1,.25-.72.56-1,1.51"/><path class="cls-3" d="M375.92,127.43l1.91,10a16.08,16.08,0,0,0-.9-11.51c-1,.25-.72.56-1,1.51"/><path class="cls-3" d="M344.91,126.43l1.5,9.53a16.37,16.37,0,0,0-.56-10.39c-.55,0-.41-.32-1,.34"/><path class="cls-3" d="M379.58,127l1.5,9.53a16.37,16.37,0,0,0-.56-10.39c-.54,0-.4-.31-1,.34"/><path class="cls-3" d="M385.77,128.24a32.91,32.91,0,0,1-.33,8.64,16.3,16.3,0,0,1-.62-10.41l1.61,1.11"/><path class="cls-3" d="M404.35,129.18a33,33,0,0,1-.33,8.65,16.26,16.26,0,0,1-.61-10.42l1.6,1.12"/><path class="cls-3" d="M340.3,125.6a26.25,26.25,0,0,0,.23,10.63,2.44,2.44,0,0,0,1.94-.19l-1.17-11.42a1.44,1.44,0,0,0-1.08,1.06"/><path class="cls-3" d="M392.42,126.79a26.25,26.25,0,0,0,.23,10.63,2.41,2.41,0,0,0,1.93-.19l-1.17-11.42a1.44,1.44,0,0,0-1.07,1.06"/><path class="cls-3" d="M372.74,126.4A26.25,26.25,0,0,0,373,137a2.37,2.37,0,0,0,1.93-.18l-1.17-11.43a1.46,1.46,0,0,0-1.07,1.07"/><path class="cls-3" d="M366.28,127.78a50.67,50.67,0,0,1,.39,6.51c0,1-.14,2.18-1,2.64-.17-1.82-.88-3.54-1.22-5.33s-.22-3.84,1-5.18c.38.32.69.41.53.88"/><path class="cls-3" d="M360.28,127.41c1.73,1.94,1.35,5.36.06,7.61a17.45,17.45,0,0,1-.06-7.61"/><path class="cls-3" d="M399.91,128.81c1.73,1.94,1.35,5.37.06,7.62a17.49,17.49,0,0,1-.06-7.62"/><path class="cls-3" d="M357.35,127.8a14.91,14.91,0,0,1-.86,8.85,26,26,0,0,1,.13-10,.54.54,0,0,1,.55.72"/><path class="cls-3" d="M352.41,127.1c1.4,2.92.1,6.37-1.13,9.37a26,26,0,0,1-.58-7.75c.12-1,.16-2.43,1.08-1.91.5.28.48,0,.5,0"/><path class="cls-3" d="M449.18,127.3c1.4,2.93.1,6.37-1.13,9.37a26,26,0,0,1-.58-7.75c.12-1,.16-2.43,1.08-1.91.5.28.48,0,.49,0"/><path class="cls-3" d="M237.56,126c.32,3.54.95,6.55,1.26,10.09,1-1.25,1.09-3.56.9-5.53a21.71,21.71,0,0,1-.21-5.9,1.68,1.68,0,0,0-1.29-.15,1.44,1.44,0,0,0-.66,1.49"/><path class="cls-3" d="M202.47,125.39c-.34-.38.25-1,.74-.87s.77.65,1,1.12a31.22,31.22,0,0,1,2.44,9.15,1.18,1.18,0,0,1-1.78,0,3.43,3.43,0,0,1-.72-1.9c-.43-2.64-1.23-4.88-1.66-7.52"/><path class="cls-3" d="M256.24,126.08c-.34-.38.25-1,.74-.87a1.76,1.76,0,0,1,1,1.12,30.93,30.93,0,0,1,2.45,9.15,1.18,1.18,0,0,1-1.78,0,3.45,3.45,0,0,1-.73-1.9c-.42-2.64-1.22-4.88-1.65-7.52"/><path class="cls-3" d="M193.16,125.61l1.91,10a16.11,16.11,0,0,0-.9-11.52c-1,.26-.72.57-1,1.52"/><path class="cls-3" d="M245.06,126,247,136a16.16,16.16,0,0,0-.9-11.52c-1,.26-.72.57-1,1.51"/><path class="cls-3" d="M214,125l1.51,9.54a16.37,16.37,0,0,0-.56-10.39c-.55,0-.41-.32-1,.33"/><path class="cls-3" d="M248.72,125.55l1.5,9.54a16.37,16.37,0,0,0-.56-10.39c-.54,0-.41-.32-1,.33"/><path class="cls-3" d="M199.47,127.24a32.91,32.91,0,0,1-.34,8.64,16.23,16.23,0,0,1-.61-10.41l1.6,1.11"/><path class="cls-3" d="M272.2,125.42a26.25,26.25,0,0,0,.23,10.63,2.44,2.44,0,0,0,1.94-.19l-1.17-11.43a1.47,1.47,0,0,0-1.08,1.07"/><path class="cls-3" d="M263.31,127.1c.21,3.15.67,5.74.88,8.89a2.26,2.26,0,0,0,1.88-.21,19.58,19.58,0,0,0-1.46-11.47,2.36,2.36,0,0,0-1.3,2.79"/><path class="cls-3" d="M269.86,126.5c1.72,1.94,1.35,5.36.05,7.61a17.6,17.6,0,0,1-.05-7.61"/><path class="cls-3" d="M276.22,125.85l1.91,10a16.18,16.18,0,0,0-.9-11.51c-1,.25-.72.56-1,1.51"/><path class="cls-3" d="M282.53,127.48a33.34,33.34,0,0,1-.34,8.64,16.23,16.23,0,0,1-.61-10.41l1.6,1.11"/><path class="cls-3" d="M254.91,126.8a33,33,0,0,1-.34,8.65A16.39,16.39,0,0,1,254,125l1.6,1.12"/><path class="cls-3" d="M209.44,124.17a26.25,26.25,0,0,0,.23,10.63,2.44,2.44,0,0,0,1.94-.19l-1.18-11.43a1.46,1.46,0,0,0-1.07,1.07"/><path class="cls-3" d="M315.81,128c-.34-.38.25-1,.74-.87a1.76,1.76,0,0,1,1,1.12,30.93,30.93,0,0,1,2.45,9.15,1.18,1.18,0,0,1-1.78,0,3.41,3.41,0,0,1-.72-1.9c-.43-2.63-1.23-4.88-1.66-7.52"/><path class="cls-3" d="M322.78,126.76a26.25,26.25,0,0,0,.23,10.63,2.41,2.41,0,0,0,1.93-.19l-1.17-11.43a1.46,1.46,0,0,0-1.07,1.07"/><path class="cls-3" d="M241.87,125a26.61,26.61,0,0,0,.23,10.63,2.43,2.43,0,0,0,1.94-.19L242.87,124a1.43,1.43,0,0,0-1.07,1.06"/><path class="cls-3" d="M235.42,126.35a50.56,50.56,0,0,1,.39,6.51c0,1-.14,2.17-1,2.64-.16-1.82-.87-3.54-1.21-5.34s-.22-3.84,1-5.17c.37.31.69.4.53.87"/><path class="cls-3" d="M229.42,126c1.73,1.94,1.35,5.36.06,7.61a17.45,17.45,0,0,1-.06-7.61"/><path class="cls-3" d="M226.49,126.36a15,15,0,0,1-.86,8.86,26,26,0,0,1,.13-10,.55.55,0,0,1,.55.71"/><path class="cls-3" d="M221.54,125.67c1.41,2.92.11,6.37-1.12,9.37a25.74,25.74,0,0,1-.58-7.75c.12-1.05.16-2.43,1.08-1.91.5.28.48,0,.49,0"/><path class="cls-3" d="M152.2,126.09c1.41,2.92.1,6.37-1.13,9.37a26.06,26.06,0,0,1-.57-7.75c.11-1,.15-2.43,1.07-1.91.5.28.48,0,.5,0"/><path class="cls-3" d="M8.31,116.94c.22,4.64,1,8.21,1.24,12.85a1.6,1.6,0,0,0,.29,1.05,1.15,1.15,0,0,0,1.72-.33,3.35,3.35,0,0,0,.3-2c-.27-4.58-.6-9.36-3-13.27a1.27,1.27,0,0,0-.57,1.68"/><path class="cls-3" d="M14.88,119.78c.55,4,1.66,7.47,2.21,11.49,1.76-1.43,1.92-4.05,1.59-6.29s-1-4.55-.38-6.73a4.48,4.48,0,0,0-2.26-.17,1.52,1.52,0,0,0-1.16,1.7"/><path class="cls-3" d="M22.53,121l1.91,10a16.16,16.16,0,0,0-.91-11.52c-1,.26-.72.57-1,1.52"/><path class="cls-4" d="M80.77,33.92A119.81,119.81,0,0,0,58.94,70.46a43.27,43.27,0,0,0-2.64,10A1.1,1.1,0,0,0,57,81.57c5,1.29,9.72-.59,13.42-3.65,3.93-3.22,7-7.67,10.56-11.6a118.42,118.42,0,0,1,9.69-9.19L102,47.44c.51-.44,1.3.3,1.11,1,0,0-6.88,19.17-7.89,21.12-1.55,3-2,6.87-2.23,10.66,0,.48,5.73,2.57,8.46-.57,2.94-3.34,7.9-10.78,10.53-14.6,3.24-4.62,20.3-19.68,21.37-21.39a47.22,47.22,0,0,1,8.17-9.77.92.92,0,0,0-.12-1.35,7.69,7.69,0,0,0-8.34-.23c-2.78,1.6-4.78,4.44-6.8,7.11a125.1,125.1,0,0,1-17,18.74c-.44.4-1.16-.13-1.14-.84.26-8.45,5-15.19,7.63-22.85.15-.44-4.66-2.59-7.3-.16-10.32,9.73-24.83,17.26-36,26C75.22,56.74,82.15,40.92,89,35.94l-.65-.79a1.89,1.89,0,0,0-.61-.49C84.47,33.09,82.17,32.35,80.77,33.92Z"/><path class="cls-4" d="M150.68,32.9a5.5,5.5,0,0,0-3.58.93,7.24,7.24,0,0,0-1.73,3q-1.68,4.35-3.66,8.47c-3.12,6.59-6.8,12.66-10.4,18.72l-8.63,15a1.45,1.45,0,0,0,.87,2A151.92,151.92,0,0,0,151.3,82a5.9,5.9,0,0,0,2.2-.43c2.36-1.1,3-4.68,3.11-8a1.29,1.29,0,0,0-1-1.4q-8.49-.94-17-1.26a1.37,1.37,0,0,1-.92-2,50.2,50.2,0,0,0,3.57-8.34,6.42,6.42,0,0,1,1.57-3A4.35,4.35,0,0,1,146,57l14.52,1a3.81,3.81,0,0,0,2-.2c1.85-.9,1.75-4,2.53-6.34a1.29,1.29,0,0,0-1-1.76l-16-.47a1.34,1.34,0,0,1-1-1.79c1.28-3.68,3-7.3,6.18-8.42a12,12,0,0,1,5.11-.26c2.22.19,4.45.33,6.67.41,4.28.15,9.5-4.78,2.86-6.17C162.43,31.85,156.13,32.77,150.68,32.9Z"/><path class="cls-4" d="M180.32,34.23c-.75,4.72-3.45,8.63-4.2,13.33-.44,2.78-2.21,5.83-2.92,8.5-1.07,4.09-1.7,7.34-3.4,11a51.86,51.86,0,0,0-4,13.67q15.3,1,30.56.92A16.91,16.91,0,0,0,198,71.34q-10.09-.93-20.24-1.32a111.1,111.1,0,0,0,7.67-24.22c.5-2.52,4.25-8.87,2.55-10.91C186.7,33.39,180.49,33.12,180.32,34.23Z"/><path class="cls-4" d="M243.86,46.24a2.6,2.6,0,0,1-2.34-1.54c-1.8-3.85-6-5.54-9.9-6.4-4.38-1-9.12-1.45-13.25.82-3.85,2.13-6.65,6.56-7.73,11.42a28.3,28.3,0,0,0,1,14.7,10.93,10.93,0,0,0,2.68,4.81,9.1,9.1,0,0,0,4.21,1.84c4.59,1.09,9.37,2,14,.46a14.74,14.74,0,0,0,9-9.55,3.09,3.09,0,0,1,2.86-2.48,45.47,45.47,0,0,0,4.67,0c1.52-.09,2.54,1.62,2.07,3.43-1.5,5.83-3.47,11.61-7.29,15.41-5,5-11.64,5.08-17.7,4.72a36.21,36.21,0,0,1-11.32-2,17.35,17.35,0,0,1-9.21-8.18c-1.79-3.44-2.45-7.61-2.77-11.7-.39-5-.29-10.28,1.44-14.9C207.55,38.37,216,34,224.11,32.49c5.45-1,11.12-1,16.12,1.29a16.85,16.85,0,0,1,8.25,7.7C250.65,46.26,247.14,46.26,243.86,46.24Z"/><path class="cls-4" d="M305.53,59.89c-5-4.38-10.27-8.84-16.82-9.77-8.86-1.26-19.19,5.26-22.93,15.67-1,2.93-1.55,6.34-.46,8.95a8.1,8.1,0,0,0,2.53,3.2c4.92,4,12.19,3.58,17.76-1,2.59-2.13,5.12-5.19,8-5.39,2.63-.19,4.57,2,6.58,3.67A16.44,16.44,0,0,0,311,78.9a4.27,4.27,0,0,0,2.77-.83C320.55,72.45,307.69,61.82,305.53,59.89Z"/><path class="cls-4" d="M269.85,45.93a12.52,12.52,0,0,0-4.63-3.42A7.3,7.3,0,0,0,262,41.45a3.39,3.39,0,0,0-3,1.95,5.08,5.08,0,0,0-.09,3.29,9.87,9.87,0,0,0,6.78,7C270.39,55.11,273.12,50.35,269.85,45.93Z"/><path class="cls-4" d="M302.94,50.07a2.77,2.77,0,0,0,2.42-1.15,4.82,4.82,0,0,0,.58-2c.18-1.29.35-2.58.52-3.87a6.83,6.83,0,0,0,0-3c-.54-1.57-2.19-2-3.67-2.25a2.61,2.61,0,0,0-1.84.15c-1,.62-2.27,3.55-2.37,4.85-.14,1.7-.4,2.4-.54,4.1a2.84,2.84,0,0,0,1.83,2.45"/><path class="cls-4" d="M294.27,38c-.63-3.15-2.17-6.16-4.82-7.1a3.35,3.35,0,0,0-3.59.72,7,7,0,0,0-1.4,3.39,20.26,20.26,0,0,0-.65,4.84,5.09,5.09,0,0,0,1.66,4C289.56,46.8,295.73,45.4,294.27,38Z"/><path class="cls-4" d="M273.16,30.32a2.87,2.87,0,0,0-2.23,0c-1.11.54-1.67,2-1.89,3.39-.86,5.25,5,17.86,10.71,11.72C284.49,40.37,276.61,31.51,273.16,30.32Z"/><path class="cls-4" d="M420.11,72.45c-3.62-1.17-7.89-.82-12.05-.63-3.57.17-7.26.17-9.79-1.88C395,67.31,394.17,61.72,391,59c-.29-.25,0-.92.42-.93l14.9-.59a.69.69,0,0,0,.56-.75c-1.25-5.6-7.23-7.29-13-6.44-3.41.5-7.21,1.62-9.71-.15a11.69,11.69,0,0,1-2.71-3.42,26.29,26.29,0,0,0-5.38-6c-.31-.25,0-.89.39-.92q7.11-.52,14.3-1.36a.64.64,0,0,0,.49-.81c-2.17-4.42-8.08-4.61-13.28-4.35L363.83,34a.59.59,0,0,0-.51.46,4.17,4.17,0,0,0,1.17,3.31q15.19,19.65,28.95,39.27c1,1.5,2.08,3,3.67,3.72a9.89,9.89,0,0,0,3.69.55c8,.19,16.63,1.45,25.11,0a.75.75,0,0,0,.52-.54C427.44,76.38,422.85,73.37,420.11,72.45Z"/><path class="cls-4" d="M376.36,77.78a116,116,0,0,1-14.61-24c-1.1-2.33-2.27-4.85-4.52-5.71-.35,5.83,2.17,10.42,3.74,15.35a46.53,46.53,0,0,1,1.93,15.34c0,1.2-1.07,2.37-2,2.26-3.82-.43-6.53-4.1-9-7.4a104.8,104.8,0,0,0-14.87-16c-2.89-2.5-4.7-6.33-7.48-9A167.25,167.25,0,0,1,343.8,80.79c-2.55.76-5.34,1.49-7.22,0a8.91,8.91,0,0,1-2.27-3.73c-2.77-6.68-5.48-13.46-8.27-20.24L317.44,37c-.6-1.33-1-3,.37-3.22s4-1.11,5.09-.27c1.82,1.41,4.1,4.44,5.55,6.29a36.31,36.31,0,0,0,6.62,6.92c6.71,5.22,12.36,11.76,17.86,18.27l-4.82-30.32c2.1-1.34,4.56-1.51,6.22-.34a8.67,8.67,0,0,1,1.86,2q2.91,3.9,5.78,7.79c5.75,8,11.32,15.93,16.66,24,1.13,1.75,7.51,8.76,6.47,11.45C383.23,84.39,377.38,79.08,376.36,77.78Z"/><path class="cls-4" d="M48.18,91.58c-5.65,0-11.63.28-16.2,2.72-1.94,1-.35,4.51,2.06,4.59,112.36,3.44,223.74,5.27,334.49,7.1,20.49.34,42.94,2.64,65.32-3.11,2.07-.53,3.41-3.15,2.2-4.31-5.65-5.32-16-3.45-24.52-3.25q-19.81.45-39.51.56c-26.25.17-52.43,0-78.59-.46C241.53,94.59,189.51,93,137.3,92.1,107.57,91.6,77.82,91.33,48.18,91.58Z"/><path class="cls-4" d="M99.52,14.34a39.18,39.18,0,0,0-9,.79c-2.45.6-1.51,4.13,1.12,4.2,80.33,2.43,160.26,3.81,239.91,5.19,14.52.25,30.55,1.76,45.9-1.7,2.11-.47,3.1-3,1.53-3.91-4.61-2.76-11.35-1.66-17-1.55q-14.28.27-28.52.33c-19,.08-37.93-.11-56.86-.43-37.53-.63-75.11-1.79-112.79-2.45C142.38,14.43,120.93,14.21,99.52,14.34Z"/></svg>