<svg version="1.2" xmlns="http://www.w3.org/2000/svg" viewBox="0 0 18 15" width="18" height="15">
	<title>Twitter (1)-svg</title>
	<style>
		.s0 { fill: #d13035 } 
	</style>
	<path id="Path_109" class="s0" d="m16.5 3.8c0 0.2 0 0.3 0 0.5 0 5.8-4.7 10.6-10.6 10.6-2 0-4-0.6-5.7-1.7 0.3 0 0.6 0.1 0.9 0.1 1.7 0 3.3-0.6 4.6-1.6-1.6 0-3-1.1-3.5-2.6 0.6 0.1 1.1 0.1 1.7-0.1-1.7-0.4-3-1.9-3-3.6 0.5 0.3 1.1 0.4 1.7 0.5-1.6-1.1-2.1-3.3-1.1-5 1.9 2.3 4.7 3.7 7.7 3.9-0.5-2 0.8-4 2.8-4.5 1.3-0.3 2.6 0.1 3.6 1.1q1.2-0.3 2.4-0.9c-0.3 0.9-0.9 1.6-1.6 2.1 0.7-0.1 1.5-0.3 2.1-0.6-0.6 0.6-1.3 1.3-2 1.8z"/>
</svg>